<?xml version="1.0" standalone="no"?>
<!DOCTYPE svg PUBLIC "-//W3C//DTD SVG 1.1//EN" "http://www.w3.org/Graphics/SVG/1.1/DTD/svg11.dtd" >
<svg xmlns="http://www.w3.org/2000/svg" xmlns:xlink="http://www.w3.org/1999/xlink" version="1.1">
<metadata>
Created by FontForge 20170731 at Mon Jan 17 22:26:08 2011
 By Aleksey,,,
Copyright (c) Mark Simonson, 2010. All rights reserved.
</metadata>
<defs>
<font id="ProximaNovaSoft-Medium" horiz-adv-x="573" >
  <font-face 
    font-family="Proxima Nova Soft Md"
    font-weight="500"
    font-stretch="normal"
    units-per-em="1000"
    panose-1="2 0 5 6 3 0 0 2 0 4"
    ascent="775"
    descent="-225"
    x-height="483"
    cap-height="673"
    bbox="-157 -270 1064 908"
    underline-thickness="20"
    underline-position="-173"
    unicode-range="U+000D-FB02"
  />
<missing-glyph horiz-adv-x="501" 
d="M426 -58q0 -13 -9.5 -22.5t-22.5 -9.5h-287q-13 0 -22.5 9t-9.5 23v778q0 13 9.5 22.5t22.5 9.5h287q13 0 22.5 -9.5t9.5 -22.5v-778zM394 -60v782h-288v-782h288z" />
    <glyph glyph-name="fi" unicode="fi" horiz-adv-x="528" 
d="M411 662q23 0 40 -17t17 -41q0 -23 -17 -40t-40 -17t-40 17t-17 40q0 24 17 41t40 17zM456 38q0 -18 -13 -31t-32 -13q-18 0 -31 13t-13 31v408q0 17 13.5 30t32.5 13q17 0 30 -13t13 -30v-408zM315 638q0 -16 -8.5 -26.5t-23.5 -10.5q-3 0 -12 2t-15 2q-34 0 -53 -23
t-19 -65v-34h66q16 0 27 -11t11 -27q0 -17 -11 -28.5t-27 -11.5h-66v-367q0 -18 -13 -31t-31 -13q-19 0 -32 12.5t-13 31.5v367h-48q-16 0 -27 11.5t-11 27.5t10.5 27.5t27.5 11.5h48v34q0 75 40 117.5t106 42.5q74 0 74 -39z" />
    <glyph glyph-name="fl" unicode="fl" horiz-adv-x="528" 
d="M456 38q0 -18 -13 -31t-32 -13q-18 0 -31 13t-13 31v592q0 17 13.5 30t32.5 13q17 0 30 -13t13 -30v-592zM315 638q0 -16 -8.5 -26.5t-23.5 -10.5q-3 0 -12 2t-15 2q-34 0 -53 -23t-19 -65v-34h66q16 0 27 -11t11 -27q0 -17 -11 -28.5t-27 -11.5h-66v-367q0 -18 -13 -31
t-31 -13q-19 0 -32 12.5t-13 31.5v367h-48q-16 0 -27 11.5t-11 27.5t10.5 27.5t27.5 11.5h48v34q0 75 40 117.5t106 42.5q74 0 74 -39z" />
    <glyph glyph-name=".notdef" horiz-adv-x="501" 
d="M426 -58q0 -13 -9.5 -22.5t-22.5 -9.5h-287q-13 0 -22.5 9t-9.5 23v778q0 13 9.5 22.5t22.5 9.5h287q13 0 22.5 -9.5t9.5 -22.5v-778zM394 -60v782h-288v-782h288z" />
    <glyph glyph-name=".null" horiz-adv-x="0" 
 />
    <glyph glyph-name="nonmarkingreturn" horiz-adv-x="333" 
 />
    <glyph glyph-name="NULL" horiz-adv-x="0" 
 />
    <glyph glyph-name="NULL" horiz-adv-x="0" 
 />
    <glyph glyph-name="CR" unicode="&#xd;" horiz-adv-x="0" 
 />
    <glyph glyph-name="space" unicode=" " horiz-adv-x="257" 
 />
    <glyph glyph-name="exclam" unicode="!" horiz-adv-x="237" 
d="M172 620q0 -7 -7 -190.5t-8 -203.5q-1 -16 -12 -26.5t-27 -10.5t-27 10.5t-12 26.5q0 11 -3.5 110t-7 190t-3.5 94q-1 22 15 37.5t39 15.5q22 0 37.5 -15.5t15.5 -37.5zM180 52q0 -25 -18.5 -43.5t-43.5 -18.5t-43 18.5t-18 43.5t18 43.5t43 18.5t43.5 -18.5t18.5 -43.5z
" />
    <glyph glyph-name="quotedbl" unicode="&#x22;" horiz-adv-x="360" 
d="M155 625q0 -23 -28 -209q-4 -20 -25 -20q-19 0 -23 20q-28 185 -28 209q0 21 15 36.5t37 15.5t37 -15.5t15 -36.5zM309 625q0 -21 -28 -210q-2 -19 -25 -19q-8 0 -14.5 6t-7.5 13q-28 189 -28 210t15 36.5t37 15.5q21 0 36 -15.5t15 -36.5z" />
    <glyph glyph-name="numbersign" unicode="#" horiz-adv-x="598" 
d="M571 457q0 -12 -8.5 -20.5t-20.5 -8.5h-88l-64 -190h72q12 0 20.5 -8.5t8.5 -21.5t-8.5 -21.5t-20.5 -8.5h-93l-53 -162q-8 -23 -32 -23q-14 0 -24 9.5t-10 22.5q0 3 2 11l49 142h-107l-54 -162q-8 -23 -32 -23q-15 0 -24.5 10t-9.5 23q0 4 2 10l48 142h-66
q-12 0 -20.5 9t-8.5 23q0 11 8.5 19.5t20.5 8.5h87l62 190h-69q-12 0 -20.5 9t-8.5 22q0 12 8.5 20.5t20.5 8.5h90l54 163q7 22 32 22q14 0 23.5 -9.5t9.5 -22.5q0 -7 -1 -10l-47 -143h105l54 163q8 22 32 22q15 0 24 -9.5t9 -22.5q0 -7 -1 -10l-49 -143h69q12 0 20.5 -9
t8.5 -22zM383 428h-106l-62 -190h105z" />
    <glyph glyph-name="dollar" unicode="$" horiz-adv-x="599" 
d="M553 189q0 -79 -53 -135t-160 -64v-62q0 -14 -10 -24t-24 -10q-16 0 -26 10t-10 24v61q-135 10 -208 84q-12 12 -12 30q0 19 13.5 34t31.5 15q15 0 28 -10q64 -54 147 -65v221q-38 10 -62 18.5t-55.5 24t-49 33.5t-30.5 47.5t-13 65.5q0 77 58 129.5t152 59.5v64
q0 14 10 24t26 10q14 0 24 -10t10 -24v-66q113 -12 174 -70q12 -12 12 -30q0 -19 -14 -33t-34 -14q-13 0 -23 7q-58 42 -115 50v-196q37 -10 62.5 -19t56.5 -25.5t49.5 -36t31.5 -50t13 -68.5zM270 406v182q-49 -4 -78.5 -29.5t-29.5 -64.5q0 -34 27.5 -53t80.5 -35z
M452 179q0 39 -28.5 61.5t-83.5 38.5v-202q57 7 84.5 36.5t27.5 65.5z" />
    <glyph glyph-name="percent" unicode="%" horiz-adv-x="738" 
d="M356 510q0 -71 -45.5 -117t-118.5 -46q-72 0 -117 46t-45 117q0 72 45 119.5t117 47.5q73 0 118.5 -47.5t45.5 -119.5zM595 635l-403 -631q-9 -11 -20 -11t-19 7.5t-8 17.5q0 6 5 14l402 630q6 11 21 11q10 0 17.5 -8t7.5 -18q0 -7 -3 -12zM709 152q0 -70 -46 -117
t-118 -47t-117 46.5t-45 117.5t45 118.5t117 47.5t118 -47.5t46 -118.5zM98 510q0 -45 26.5 -75t67.5 -30q42 0 69 30t27 75q0 48 -27 78t-69 30q-41 0 -67.5 -30t-26.5 -78zM450 152q0 -46 26.5 -76t68.5 -30t69 30t27 76q0 47 -27 77.5t-69 30.5t-68.5 -30.5t-26.5 -77.5z
" />
    <glyph glyph-name="ampersand" unicode="&#x26;" horiz-adv-x="642" 
d="M490 128q10 -11 31.5 -31.5t32.5 -34t11 -26.5q0 -16 -12 -29t-30 -13q-8 0 -17.5 4.5t-21 15t-18 16t-20.5 20.5l-13 15q-82 -77 -189 -77q-92 0 -151.5 49t-59.5 139q0 71 39 116t107 80q-49 86 -49 149q0 67 50 111.5t124 44.5q69 0 113 -35.5t44 -98.5
q0 -36 -13 -64.5t-41 -51.5t-50.5 -36.5t-63.5 -33.5q51 -71 145 -173q32 47 57 115q10 24 37 24q17 0 28.5 -12t11.5 -27q0 -9 -5 -19q-31 -72 -77 -137zM128 183q0 -56 37 -89.5t89 -33.5q68 0 128 58q-111 118 -166 197q-88 -55 -88 -132zM308 609q-37 0 -62 -25.5
t-25 -64.5q0 -46 37 -108q60 30 91.5 58t31.5 70q0 33 -20.5 51.5t-52.5 18.5z" />
    <glyph glyph-name="quotesingle" unicode="'" horiz-adv-x="206" 
d="M155 625q0 -23 -28 -209q-4 -20 -25 -20q-19 0 -23 20q-28 185 -28 209q0 21 15 36.5t37 15.5t37 -15.5t15 -36.5z" />
    <glyph glyph-name="parenleft" unicode="(" horiz-adv-x="261" 
d="M237 -152q0 -14 -11 -26t-27 -12q-18 0 -28 14q-61 89 -94.5 198t-33.5 221t33.5 221.5t95.5 198.5q9 14 28 14q16 0 26.5 -11t10.5 -26q0 -8 -3 -15q-94 -188 -94 -382q0 -191 93 -379q4 -10 4 -16z" />
    <glyph glyph-name="parenright" unicode=")" horiz-adv-x="261" 
d="M218 243q0 -112 -33.5 -221.5t-94.5 -197.5q-10 -14 -28 -14q-16 0 -27 11.5t-11 26.5q0 6 4 16q93 184 93 379q0 194 -94 382q-3 6 -3 15q0 14 10 25.5t26 11.5q18 0 29 -14q62 -89 95.5 -198.5t33.5 -221.5z" />
    <glyph glyph-name="asterisk" unicode="*" horiz-adv-x="343" 
d="M173 683q9 0 16.5 -7t6.5 -17l-5 -96l81 51q6 4 12 4q8 0 16 -7t8 -18q0 -14 -12 -20l-85 -43l84 -44q12 -4 12 -20q0 -11 -7 -18t-17 -7q-8 0 -12 4l-80 51l5 -95q1 -10 -6.5 -17t-18.5 -7q-10 0 -17 7t-7 17l4 95l-81 -51q-4 -4 -11 -4q-9 0 -16.5 7t-7.5 18
q0 14 12 20l85 44l-85 43q-12 6 -12 21q0 10 7 17t17 7q7 0 11 -3l81 -52l-4 96q0 10 7 17t19 7z" />
    <glyph glyph-name="plus" unicode="+" horiz-adv-x="500" 
d="M477 338q0 -13 -8 -21.5t-20 -8.5h-166v-185q0 -14 -9.5 -23t-23.5 -9t-23 9.5t-9 22.5v185h-166q-12 0 -20.5 8.5t-8.5 21.5q0 12 8.5 20.5t20.5 8.5h166v179q0 13 9.5 22t24.5 9q13 0 22 -9t9 -22v-179h166q12 0 20 -8.5t8 -20.5z" />
    <glyph glyph-name="comma" unicode="," horiz-adv-x="237" 
d="M187 31q0 -41 -20.5 -81t-53.5 -69q-9 -7 -17 -7q-10 0 -19 7.5t-9 18.5q0 10 8 20q42 36 49 78q-4 -2 -15 -2q-23 0 -38 16t-15 41t17 43t42 18q29 0 50 -22.5t21 -60.5z" />
    <glyph glyph-name="hyphen" unicode="-" horiz-adv-x="300" 
d="M276 243q0 -17 -11 -28.5t-27 -11.5h-176q-16 0 -27 11.5t-11 28.5q0 16 11 27t27 11h176q16 0 27 -11t11 -27z" />
    <glyph glyph-name="period" unicode="." horiz-adv-x="237" 
d="M180 52q0 -26 -18 -44t-44 -18q-25 0 -43 18.5t-18 43.5t18 43.5t43 18.5t43.5 -18.5t18.5 -43.5z" />
    <glyph glyph-name="slash" unicode="/" horiz-adv-x="305" 
d="M295 665q0 -7 -1 -10l-222 -663q-6 -22 -30 -22q-14 0 -23.5 9.5t-9.5 22.5q0 4 2 10l221 663q8 22 31 22q13 0 22.5 -10t9.5 -22z" />
    <glyph glyph-name="zero" unicode="0" horiz-adv-x="614" 
d="M568 333q0 -64 -15.5 -124t-45.5 -110t-82 -80.5t-118 -30.5q-67 0 -118.5 30.5t-82 81t-45.5 110t-15 123.5t15 123.5t45.5 110t82 80.5t118.5 30q66 0 118 -30t82 -80.5t45.5 -110t15.5 -123.5zM467 333q0 109 -39 182.5t-121 73.5q-57 0 -94 -38t-51.5 -93t-14.5 -125
t14.5 -125t51.5 -93.5t94 -38.5q82 0 121 74t39 183z" />
    <glyph glyph-name="one" unicode="1" horiz-adv-x="358" 
d="M284 43q0 -20 -14.5 -34.5t-35.5 -14.5q-20 0 -34.5 14.5t-14.5 34.5v494l-85 -88q-12 -12 -28 -12t-29 12.5t-13 29.5t12 30l145 147q15 16 40 16q23 0 40 -16t17 -39v-574z" />
    <glyph glyph-name="two" unicode="2" horiz-adv-x="591" 
d="M528 45q0 -19 -12.5 -32t-30.5 -13h-395q-18 0 -32 14t-14 34q0 23 19 39q193 147 274 232t81 157q0 55 -38.5 84t-92.5 29q-91 0 -155 -56q-11 -11 -28 -11q-18 0 -31.5 13t-13.5 31q0 16 10 27q36 40 95 62t122 22q96 0 164 -53t68 -148q0 -90 -76 -179t-232 -209h275
q18 0 30.5 -13t12.5 -30z" />
    <glyph glyph-name="three" unicode="3" horiz-adv-x="565" 
d="M514 181q0 -85 -66 -139t-177 -54q-70 0 -131 24.5t-94 63.5q-10 10 -10 25q0 18 13 31.5t31 13.5q16 0 27 -10q70 -60 161 -60q69 0 108.5 30.5t39.5 83.5q0 107 -158 107q-78 -4 -78 45q0 18 12 30.5t31 12.5q84 -1 133 20t49 79q0 50 -41 77.5t-102 27.5
q-83 0 -149 -55q-11 -9 -25 -9q-16 0 -29.5 12.5t-13.5 29.5q0 19 13 30q87 80 213 80q103 0 168 -48t65 -131q0 -64 -44 -104t-101 -50q56 -5 105.5 -48t49.5 -115z" />
    <glyph glyph-name="four" unicode="4" horiz-adv-x="568" 
d="M544 204q0 -18 -12.5 -30.5t-29.5 -12.5h-55v-118q0 -20 -14.5 -34.5t-36.5 -14.5q-20 0 -34 14.5t-14 34.5v118h-274q-20 0 -35 15.5t-15 38.5q0 15 10 32l255 387q26 39 73 39q34 2 59.5 -19.5t25.5 -53.5v-352h55q17 0 29.5 -13t12.5 -31zM348 248v329l-220 -329h220z
" />
    <glyph glyph-name="five" unicode="5" horiz-adv-x="595" 
d="M547 211q0 -102 -68.5 -162.5t-176.5 -60.5q-148 0 -220 83q-9 12 -9 27q0 17 13 31.5t31 14.5q16 0 29 -11q65 -57 156 -57q65 0 105.5 37.5t40.5 93.5q0 60 -39.5 96t-104.5 36q-75 0 -131 -44q-21 -14 -40 -14q-21 0 -36 14t-15 35v272q0 27 19.5 46t46.5 19h319
q18 0 30.5 -13t12.5 -32q0 -17 -12.5 -30t-30.5 -13h-286v-213q59 59 154 59q88 0 150 -58t62 -156z" />
    <glyph glyph-name="six" unicode="6" horiz-adv-x="596" 
d="M551 209q0 -93 -66 -157t-173 -64q-91 0 -153 49t-87.5 124t-25.5 171q0 149 73 247t209 98q114 0 171 -64q9 -10 9 -25q0 -18 -13 -31t-31 -13q-15 0 -26 8q-45 37 -110 37q-86 0 -134 -71t-48 -171q0 -15 1 -23q24 39 75 69t109 30q95 0 157.5 -56t62.5 -158zM451 205
q0 65 -41 99t-105 34q-45 0 -87 -24.5t-70 -65.5q7 -70 46 -121t113 -51q67 0 105.5 40t38.5 89z" />
    <glyph glyph-name="seven" unicode="7" horiz-adv-x="523" 
d="M502 619q0 -8 -4 -18l-258 -578q-13 -29 -45 -29q-22 0 -36.5 15t-14.5 34q0 9 5 19l233 517h-316q-18 0 -30.5 13t-12.5 32q0 18 12.5 30.5t30.5 12.5h389q18 0 32.5 -13.5t14.5 -34.5z" />
    <glyph glyph-name="eight" unicode="8" horiz-adv-x="588" 
d="M541 170q0 -84 -71 -133t-176 -49t-176 48.5t-71 133.5q0 62 44.5 107.5t110.5 66.5q-63 19 -103.5 59t-40.5 100q0 85 70.5 129.5t165.5 44.5q96 0 166.5 -44.5t70.5 -129.5q0 -60 -41 -100t-104 -59q66 -21 110.5 -66.5t44.5 -107.5zM430 489q0 47 -38.5 74t-97.5 27
t-97.5 -27t-38.5 -74q0 -33 27.5 -57.5t54 -33.5t54.5 -14q19 3 39 9.5t43.5 18t38.5 32t15 45.5zM441 181q0 36 -29.5 64t-60 39.5t-57.5 15.5q-27 -4 -57.5 -15.5t-60 -39.5t-29.5 -64q0 -47 43 -76.5t104 -29.5t104 29.5t43 76.5z" />
    <glyph glyph-name="nine" unicode="9" horiz-adv-x="596" 
d="M549 334q0 -149 -73 -247t-209 -98q-112 0 -171 63q-10 12 -10 26q0 18 13.5 31t31.5 13q15 0 26 -8q45 -37 110 -37q86 0 134 71t48 171q0 15 -1 23q-24 -39 -75 -69t-109 -30q-95 0 -157.5 56t-62.5 158q0 93 66 157t174 64q91 0 152.5 -49t87 -124t25.5 -171zM447 418
q-6 69 -45 120.5t-114 51.5q-67 0 -105.5 -40t-38.5 -89q0 -65 41 -99t105 -34q46 0 87.5 24.5t69.5 65.5z" />
    <glyph glyph-name="colon" unicode=":" horiz-adv-x="236" 
d="M180 428q0 -26 -18 -44t-44 -18q-25 0 -43 18.5t-18 43.5t18 43.5t43 18.5q26 0 44 -18t18 -44zM180 52q0 -26 -18 -44t-44 -18q-25 0 -43 18.5t-18 43.5t18 43.5t43 18.5t43.5 -18.5t18.5 -43.5z" />
    <glyph glyph-name="semicolon" unicode=";" horiz-adv-x="237" 
d="M180 428q0 -25 -18.5 -43.5t-43.5 -18.5t-43 18.5t-18 43.5t18 43.5t43 18.5q26 0 44 -18t18 -44zM187 32q0 -41 -20.5 -81t-53.5 -69q-7 -6 -17 -6t-19 7t-9 18q0 12 8 20q43 38 49 79q-4 -2 -15 -2q-23 0 -38 15.5t-15 40.5t17 43t42 18q29 0 50 -22.5t21 -60.5z" />
    <glyph glyph-name="less" unicode="&#x3c;" horiz-adv-x="500" 
d="M477 138q0 -14 -10 -23t-22 -9q-7 0 -13 3l-384 185q-25 12 -25 42q0 27 25 39l383 186q5 2 14 2q12 0 22 -9t10 -23q0 -20 -18 -28l-359 -169l359 -168q18 -7 18 -28z" />
    <glyph glyph-name="equal" unicode="=" horiz-adv-x="500" 
d="M477 239q0 -13 -8 -22t-20 -9h-398q-11 0 -19.5 9t-8.5 22q0 12 8.5 20t19.5 8h398q12 0 20 -8t8 -20zM477 431q0 -13 -8.5 -22t-19.5 -9h-397q-12 0 -20.5 9t-8.5 22q0 11 9 20t20 9h397q11 0 19.5 -9t8.5 -20z" />
    <glyph glyph-name="greater" unicode="&#x3e;" horiz-adv-x="500" 
d="M477 336q0 -30 -25 -42l-385 -185q-6 -3 -13 -3q-11 0 -21 9t-10 23q0 22 17 28l359 168l-358 169q-19 8 -19 28q0 14 10 23t23 9q9 0 13 -2l384 -186q25 -12 25 -39z" />
    <glyph glyph-name="question" unicode="?" horiz-adv-x="460" 
d="M432 521q0 -41 -19 -74t-46.5 -54t-55 -39.5t-46.5 -40.5t-19 -48q0 -7 5 -20t5 -20q0 -15 -11 -26.5t-28 -11.5q-26 0 -42 29t-16 57q0 35 17.5 62.5t42.5 46.5t50.5 36t43 39.5t17.5 48.5q0 36 -27.5 59.5t-79.5 23.5q-72 0 -124 -50q-13 -11 -29 -11q-17 0 -29.5 12.5
t-12.5 30.5q0 15 9 26q32 38 85 59t111 21q91 0 145 -44t54 -112zM287 52q0 -25 -18.5 -43.5t-43.5 -18.5t-43.5 18t-18.5 44q0 25 18.5 43.5t43.5 18.5t43.5 -18.5t18.5 -43.5z" />
    <glyph glyph-name="at" unicode="@" horiz-adv-x="783" 
d="M747 324q0 -112 -55 -175.5t-125 -63.5q-41 0 -65.5 23.5t-26.5 58.5q-28 -36 -69.5 -59t-86.5 -23q-70 0 -111.5 45.5t-41.5 118.5q0 102 71 176t161 74q46 0 79 -21t49 -54l7 36q3 13 14 21.5t24 8.5q17 0 28.5 -11t11.5 -26q0 -2 -0.5 -4.5t-0.5 -3.5l-47 -225
q-2 -12 -2 -22q0 -24 12 -37t32 -13q37 0 70.5 43.5t33.5 132.5q0 123 -77.5 201t-203.5 78q-143 0 -250.5 -108t-107.5 -249q0 -120 81.5 -201t204.5 -81q93 0 176 51q4 2 8 2q6 0 11.5 -5t5.5 -12q0 -9 -6 -12q-92 -58 -199 -58q-136 0 -226.5 90.5t-90.5 223.5
q0 160 120 277t277 117q140 0 227.5 -90.5t87.5 -223.5zM513 366q-10 26 -35 47t-62 21q-69 0 -118 -54.5t-49 -124.5q0 -47 26 -76t71 -29q80 0 139 83z" />
    <glyph glyph-name="A" unicode="A" horiz-adv-x="665" 
d="M637 47q0 -20 -15 -36.5t-38 -16.5q-35 0 -48 32l-44 113h-319l-44 -113q-13 -32 -48 -32q-23 0 -38 16t-15 37q0 9 3 19l221 554q9 24 31 38.5t48 14.5q26 1 48.5 -13.5t32.5 -39.5l221 -554q4 -9 4 -19zM464 226l-132 340l-131 -340h263z" />
    <glyph glyph-name="B" unicode="B" horiz-adv-x="638" 
d="M588 180q0 -81 -51.5 -130.5t-142.5 -49.5h-254q-27 0 -46 19t-19 46v537q0 27 19 46t46 19h246q87 0 138 -47.5t51 -122.5q0 -60 -34 -101.5t-83 -51.5q54 -8 92 -56t38 -108zM473 482q0 43 -28 70.5t-77 27.5h-194v-196h194q49 0 77 27.5t28 70.5zM486 192
q0 44 -30 74.5t-84 30.5h-198v-210h198q54 0 84 28t30 77z" />
    <glyph glyph-name="C" unicode="C" horiz-adv-x="679" 
d="M393 678q139 0 228 -99q12 -14 12 -32q0 -19 -14 -32.5t-33 -13.5q-22 0 -34 16q-29 34 -72 53.5t-87 19.5q-105 0 -174.5 -72.5t-69.5 -184.5q0 -111 69.5 -184t174.5 -73q95 0 159 72q13 16 35 16q19 0 32.5 -14t13.5 -32q0 -19 -12 -31q-92 -99 -228 -99
q-148 0 -247.5 96.5t-99.5 248.5t99.5 248.5t247.5 96.5z" />
    <glyph glyph-name="D" unicode="D" horiz-adv-x="705" 
d="M657 333q0 -146 -95 -239.5t-250 -93.5h-172q-27 0 -46 19t-19 46v537q0 27 19 46t46 19h172q154 0 249.5 -94t95.5 -240zM556 333q0 107 -64.5 176.5t-179.5 69.5h-138v-491h138q112 0 178 70t66 175z" />
    <glyph glyph-name="E" unicode="E" 
d="M527 45q0 -19 -12.5 -32t-30.5 -13h-344q-27 0 -46 19t-19 46v537q0 27 19 46t46 19h344q18 0 30.5 -13t12.5 -32q0 -17 -12.5 -30t-30.5 -13h-310v-195h303q18 0 30.5 -13t12.5 -32q0 -17 -12.5 -30t-30.5 -13h-303v-208h310q18 0 30.5 -13t12.5 -30z" />
    <glyph glyph-name="F" unicode="F" horiz-adv-x="556" 
d="M527 622q0 -17 -12.5 -30t-30.5 -13h-310v-195h303q18 0 30.5 -13t12.5 -32q0 -17 -12.5 -30t-30.5 -13h-303v-253q0 -20 -14.5 -34.5t-35.5 -14.5q-20 0 -34.5 14.5t-14.5 34.5v559q0 27 19 46t46 19h344q18 0 30.5 -13t12.5 -32z" />
    <glyph glyph-name="G" unicode="G" horiz-adv-x="715" 
d="M661 158q0 -76 -84 -123.5t-184 -47.5q-147 0 -247 96.5t-100 249.5t100 249t247 96q140 0 231 -93q12 -11 12 -32q0 -19 -13 -32.5t-32 -13.5t-33 15q-66 68 -165 68q-105 0 -174.5 -72.5t-69.5 -184.5t69.5 -185t174.5 -73q51 0 96 20t73 47v121h-178q-18 0 -30.5 12.5
t-12.5 31.5q0 18 12.5 30.5t30.5 12.5h211q27 0 46.5 -19t19.5 -46v-127z" />
    <glyph glyph-name="H" unicode="H" horiz-adv-x="717" 
d="M643 43q0 -20 -14.5 -34.5t-35.5 -14.5t-35.5 14.5t-14.5 34.5v256h-369v-256q0 -20 -14.5 -34.5t-35.5 -14.5q-20 0 -34.5 14.5t-14.5 34.5v582q0 20 14.5 34t36.5 14q20 0 34 -14.5t14 -33.5v-238h369v238q0 20 15 34t37 14q19 0 33.5 -14.5t14.5 -33.5v-582z" />
    <glyph glyph-name="I" unicode="I" horiz-adv-x="248" 
d="M174 43q0 -20 -14.5 -34.5t-35.5 -14.5q-20 0 -34.5 14.5t-14.5 34.5v582q0 20 14.5 34t36.5 14q20 0 34 -14.5t14 -33.5v-582z" />
    <glyph glyph-name="J" unicode="J" horiz-adv-x="478" 
d="M403 206q0 -107 -60 -162.5t-158 -55.5q-102 0 -155 57q-11 10 -11 27q0 18 13 31.5t31 13.5q14 0 21 -6q46 -35 94 -35q57 0 91.5 36t34.5 95v418q0 20 14.5 34t36.5 14q19 0 33.5 -14.5t14.5 -33.5v-419z" />
    <glyph glyph-name="K" unicode="K" horiz-adv-x="610" 
d="M551 41q0 -18 -14 -33t-34 -15q-22 0 -37 18l-229 280l-63 -72v-176q0 -20 -14.5 -34.5t-35.5 -14.5q-20 0 -34.5 14.5t-14.5 34.5v582q0 20 14.5 34t36.5 14q20 0 34 -14.5t14 -33.5v-290l269 321q13 16 35 16q20 0 34.5 -13.5t14.5 -32.5q0 -17 -11 -28l-215 -247
l239 -282q11 -13 11 -28z" />
    <glyph glyph-name="L" unicode="L" horiz-adv-x="513" 
d="M482 45q0 -19 -12.5 -32t-30.5 -13h-299q-27 0 -46 19t-19 46v560q0 20 14.5 34t36.5 14q20 0 34 -14.5t14 -33.5v-537h265q18 0 30.5 -13t12.5 -30z" />
    <glyph glyph-name="M" unicode="M" horiz-adv-x="821" 
d="M747 43q0 -20 -14.5 -34.5t-35.5 -14.5t-35.5 14.5t-14.5 34.5v484l-212 -517q-7 -16 -26 -16q-17 0 -24 16l-211 517v-484q0 -20 -14.5 -34.5t-35.5 -14.5q-20 0 -34.5 14.5t-14.5 34.5v557q0 29 21 50t51 21q29 2 53 -11t34 -38l176 -430l177 430q9 22 29.5 35.5
t44.5 13.5q35 2 60.5 -18.5t25.5 -52.5v-557z" />
    <glyph glyph-name="N" unicode="N" horiz-adv-x="714" 
d="M639 51q0 -23 -17.5 -40t-42.5 -17q-32 0 -49 25l-356 487v-463q0 -20 -14.5 -34.5t-35.5 -14.5q-20 0 -34.5 14.5t-14.5 34.5v569q0 25 18.5 43t45.5 18q34 0 53 -27l348 -473v452q0 20 14.5 34t36.5 14q19 0 33.5 -14.5t14.5 -33.5v-574z" />
    <glyph glyph-name="O" unicode="O" horiz-adv-x="765" 
d="M718 333q0 -149 -94 -247t-242 -98t-242 97.5t-94 247.5t94 247.5t242 97.5t242 -98t94 -247zM616 333q0 112 -64.5 184.5t-169.5 72.5q-106 0 -169.5 -72t-63.5 -185q0 -112 63.5 -184.5t169.5 -72.5q105 0 169.5 72.5t64.5 184.5z" />
    <glyph glyph-name="P" unicode="P" horiz-adv-x="597" 
d="M568 462q0 -87 -57.5 -146t-155.5 -59h-181v-214q0 -20 -14.5 -34.5t-35.5 -14.5q-20 0 -34.5 14.5t-14.5 34.5v559q0 27 19 46t46 19h215q99 0 156 -59t57 -146zM466 462q0 52 -34.5 84.5t-89.5 32.5h-168v-234h168q55 0 89.5 32.5t34.5 84.5z" />
    <glyph glyph-name="Q" unicode="Q" horiz-adv-x="765" 
d="M718 333q0 -147 -91 -243l34 -37q10 -11 10 -28q0 -18 -13 -32t-32 -14q-21 0 -33 15l-37 39q-76 -45 -174 -45q-148 0 -242 97.5t-94 247.5t94 247.5t242 97.5t242 -98t94 -247zM616 333q0 112 -64.5 184.5t-169.5 72.5q-106 0 -169.5 -72t-63.5 -185
q0 -112 63.5 -184.5t169.5 -72.5q61 0 112 28l-64 70q-11 11 -11 28t13 31.5t32 14.5q20 0 33 -15l65 -71q54 71 54 171z" />
    <glyph glyph-name="R" unicode="R" horiz-adv-x="617" 
d="M568 462q0 -84 -48 -135t-118 -60l129 -200q7 -13 7 -25q0 -19 -14 -33.5t-35 -14.5q-26 0 -40 23l-150 240h-125v-214q0 -20 -14.5 -34.5t-35.5 -14.5q-20 0 -34.5 14.5t-14.5 34.5v559q0 27 19 46t46 19h215q95 0 154 -56t59 -149zM342 579h-168v-235h168q55 0 89.5 33
t34.5 85t-34.5 84.5t-89.5 32.5z" />
    <glyph glyph-name="S" unicode="S" horiz-adv-x="590" 
d="M548 189q0 -86 -62.5 -143.5t-189.5 -57.5q-73 0 -136 22.5t-103 61.5q-12 14 -12 31q0 19 13 34t33 15q16 0 28 -9q80 -68 181 -68q74 0 110 31.5t36 72.5q0 43 -40.5 68.5t-98 39.5t-115 32t-98 59.5t-40.5 108.5q0 83 66.5 136.5t169.5 53.5q63 0 122 -19t96 -53
q13 -12 13 -31t-14 -32.5t-33 -13.5q-15 0 -27 9q-72 53 -165 53q-56 0 -91 -26.5t-35 -69.5q0 -32 29 -53.5t72.5 -31.5t94.5 -26t94.5 -35t72.5 -60t29 -99z" />
    <glyph glyph-name="T" unicode="T" 
d="M549 622q0 -17 -12.5 -30t-30.5 -13h-170v-536q0 -20 -14.5 -34.5t-35.5 -14.5q-20 0 -34.5 14.5t-14.5 34.5v536h-170q-18 0 -30.5 13t-12.5 32q0 18 12.5 30.5t30.5 12.5h439q18 0 30.5 -13t12.5 -32z" />
    <glyph glyph-name="U" unicode="U" horiz-adv-x="709" 
d="M634 262q0 -128 -71.5 -201t-207.5 -73q-137 0 -208.5 73.5t-71.5 199.5v364q0 20 14.5 34t36.5 14q20 0 34 -14.5t14 -33.5v-361q0 -88 47 -138t134 -50t133.5 50t46.5 138v361q0 20 14.5 34t36.5 14q20 0 34 -14t14 -34v-363z" />
    <glyph glyph-name="V" unicode="V" horiz-adv-x="665" 
d="M637 621q0 -10 -3 -19l-221 -555q-10 -24 -31.5 -38.5t-46.5 -14.5h-5q-26 0 -47.5 14.5t-30.5 38.5l-221 555q-4 8 -4 19q0 19 15.5 35.5t38.5 16.5q35 0 48 -33l203 -532l204 532q12 33 48 33q23 0 38 -15.5t15 -36.5z" />
    <glyph glyph-name="W" unicode="W" horiz-adv-x="892" 
d="M867 624q0 -6 -2 -14l-162 -567q-6 -22 -24 -35.5t-41 -13.5h-2q-22 0 -40 14t-23 35l-127 473l-128 -473q-6 -22 -24 -35.5t-40 -13.5h-2q-23 0 -40.5 13.5t-22.5 34.5l-162 568q-2 10 -2 14q0 20 14.5 35.5t37.5 15.5q18 0 33 -11t19 -29l131 -504l138 505
q4 16 17.5 26.5t31.5 10.5q17 0 30.5 -10.5t17.5 -26.5l137 -505l131 504q4 17 18.5 28t32.5 11q23 0 38 -14.5t15 -35.5z" />
    <glyph glyph-name="X" unicode="X" horiz-adv-x="656" 
d="M605 42q0 -19 -14 -34t-34 -15q-23 0 -37 19l-192 261l-193 -261q-13 -19 -37 -19q-20 0 -34 13.5t-14 34.5q0 15 9 28l204 273l-189 257q-9 12 -9 26q0 18 13.5 33t34.5 15q22 0 39 -20l176 -243l176 243q12 20 38 20q19 0 34 -14t15 -34q0 -13 -9 -27l-189 -255
l204 -274q8 -11 8 -27z" />
    <glyph glyph-name="Y" unicode="Y" horiz-adv-x="631" 
d="M588 626q0 -14 -7 -25l-216 -321v-237q0 -21 -14.5 -35t-35.5 -14q-20 0 -34 14.5t-14 34.5v237l-217 322q-8 11 -8 24q0 18 13 32.5t34 14.5q26 0 41 -21l186 -284l185 283q13 21 39 21q20 0 34 -14t14 -32z" />
    <glyph glyph-name="Z" unicode="Z" horiz-adv-x="587" 
d="M546 45q0 -19 -12.5 -32t-30.5 -13h-410q-20 0 -36 16t-16 39q0 19 11 33l353 491h-322q-17 0 -30 13t-13 32q0 18 13 30.5t30 12.5h404q20 0 35.5 -16t15.5 -39q0 -18 -11 -34l-353 -490h329q18 0 30.5 -13t12.5 -30z" />
    <glyph glyph-name="bracketleft" unicode="[" horiz-adv-x="253" 
d="M242 -158q0 -13 -9 -22.5t-21 -9.5h-105q-27 0 -46 19t-19 46v738q0 27 19 46t46 19h105q12 0 21 -9.5t9 -22.5t-9 -22t-21 -9h-103v-742h103q12 0 21 -9t9 -22z" />
    <glyph glyph-name="backslash" unicode="\" horiz-adv-x="305" 
d="M295 2q0 -12 -9 -22t-23 -10q-23 0 -31 22l-221 663q-2 6 -2 9q0 13 9.5 23t23.5 10q23 0 30 -22l222 -663q1 -3 1 -10z" />
    <glyph glyph-name="bracketright" unicode="]" horiz-adv-x="253" 
d="M211 -125q0 -27 -19 -46t-46 -19h-104q-13 0 -22 9.5t-9 22.5t9 22t22 9h102v742h-102q-13 0 -22 9.5t-9 23.5q0 12 9 21t22 9h104q27 0 46 -19t19 -46v-738z" />
    <glyph glyph-name="asciicircum" unicode="^" horiz-adv-x="434" 
d="M400 358q0 -11 -9.5 -21.5t-23.5 -10.5q-19 0 -27 17l-123 260l-122 -260q-8 -17 -27 -17q-14 0 -23.5 10t-9.5 22q0 6 3 14l137 274q13 27 44 27q29 0 42 -27l136 -274q3 -6 3 -14z" />
    <glyph glyph-name="underscore" unicode="_" horiz-adv-x="564" 
d="M573 -71q0 -13 -9 -22.5t-21 -9.5h-521q-13 0 -22 9.5t-9 22.5t9 22t22 9h521q12 0 21 -9t9 -22z" />
    <glyph glyph-name="grave" unicode="`" horiz-adv-x="233" 
d="M206 574q0 -9 -7 -16.5t-17 -7.5q-8 0 -15 6l-117 101q-9 7 -9 20q0 11 9 19.5t21 8.5t20 -8l109 -107q6 -8 6 -16z" />
    <glyph glyph-name="a" unicode="a" horiz-adv-x="531" 
d="M460 38q0 -18 -13 -31t-32 -13h-3q-15 0 -28 12t-13 32v16q-60 -66 -159 -66q-66 0 -117 42.5t-51 117.5q0 76 50.5 117t117.5 41q102 0 159 -64v81q0 45 -33 71t-85 26q-67 0 -121 -42q-11 -8 -22 -8q-14 0 -25.5 10t-11.5 25q0 13 9 23q67 67 184 67q86 0 140 -40.5
t54 -127.5v-289zM371 106v82q-41 56 -125 56q-49 0 -80.5 -27.5t-31.5 -70.5q0 -42 31.5 -68.5t80.5 -26.5q85 0 125 55z" />
    <glyph glyph-name="b" unicode="b" horiz-adv-x="578" 
d="M535 241q0 -117 -60 -185t-155 -68q-98 0 -159 81v-31q0 -18 -13 -31t-32 -13q-18 0 -31 13t-13 31v592q0 17 13.5 30t32.5 13q17 0 30 -13t13 -30v-217q61 82 159 82q95 0 155 -69.5t60 -184.5zM442 241q0 77 -39.5 126t-107.5 49q-40 0 -78 -21t-56 -51v-207
q18 -30 56 -50t78 -20q68 0 107.5 48.5t39.5 125.5z" />
    <glyph glyph-name="c" unicode="c" horiz-adv-x="496" 
d="M457 73q0 -15 -12 -26q-61 -59 -157 -59q-108 0 -176.5 72t-68.5 182q0 109 68.5 181t176.5 72q105 0 161 -64q7 -8 7 -21q0 -16 -12 -28t-29 -12q-15 0 -28 11q-39 35 -94 35q-71 0 -114.5 -48.5t-43.5 -125.5t43.5 -126t114.5 -49q53 0 94 36q12 9 28 9t29 -11t13 -28z
" />
    <glyph glyph-name="d" unicode="d" horiz-adv-x="578" 
d="M506 38q0 -18 -13 -31t-32 -13q-18 0 -31 13t-13 31v31q-62 -81 -159 -81q-95 0 -155 68t-60 185q0 115 60 184.5t155 69.5q98 0 159 -82v217q0 17 13.5 30t32.5 13q17 0 30 -13t13 -30v-592zM417 138v206q-19 30 -57 51t-79 21q-66 0 -106 -49t-40 -126t39.5 -125.5
t106.5 -48.5q41 0 79 20t57 51z" />
    <glyph glyph-name="e" unicode="e" horiz-adv-x="560" 
d="M518 258q0 -18 -13.5 -31.5t-32.5 -13.5h-336q5 -65 49.5 -109t115.5 -44q66 0 120 40q10 5 20 5q13 0 24.5 -10t11.5 -26q0 -36 -64 -58.5t-121 -22.5q-109 0 -179 70.5t-70 183.5q0 106 68.5 179.5t172.5 73.5q86 0 144.5 -49t80.5 -132q9 -36 9 -56zM432 276
q-2 56 -40 101.5t-109 45.5q-67 0 -105.5 -45t-41.5 -102h296z" />
    <glyph glyph-name="f" unicode="f" horiz-adv-x="295" 
d="M342 628q0 -16 -10 -25.5t-24 -9.5q-7 0 -24 6t-28 6q-72 0 -72 -88v-34h66q16 0 27 -11.5t11 -28.5q0 -16 -11 -27t-27 -11h-66v-367q0 -18 -13 -31t-32 -13q-18 0 -31 13t-13 31v367h-48q-16 0 -27 11.5t-11 28.5q0 16 11 27t27 11h48v34q0 75 39.5 117.5t106.5 42.5
q37 0 69 -13t32 -36z" />
    <glyph glyph-name="g" unicode="g" horiz-adv-x="577" 
d="M505 19q0 -60 -20 -103.5t-55 -67t-75.5 -34t-87.5 -10.5q-121 0 -183 59q-10 10 -10 25q0 16 11.5 27t26.5 11q13 0 23 -7q50 -42 132 -42q63 0 106 33.5t43 105.5v64q-62 -84 -159 -84q-95 0 -154.5 66.5t-59.5 182.5q0 115 59.5 182.5t154.5 67.5q97 0 159 -82v33
q0 17 13.5 30t32.5 13q17 0 30 -13t13 -30v-427zM416 148v196q-19 30 -57 51t-78 21q-67 0 -106.5 -47t-39.5 -124q0 -75 39.5 -122.5t106.5 -47.5q40 0 77.5 21.5t57.5 51.5z" />
    <glyph glyph-name="h" unicode="h" horiz-adv-x="560" 
d="M488 38q0 -18 -13 -31t-32 -13q-18 0 -31 13t-13 31v274q0 57 -27 80.5t-77 23.5q-40 0 -76 -20.5t-58 -50.5v-307q0 -18 -13 -31t-32 -13q-18 0 -31 13t-13 31v592q0 17 13.5 30t32.5 13q17 0 30 -13t13 -30v-215q28 33 74 56.5t98 23.5q155 0 155 -153v-304z" />
    <glyph glyph-name="i" unicode="i" horiz-adv-x="233" 
d="M116 662q24 0 40.5 -17t16.5 -41q0 -23 -16.5 -40t-40.5 -17q-23 0 -40 17t-17 40q0 24 17 41t40 17zM161 38q0 -18 -13 -31t-32 -13q-18 0 -31 13t-13 31v408q0 17 13.5 30t32.5 13q17 0 30 -13t13 -30v-408z" />
    <glyph glyph-name="j" unicode="j" horiz-adv-x="233" 
d="M116 662q24 0 40.5 -17t16.5 -41q0 -23 -17 -40t-40 -17t-40 17t-17 40q0 24 17 41t40 17zM161 -38q0 -75 -39 -116.5t-112 -41.5q-44 0 -75 13t-31 38q0 15 11 25.5t26 10.5q7 0 24.5 -7t31.5 -7q34 0 54.5 21.5t20.5 63.5v484q0 17 13.5 30t32.5 13q17 0 30 -13t13 -30
v-484z" />
    <glyph glyph-name="k" unicode="k" horiz-adv-x="520" 
d="M467 38q0 -17 -12.5 -31t-31.5 -14q-23 0 -35 18l-153 198l-74 -75v-96q0 -18 -13 -31t-32 -13q-18 0 -31 13t-13 31v592q0 17 13.5 30t32.5 13q17 0 30 -13t13 -30v-393l228 240q13 13 29 13t29 -13t13 -29q0 -14 -11 -27l-150 -157l159 -200q9 -10 9 -26z" />
    <glyph glyph-name="l" unicode="l" horiz-adv-x="233" 
d="M161 38q0 -18 -13 -31t-32 -13q-18 0 -31 13t-13 31v592q0 17 13.5 30t32.5 13q17 0 30 -13t13 -30v-592z" />
    <glyph glyph-name="m" unicode="m" horiz-adv-x="820" 
d="M748 38q0 -18 -13 -31t-32 -13q-18 0 -31 13t-13 31v284q0 94 -84 94q-35 0 -68.5 -21t-52.5 -49v-308q0 -18 -13 -31t-32 -13q-18 0 -31 13t-13 31v284q0 94 -85 94q-33 0 -66.5 -21t-52.5 -50v-307q0 -18 -13 -31t-32 -13q-18 0 -31 13t-13 31v408q0 17 13.5 30
t32.5 13q17 0 30 -13t13 -30v-31q18 28 62.5 54t93.5 26q53 0 86 -24t45 -65q23 36 68 62.5t95 26.5q137 0 137 -146v-311z" />
    <glyph glyph-name="n" unicode="n" horiz-adv-x="559" 
d="M487 38q0 -18 -13 -31t-32 -13q-18 0 -31 13t-13 31v272q0 106 -103 106q-41 0 -77 -20.5t-57 -50.5v-307q0 -18 -13 -31t-32 -13q-18 0 -31 13t-13 31v408q0 17 13.5 30t32.5 13q17 0 30 -13t13 -30v-31q28 33 73.5 56.5t97.5 23.5q155 0 155 -155v-302z" />
    <glyph glyph-name="o" unicode="o" 
d="M530 242q0 -108 -67 -181t-177 -73t-176.5 73.5t-66.5 180.5t66.5 180t176.5 73t177 -73t67 -180zM437 242q0 73 -40.5 123.5t-110.5 50.5q-69 0 -110 -51t-41 -123q0 -73 41 -124t110 -51q70 0 110.5 51t40.5 124z" />
    <glyph glyph-name="p" unicode="p" horiz-adv-x="575" 
d="M535 242q0 -116 -59.5 -185t-155.5 -69q-99 0 -159 82v-217q0 -17 -13 -30t-32 -13q-18 0 -31 13t-13 30v593q0 17 13.5 30t32.5 13q17 0 30 -13t13 -30v-32q27 37 69 59t90 22q96 0 155.5 -68t59.5 -185zM441 242q0 77 -39.5 125.5t-106.5 48.5q-40 0 -78 -20.5
t-56 -50.5v-206q18 -30 56 -51t78 -21q67 0 106.5 49t39.5 126z" />
    <glyph glyph-name="q" unicode="q" horiz-adv-x="575" 
d="M503 -147q0 -17 -13.5 -30t-32.5 -13q-18 0 -31 13t-13 30v217q-60 -82 -158 -82q-96 0 -155.5 69t-59.5 185q0 117 59.5 185t155.5 68q48 0 90 -22t68 -59v32q0 17 13.5 30t32.5 13q18 0 31 -13t13 -30v-593zM413 139v206q-18 30 -56 50.5t-78 20.5q-67 0 -106.5 -48.5
t-39.5 -125.5t40 -126t106 -49q40 0 78 21t56 51z" />
    <glyph glyph-name="r" unicode="r" horiz-adv-x="338" 
d="M326 450q0 -19 -13 -32t-32 -15q-79 -7 -120 -67v-298q0 -18 -13 -31t-32 -13h-1q-18 1 -30.5 13.5t-12.5 30.5v408q0 17 13.5 30t32.5 13q17 0 30 -13t13 -30v-38q60 82 125 82q17 0 28.5 -11.5t11.5 -28.5z" />
    <glyph glyph-name="s" unicode="s" horiz-adv-x="468" 
d="M426 136q0 -64 -51.5 -106t-144.5 -42q-120 0 -183 63q-11 9 -11 24q0 16 11.5 26.5t27.5 10.5q13 0 23 -7q64 -46 136 -46q50 0 77.5 20.5t27.5 54.5q0 29 -30.5 45.5t-73.5 26t-86.5 22t-74 44t-30.5 81.5q0 60 49.5 101t134.5 41q108 0 168 -58q9 -9 9 -22
q0 -15 -10.5 -25t-24.5 -10q-13 0 -21 7q-52 37 -120 37q-45 0 -72 -19t-27 -49q0 -26 30.5 -41t74 -24t87 -22.5t74 -46.5t30.5 -86z" />
    <glyph glyph-name="t" unicode="t" horiz-adv-x="306" 
d="M297 35q0 -47 -92 -47q-57 0 -86.5 30.5t-29.5 87.5v299h-47q-17 0 -28 11.5t-11 28.5q0 16 11.5 27t27.5 11h47v95q0 17 13.5 30t32.5 13q18 0 31 -13t13 -30v-95h66q16 0 27 -11.5t11 -28.5q0 -16 -11 -27t-27 -11h-66v-278q0 -28 12.5 -44t34.5 -16q6 0 17 2.5t16 2.5
q16 0 27 -10.5t11 -26.5z" />
    <glyph glyph-name="u" unicode="u" horiz-adv-x="559" 
d="M487 38q0 -18 -13 -31t-32 -13q-18 0 -31 13t-13 31v28q-30 -34 -75 -56t-97 -22q-154 0 -154 153v305q0 17 13.5 30t32.5 13q17 0 30 -13t13 -30v-274q0 -57 26.5 -81t76.5 -24q40 0 76 20t58 49v310q0 17 13.5 30t32.5 13q17 0 30 -13t13 -30v-408z" />
    <glyph glyph-name="v" unicode="v" horiz-adv-x="496" 
d="M477 445q0 -8 -3 -16l-162 -393q-8 -19 -25.5 -30.5t-38.5 -11.5h-2q-44 0 -61 42l-163 393q-3 8 -3 16q0 17 12.5 30.5t32.5 13.5q30 0 41 -28l143 -358l142 358q12 28 41 28q20 0 33 -13t13 -31z" />
    <glyph glyph-name="w" unicode="w" horiz-adv-x="743" 
d="M721 446q0 -4 -2 -12l-126 -399q-5 -18 -21 -29.5t-35 -11.5h-1q-42 0 -56 41l-108 337l-109 -337q-5 -18 -21 -29.5t-35 -11.5h-2q-19 0 -34 11.5t-21 29.5l-126 399q-2 8 -2 12q0 16 12.5 29.5t30.5 13.5q15 0 27.5 -8.5t16.5 -21.5l103 -345l112 341q12 34 49 34
q34 0 46 -34l113 -341l103 345q4 13 16 21.5t26 8.5q19 0 31.5 -12.5t12.5 -30.5z" />
    <glyph glyph-name="x" unicode="x" horiz-adv-x="491" 
d="M448 34q0 -15 -12 -28t-30 -13q-21 0 -32 17l-129 179l-129 -179q-12 -17 -32 -17q-16 0 -28.5 12.5t-12.5 28.5q0 15 8 24l139 190l-129 177q-8 11 -8 22q0 15 12 28.5t30 13.5q21 0 33 -17l117 -164l117 163q11 18 33 18q17 0 29.5 -12.5t12.5 -28.5q0 -15 -8 -24
l-129 -176l141 -190q7 -12 7 -24z" />
    <glyph glyph-name="y" unicode="y" horiz-adv-x="496" 
d="M477 445q0 -9 -3 -15l-216 -523q-44 -103 -149 -103q-64 0 -64 40q0 17 11.5 28.5t28.5 11.5h23q44 0 65 46l28 64l-179 436q-3 8 -3 15q0 17 12.5 30.5t32.5 13.5q30 0 41 -28l143 -358l142 358q12 28 42 28q19 0 32 -13t13 -31z" />
    <glyph glyph-name="z" unicode="z" horiz-adv-x="474" 
d="M430 40q0 -17 -11 -28.5t-26 -11.5h-307q-17 0 -29.5 13t-12.5 32q0 16 10 29l248 331h-221q-16 0 -27 11.5t-11 28.5q0 16 11 27t27 11h304q16 0 28 -12.5t12 -31.5q0 -16 -9 -28l-251 -334h228q15 0 26 -11t11 -26z" />
    <glyph glyph-name="braceleft" unicode="{" horiz-adv-x="268" 
d="M257 -158q0 -14 -9 -23t-24 -9h-34q-54 0 -94 39t-40 102v197q0 53 -31 64q-27 12 -27 33q0 19 27 31q31 11 31 64v196q0 63 40 102.5t94 39.5h34q15 0 24 -9t9 -23q0 -13 -9 -22t-24 -9h-34q-27 0 -46 -22t-19 -56v-204q0 -69 -46 -89q46 -20 46 -89v-203
q0 -34 19 -56.5t46 -22.5h34q15 0 24 -9t9 -22z" />
    <glyph glyph-name="bar" unicode="|" horiz-adv-x="212" 
d="M138 5q0 -13 -9.5 -22t-22.5 -9t-22 9t-9 22v658q0 12 9.5 21t23.5 9q12 0 21 -9t9 -21v-658z" />
    <glyph glyph-name="braceright" unicode="}" horiz-adv-x="268" 
d="M269 244q0 -21 -27 -32q-31 -11 -31 -64v-197q0 -63 -39.5 -102t-93.5 -39h-34q-15 0 -24 9t-9 23q0 13 9 22t24 9h34q27 0 46 22.5t19 56.5v203q0 69 46 89q-46 20 -46 89v204q0 34 -19 56t-46 22h-34q-15 0 -24 9.5t-9 23.5q0 12 9 21t24 9h34q54 0 93.5 -39.5
t39.5 -102.5v-196q0 -53 31 -64q27 -11 27 -32z" />
    <glyph glyph-name="asciitilde" unicode="~" horiz-adv-x="505" 
d="M474 628q-10 -95 -41.5 -151.5t-96.5 -56.5q-35 0 -58.5 19t-35 46.5t-20 55t-21.5 46.5t-33 19q-53 0 -74 -155q-1 -12 -10.5 -19.5t-21.5 -7.5q-32 0 -32 34q11 95 42.5 151.5t95.5 56.5q35 0 58.5 -19.5t35 -47t20.5 -54.5t21.5 -46.5t32.5 -19.5q57 0 74 157
q1 12 10 19.5t22 7.5q15 0 23.5 -10t8.5 -25z" />
    <glyph glyph-name="uni00A0" unicode="&#xa0;" horiz-adv-x="257" 
 />
    <glyph glyph-name="exclamdown" unicode="&#xa1;" horiz-adv-x="237" 
d="M180 432q-1 -26 -19 -44t-43 -18q-26 0 -44 18t-18 44q0 24 18.5 42.5t43.5 18.5t43.5 -18.5t18.5 -42.5zM172 -137q0 -22 -15.5 -37.5t-37.5 -15.5q-23 0 -38.5 15.5t-14.5 37.5q0 17 13 394q1 16 12 26.5t28 10.5q16 0 26.5 -10.5t11.5 -26.5q1 -19 8 -203.5t7 -190.5z
" />
    <glyph glyph-name="cent" unicode="&#xa2;" horiz-adv-x="496" 
d="M457 74q0 -14 -8 -22q-48 -55 -132 -62v-62q0 -13 -9.5 -22.5t-23.5 -9.5q-15 0 -25 9t-10 23v63q-93 13 -149.5 82.5t-56.5 168.5t56.5 168t149.5 82v45q0 14 10 23t25 9q14 0 23.5 -9.5t9.5 -22.5v-44q85 -7 132 -62q7 -10 7 -21q0 -17 -12.5 -28.5t-28.5 -11.5
q-14 0 -23 9q-34 28 -75 34v-343q38 4 75 35q8 7 23 7q16 0 29 -11t13 -27zM249 73v336q-53 -13 -83.5 -58.5t-30.5 -108.5q0 -64 30.5 -109.5t83.5 -59.5z" />
    <glyph glyph-name="sterling" unicode="&#xa3;" horiz-adv-x="527" 
d="M510 51q0 -30 -40.5 -47t-91.5 -17q-47 0 -96.5 22.5t-83.5 22.5q-38 0 -90 -26q-9 -3 -18 -3q-16 0 -27 11t-11 27q0 25 21 37q100 56 100 132q0 30 -15 58h-114q-12 0 -21 9.5t-9 22.5q0 12 9 21t21 9h72q-22 26 -34 42.5t-23.5 45.5t-11.5 59q0 85 68 142.5t161 57.5
q61 0 113 -23t78 -63q6 -9 6 -20q0 -19 -13 -31t-32 -12t-33 14q-59 53 -108 53q-56 0 -94.5 -32.5t-38.5 -86.5q0 -24 8 -46.5t15 -34t26 -35.5t23 -30h125q12 0 21 -9.5t9 -22.5q0 -12 -9 -21t-21 -9h-96q6 -22 6 -36q0 -76 -73 -127q25 9 51 9q32 0 74 -19.5t69 -19.5
q18 0 45 9.5t36 9.5q18 0 32.5 -12t14.5 -31z" />
    <glyph glyph-name="currency" unicode="&#xa4;" horiz-adv-x="605" 
d="M563 112q0 -15 -11.5 -27t-27.5 -12q-15 0 -26 11l-51 50q-62 -43 -145 -43q-82 0 -146 44l-50 -51q-10 -10 -26 -10q-15 0 -27 11t-12 26t11 26l51 51q-44 64 -44 145q0 83 45 145l-53 52q-11 13 -11 27q0 15 11 26.5t27 11.5q17 0 27 -11l53 -53q62 43 144 43
q83 0 144 -43l52 53q10 10 26 10q15 0 27 -11t12 -27q0 -15 -11 -26l-52 -52q46 -63 46 -145q0 -80 -45 -146l51 -50q11 -11 11 -25zM455 333q0 67 -41 113.5t-112 46.5q-70 0 -111 -46.5t-41 -113.5t41 -114.5t111 -47.5q71 0 112 47.5t41 114.5z" />
    <glyph glyph-name="yen" unicode="&#xa5;" horiz-adv-x="631" 
d="M616 149q0 -12 -9 -20.5t-20 -8.5h-222v-77q0 -20 -14 -34.5t-34 -14.5q-21 0 -35.5 14t-14.5 35v77h-221q-12 0 -20.5 9t-8.5 22q0 11 8.5 20t20.5 9h221v100h-222q-12 0 -20 8.5t-8 21.5q0 12 8 20.5t20 8.5h181l-176 263q-8 9 -8 24q0 18 13 32.5t34 14.5q26 0 41 -21
l186 -284l185 283q13 21 39 21q20 0 34 -14t14 -32q0 -14 -7 -25l-176 -262h182q12 0 20.5 -9t8.5 -22q0 -12 -8.5 -20t-20.5 -8h-222v-100h222q11 0 20 -9t9 -22z" />
    <glyph glyph-name="brokenbar" unicode="&#xa6;" horiz-adv-x="212" 
d="M138 9q0 -13 -9.5 -22t-22.5 -9t-22 9t-9 22v259q0 12 9.5 21t23.5 9q12 0 21 -9t9 -21v-259zM138 400q0 -13 -9.5 -22t-22.5 -9t-22 9t-9 22v259q0 12 9.5 21t23.5 9q12 0 21 -9t9 -21v-259z" />
    <glyph glyph-name="section" unicode="&#xa7;" horiz-adv-x="472" 
d="M426 68q0 -69 -54 -109t-142 -40q-114 0 -181 63q-10 9 -10 24q0 14 10 24.5t24 10.5q13 0 20 -6q63 -52 137 -52q49 0 79 21t30 58q0 32 -30.5 50.5t-73.5 28.5t-86.5 22.5t-74 43.5t-30.5 81q0 49 31.5 81.5t78.5 45.5q-110 36 -110 124q0 59 50 98.5t134 39.5
q65 0 120.5 -23.5t55.5 -54.5q0 -14 -9 -24t-23 -10q-9 0 -18 6q-52 41 -123 41q-45 0 -73 -20t-28 -53q0 -28 30.5 -44.5t74 -25.5t87 -21.5t74 -45t30.5 -84.5q0 -87 -90 -128q90 -36 90 -122zM338 304q0 37 -28.5 56t-76.5 31q-57 -14 -80 -37t-23 -55q0 -16 8 -28.5
t18 -20.5t31.5 -16t34.5 -11t40 -10q76 33 76 91z" />
    <glyph glyph-name="dieresis" unicode="&#xa8;" horiz-adv-x="278" 
d="M87 606q0 -22 -15 -37.5t-37 -15.5t-37 15.5t-15 37.5q0 21 15 36.5t37 15.5t37 -15.5t15 -36.5zM295 606q0 -22 -15.5 -37.5t-36.5 -15.5t-37 15.5t-16 37.5q0 21 16 36.5t37 15.5t36.5 -15.5t15.5 -36.5z" />
    <glyph glyph-name="copyright" unicode="&#xa9;" horiz-adv-x="778" 
d="M734 334q0 -143 -101 -244t-244 -101t-244 101.5t-101 243.5q0 143 101 244t244 101t244 -101t101 -244zM702 334q0 129 -92 221t-221 92t-221 -92t-92 -221t92 -221t221 -92t221 92t92 221zM535 191q0 -9 -5 -13q-56 -56 -138 -56q-87 0 -147.5 61t-60.5 152t60.5 151.5
t147.5 60.5q85 0 137 -57q5 -4 5 -11q0 -8 -5.5 -14t-12.5 -6q-8 0 -12 6q-44 47 -112 47q-70 0 -119.5 -50t-49.5 -127q0 -76 50 -127.5t119 -51.5q66 0 111 48q5 6 13 6q7 0 13 -6t6 -13z" />
    <glyph glyph-name="ordfeminine" unicode="&#xaa;" horiz-adv-x="380" 
d="M322 353q0 -14 -9.5 -23.5t-23.5 -9.5q-14 -1 -24 8t-10 22v10q-38 -42 -105 -42q-45 0 -78.5 28t-33.5 76q0 49 33.5 75.5t78.5 26.5q67 0 105 -40v51q0 28 -21.5 45t-54.5 17q-44 0 -80 -30q-8 -5 -16 -5q-9 0 -17.5 7.5t-8.5 17.5q0 9 7 16q45 45 125 45
q58 0 95.5 -27.5t37.5 -87.5v-180zM255 397v50q-25 35 -79 35q-30 0 -50.5 -16.5t-20.5 -43.5q0 -28 20 -44.5t51 -16.5q54 0 79 36z" />
    <glyph glyph-name="guillemotleft" unicode="&#xab;" horiz-adv-x="463" 
d="M242 90q0 -13 -9.5 -23.5t-22.5 -10.5q-15 0 -23 11l-114 127q-18 20 -18 48t19 49l113 125q8 10 22 10q13 0 23 -9t10 -23q0 -12 -7 -20l-119 -131l119 -133q7 -11 7 -20zM399 90q0 -13 -9.5 -23.5t-23.5 -10.5t-23 11l-113 127q-18 19 -18 49t18 49l112 124
q10 10 23 10q12 0 22.5 -9.5t10.5 -22.5q0 -12 -7 -20l-118 -131l118 -133q8 -10 8 -20z" />
    <glyph glyph-name="logicalnot" unicode="&#xac;" horiz-adv-x="507" 
d="M471 233q0 -13 -9 -22t-22 -9t-22 9t-9 22v167h-357q-12 0 -20.5 9t-8.5 22q0 11 9 20t20 9h354q27 0 46 -19t19 -46v-162z" />
    <glyph glyph-name="uni00AD" unicode="&#xad;" horiz-adv-x="300" 
d="M234 281q16 0 27 -11t11 -27q0 -17 -11 -28.5t-27 -11.5h-168q-16 0 -27 11.5t-11 27.5t11 27.5t27 11.5h168z" />
    <glyph glyph-name="registered" unicode="&#xae;" horiz-adv-x="494" 
d="M459 465q0 -88 -62 -150t-150 -62t-150 62t-62 150t62 150t150 62q89 0 150.5 -61.5t61.5 -150.5zM429 465q0 76 -53.5 129t-128.5 53q-76 0 -129.5 -53t-53.5 -129q0 -75 53.5 -129t129.5 -54q75 0 128.5 54t53.5 129zM343 512q0 -35 -22.5 -53.5t-39.5 -18.5l50 -75
q4 -4 4 -9q0 -7 -5.5 -12.5t-12.5 -5.5q-9 0 -14 8l-61 93h-43v-87q0 -15 -18 -15q-6 0 -10.5 4.5t-4.5 10.5v206q0 11 8.5 19.5t20.5 8.5h70q32 0 55 -20.5t23 -53.5zM309 512q0 19 -13.5 32t-30.5 13h-66v-88h66q17 0 30.5 12.5t13.5 30.5z" />
    <glyph glyph-name="macron" unicode="&#xaf;" horiz-adv-x="363" 
d="M363 598q0 -13 -7.5 -21t-18.5 -8h-311q-11 0 -18.5 8t-7.5 21q0 10 8 18t18 8h311q11 0 18.5 -8t7.5 -18z" />
    <glyph glyph-name="degree" unicode="&#xb0;" horiz-adv-x="296" 
d="M273 551q0 -52 -36.5 -88.5t-89.5 -36.5q-52 0 -88.5 36.5t-36.5 88.5t36.5 89t88.5 37t89 -37t37 -89zM220 551q0 29 -21.5 50.5t-51.5 21.5q-29 0 -49.5 -21.5t-20.5 -50.5t20.5 -50t49.5 -21q30 0 51.5 21t21.5 50z" />
    <glyph glyph-name="plusminus" unicode="&#xb1;" horiz-adv-x="500" 
d="M477 355q0 -13 -8 -21.5t-20 -8.5h-166v-186q0 -14 -9.5 -23t-23.5 -9t-23 9.5t-9 22.5v186h-167q-12 0 -20 8.5t-8 21.5q0 12 8.5 20.5t19.5 8.5h167v179q0 13 9.5 22t24.5 9q13 0 22 -9t9 -22v-179h166q12 0 20 -8.5t8 -20.5zM477 30q0 -13 -8 -21.5t-20 -8.5h-398
q-11 0 -19.5 8.5t-8.5 21.5q0 12 8.5 20.5t19.5 8.5h398q12 0 20 -8.5t8 -20.5z" />
    <glyph glyph-name="twosuperior" unicode="&#xb2;" horiz-adv-x="390" 
d="M352 451q0 -13 -8 -21.5t-19 -8.5h-256q-11 0 -18.5 8t-7.5 20q0 20 18 31q115 82 164 131.5t49 90.5q0 34 -23 51t-57 17q-54 0 -96 -34q-10 -7 -18 -7q-12 0 -20.5 8t-8.5 21q0 12 8 20q49 49 137 49q63 0 105.5 -31t42.5 -89q0 -54 -47.5 -106.5t-145.5 -122.5h174
q11 0 19 -8t8 -19z" />
    <glyph glyph-name="threesuperior" unicode="&#xb3;" horiz-adv-x="390" 
d="M348 531q0 -52 -42 -84.5t-113 -32.5q-51 0 -100 21t-49 48q0 12 9 21.5t21 9.5q9 0 17 -6q43 -37 100 -37q41 0 64.5 17t23.5 46q0 64 -100 64h-15q-10 0 -19 7t-9 20t8.5 20.5t19.5 7.5h14q94 0 94 59q0 27 -24 42.5t-61 15.5q-55 0 -93 -34q-6 -5 -17 -5t-19 8t-8 19
t7 18q49 51 136 51q68 0 108 -29.5t40 -78.5q0 -38 -26.5 -62t-62.5 -30q35 -3 65.5 -28.5t30.5 -67.5z" />
    <glyph glyph-name="acute" unicode="&#xb4;" horiz-adv-x="233" 
d="M192 677q0 -11 -9 -20l-118 -101q-6 -6 -14 -6q-9 0 -16.5 7t-7.5 17t6 16l108 107q8 8 21 8q11 0 20.5 -8t9.5 -20z" />
    <glyph glyph-name="mu" unicode="&#xb5;" 
d="M558 28q0 -17 -10.5 -28.5t-30.5 -11.5q-95 0 -115 86q-26 -38 -65.5 -62t-83.5 -24q-68 0 -92 43v-178q0 -17 -13 -30t-32 -13q-18 0 -31 13t-13 30v593q0 17 13.5 30t32.5 13q17 0 30 -13t13 -30v-274q0 -106 104 -106q39 0 75 20t58 50v310q0 17 13.5 30t32.5 13
q17 0 30 -13t13 -30v-324q0 -25 11 -38.5t24.5 -16t24.5 -12t11 -27.5z" />
    <glyph glyph-name="paragraph" unicode="&#xb6;" horiz-adv-x="449" 
d="M385 -83q0 -9 -7.5 -16t-18.5 -7q-10 0 -17 7t-7 16v700h-86v-700q0 -9 -7.5 -16t-18.5 -7q-10 0 -17 7t-7 16v406q-71 0 -121.5 50.5t-50.5 121.5t50.5 121.5t121.5 50.5h138q20 0 34 -14t14 -33v-703z" />
    <glyph glyph-name="periodcentered" unicode="&#xb7;" horiz-adv-x="237" 
d="M180 244q0 -25 -18.5 -43t-43.5 -18t-43 18t-18 43t18 43.5t43 18.5q26 0 44 -18t18 -44z" />
    <glyph glyph-name="cedilla" unicode="&#xb8;" horiz-adv-x="209" 
d="M209 -111q0 -37 -30.5 -59t-75.5 -22q-36 0 -68.5 11t-32.5 31q0 9 6.5 15.5t15.5 6.5q6 0 9 -2q31 -19 68 -19q24 0 41 10.5t17 28.5q0 33 -34 33q-9 0 -23.5 -7.5t-22.5 -7.5q-10 0 -17 7.5t-7 16.5q0 4 2 8l20 54q7 23 31 23q18 0 18 -17q0 -5 -1 -8l-19 -46
q16 11 37 11q29 0 47.5 -19t18.5 -49z" />
    <glyph glyph-name="onesuperior" unicode="&#xb9;" horiz-adv-x="249" 
d="M189 449q0 -14 -10 -24t-26 -10q-14 0 -24 10t-10 24v282l-51 -53q-10 -8 -20 -8q-11 0 -20 9t-9 21q0 11 9 20l89 89q16 18 36 18q15 0 25.5 -9.5t10.5 -23.5v-345z" />
    <glyph glyph-name="ordmasculine" unicode="&#xba;" horiz-adv-x="405" 
d="M368 483q0 -70 -45.5 -117.5t-120.5 -47.5q-74 0 -119.5 48t-45.5 117t45.5 117t119.5 48q75 0 120.5 -47.5t45.5 -117.5zM299 483q0 48 -26 78t-71 30t-70 -30t-25 -78q0 -49 25 -79.5t70 -30.5t71 31t26 79z" />
    <glyph glyph-name="guillemotright" unicode="&#xbb;" horiz-adv-x="463" 
d="M251 243q0 -28 -18 -49l-113 -127q-9 -11 -23 -11q-13 0 -23 9.5t-10 23.5q0 13 8 21l118 133l-118 131q-8 10 -8 19q0 13 9.5 23t23.5 10q13 0 23 -10l113 -124q18 -21 18 -49zM408 242q0 -26 -19 -48l-113 -127q-9 -11 -23 -11q-13 0 -23 9.5t-10 23.5q0 13 8 21
l118 133l-118 131q-8 10 -8 19q0 13 9 23t23 10q12 0 24 -10l113 -125q19 -22 19 -49z" />
    <glyph glyph-name="onequarter" unicode="&#xbc;" horiz-adv-x="787" 
d="M759 126q0 -13 -7.5 -21.5t-18.5 -8.5h-36v-68q0 -14 -10.5 -24t-24.5 -10t-24 10t-10 24v68h-176q-11 0 -18.5 8t-7.5 21q0 11 13 30l144 219q22 32 60 32q22 0 38 -15t16 -35v-204h36q11 0 18.5 -8t7.5 -18zM588 650q0 -7 -4 -13l-405 -634q-8 -11 -21 -11q-11 0 -19 8
t-8 18q0 5 5 12l405 635q6 11 21 11q11 0 18.5 -8t7.5 -18zM189 295q0 -14 -10 -24t-26 -10q-14 0 -24 10t-10 24v282l-51 -53q-10 -8 -20 -8q-11 0 -20 9t-9 21q0 11 9 20l89 89q16 18 36 18q15 0 25.5 -9.5t10.5 -23.5v-345zM628 152v187l-127 -187h127z" />
    <glyph glyph-name="onehalf" unicode="&#xbd;" horiz-adv-x="823" 
d="M784 30q0 -13 -8 -21.5t-19 -8.5h-256q-11 0 -18.5 8t-7.5 20q0 19 17 31q116 82 165 131.5t49 90.5q0 34 -23 51t-57 17q-55 0 -96 -34q-10 -7 -19 -7q-11 0 -19.5 8t-8.5 21q0 31 51 50t94 19q63 0 105.5 -31t42.5 -89q0 -54 -47.5 -106.5t-146.5 -122.5h175
q11 0 19 -8.5t8 -18.5zM588 650q0 -7 -4 -13l-405 -634q-8 -11 -21 -11q-11 0 -19 8t-8 18q0 5 5 12l405 635q6 11 21 11q11 0 18.5 -8t7.5 -18zM189 295q0 -14 -10 -24t-26 -10q-14 0 -24 10t-10 24v282l-51 -53q-10 -8 -20 -8q-11 0 -20 9t-9 21q0 11 9 20l89 89
q16 18 36 18q15 0 25.5 -9.5t10.5 -23.5v-345z" />
    <glyph glyph-name="threequarters" unicode="&#xbe;" horiz-adv-x="890" 
d="M863 126q0 -13 -8 -21.5t-19 -8.5h-36v-68q0 -14 -10 -24t-25 -10q-14 0 -24 10t-10 24v68h-176q-11 0 -18.5 8t-7.5 21q0 8 13 30l145 219q20 32 59 32q23 0 38.5 -14.5t15.5 -35.5v-204h36q11 0 19 -8t8 -18zM690 650q0 -7 -4 -13l-405 -634q-8 -11 -21 -11
q-10 0 -18 8t-8 18q0 7 4 12l405 635q8 11 21 11q11 0 18.5 -8t7.5 -18zM348 377q0 -52 -42 -84.5t-113 -32.5q-51 0 -100 21t-49 48q0 12 9 21.5t21 9.5q9 0 17 -6q43 -37 100 -37q41 0 64.5 17t23.5 46q0 64 -100 64h-15q-10 0 -19 7t-9 20t8.5 20.5t19.5 7.5h14
q94 0 94 59q0 27 -24 42.5t-61 15.5q-55 0 -93 -34q-6 -5 -17 -5t-19 8t-8 19q0 28 48 48.5t95 20.5q68 0 108 -29.5t40 -78.5q0 -38 -26.5 -62t-62.5 -30q35 -3 65.5 -28.5t30.5 -67.5zM731 152v187l-126 -187h126z" />
    <glyph glyph-name="questiondown" unicode="&#xbf;" horiz-adv-x="395" 
d="M298 431q0 -25 -18.5 -43.5t-43.5 -18.5t-43.5 18.5t-18.5 43.5t18.5 43.5t43.5 18.5t43.5 -18.5t18.5 -43.5zM433 -89q0 -31 -37.5 -56.5t-84 -37.5t-84.5 -12q-91 0 -145 43.5t-54 111.5q0 42 19.5 75t46.5 53.5t54.5 39t47 40.5t19.5 48q0 7 -5.5 20.5t-5.5 19.5
q0 15 10.5 27t28.5 12q26 0 42 -29.5t16 -56.5q0 -35 -17.5 -62.5t-43 -46.5t-50.5 -36t-42.5 -39.5t-17.5 -48.5q0 -36 27.5 -59.5t79.5 -23.5q39 0 89 30t64 30q17 0 30 -12t13 -30z" />
    <glyph glyph-name="Agrave" unicode="&#xc0;" horiz-adv-x="665" 
d="M637 47q0 -20 -15 -36.5t-38 -16.5q-35 0 -48 32l-44 113h-319l-44 -113q-13 -32 -48 -32q-23 0 -38 16t-15 37q0 9 3 19l221 554q9 24 31 38.5t48 14.5q26 1 48.5 -13.5t32.5 -39.5l221 -554q4 -9 4 -19zM464 226l-132 340l-131 -340h263zM365 741q0 -9 -7 -16.5
t-17 -7.5q-7 0 -15 6l-117 101q-9 8 -9 20q0 11 9 19.5t21 8.5t20 -8l109 -107q6 -7 6 -16z" />
    <glyph glyph-name="Aacute" unicode="&#xc1;" horiz-adv-x="665" 
d="M637 47q0 -20 -15 -36.5t-38 -16.5q-35 0 -48 32l-44 113h-319l-44 -113q-13 -32 -48 -32q-23 0 -38 16t-15 37q0 9 3 19l221 554q9 24 31 38.5t48 14.5q26 1 48.5 -13.5t32.5 -39.5l221 -554q4 -9 4 -19zM464 226l-132 340l-131 -340h263zM466 844q0 -11 -9 -20
l-118 -101q-6 -6 -14 -6q-9 0 -16.5 7t-7.5 17t6 16l108 107q8 8 21 8q11 0 20.5 -8t9.5 -20z" />
    <glyph glyph-name="Acircumflex" unicode="&#xc2;" horiz-adv-x="665" 
d="M637 47q0 -20 -15 -36.5t-38 -16.5q-35 0 -48 32l-44 113h-319l-44 -113q-13 -32 -48 -32q-23 0 -38 16t-15 37q0 9 3 19l221 554q9 24 31 38.5t48 14.5q26 1 48.5 -13.5t32.5 -39.5l221 -554q4 -9 4 -19zM464 226l-132 340l-131 -340h263zM455 740q0 -8 -7.5 -16
t-18.5 -8t-18 9l-78 99l-76 -98q-7 -9 -19 -9q-10 0 -18 6.5t-8 16.5q0 6 5 13l58 89q20 31 59 31q36 0 56 -31l61 -89q4 -4 4 -13z" />
    <glyph glyph-name="Atilde" unicode="&#xc3;" horiz-adv-x="665" 
d="M637 47q0 -20 -15 -36.5t-38 -16.5q-35 0 -48 32l-44 113h-319l-44 -113q-13 -32 -48 -32q-23 0 -38 16t-15 37q0 9 3 19l221 554q9 24 31 38.5t48 14.5q26 1 48.5 -13.5t32.5 -39.5l221 -554q4 -9 4 -19zM464 226l-132 340l-131 -340h263zM490 833q-3 -48 -28 -80
t-70 -32q-24 0 -42.5 13.5t-28 29.5t-22.5 29.5t-28 13.5q-35 0 -44 -57q-1 -10 -9.5 -17.5t-19.5 -7.5q-9 0 -15.5 7t-6.5 16q0 46 27.5 79.5t71.5 33.5q24 0 42 -13.5t27.5 -29t23 -29t28.5 -13.5q36 0 43 56q1 10 9.5 17.5t19.5 7.5q10 0 16 -7t6 -17z" />
    <glyph glyph-name="Adieresis" unicode="&#xc4;" horiz-adv-x="665" 
d="M637 47q0 -20 -15 -36.5t-38 -16.5q-35 0 -48 32l-44 113h-319l-44 -113q-13 -32 -48 -32q-23 0 -38 16t-15 37q0 9 3 19l221 554q9 24 31 38.5t48 14.5q26 1 48.5 -13.5t32.5 -39.5l221 -554q4 -9 4 -19zM464 226l-132 340l-131 -340h263zM281 773q0 -22 -15 -37.5
t-37 -15.5t-37 15.5t-15 37.5q0 21 15 36.5t37 15.5t37 -15.5t15 -36.5zM489 773q0 -22 -15.5 -37.5t-36.5 -15.5t-37 15.5t-16 37.5q0 21 16 36.5t37 15.5t36.5 -15.5t15.5 -36.5z" />
    <glyph glyph-name="Aring" unicode="&#xc5;" horiz-adv-x="665" 
d="M637 47q0 -20 -15 -36.5t-38 -16.5q-35 0 -48 32l-44 113h-319l-44 -113q-13 -32 -48 -32q-23 0 -38 16t-15 37q0 9 3 19l221 554q9 24 31 38.5t48 14.5q26 1 48.5 -13.5t32.5 -39.5l221 -554q4 -9 4 -19zM464 226l-132 340l-131 -340h263zM433 790q0 -41 -29.5 -70.5
t-70.5 -29.5t-70.5 29.5t-29.5 70.5t29.5 71t70.5 30t70.5 -30t29.5 -71zM388 790q0 23 -16 39t-39 16t-39 -16t-16 -39t16.5 -39.5t38.5 -16.5q23 0 39 16.5t16 39.5z" />
    <glyph glyph-name="AE" unicode="&#xc6;" horiz-adv-x="953" 
d="M908 45q0 -19 -12.5 -32t-30.5 -13h-344q-27 0 -46.5 19t-19.5 46v74h-255l-73 -121q-12 -22 -39 -22q-20 0 -35 14.5t-15 34.5q0 11 7 25l336 541q16 25 43.5 40.5t56.5 15.5h384q18 0 30.5 -13t12.5 -32q0 -17 -12.5 -30t-30.5 -13h-310v-195h303q18 0 30.5 -13
t12.5 -32q0 -17 -12.5 -30t-30.5 -13h-303v-208h310q18 0 30.5 -13t12.5 -30zM455 226v340l-207 -340h207z" />
    <glyph glyph-name="Ccedilla" unicode="&#xc7;" horiz-adv-x="679" 
d="M393 678q139 0 228 -99q12 -14 12 -32q0 -19 -14 -32.5t-33 -13.5q-22 0 -34 16q-29 34 -72 53.5t-87 19.5q-105 0 -174.5 -72.5t-69.5 -184.5q0 -111 69.5 -184t174.5 -73q95 0 159 72q13 16 35 16q19 0 32.5 -14t13.5 -32q0 -19 -12 -31q-84 -94 -216 -99l-16 -39
q16 11 37 11q29 0 47.5 -19t18.5 -49q0 -37 -30.5 -59t-75.5 -22q-36 0 -69 11t-33 31q0 9 7 15.5t16 6.5q6 0 9 -2q31 -19 68 -19q24 0 41 10.5t17 28.5q0 33 -34 33q-9 0 -23.5 -7.5t-21.5 -7.5q-10 0 -17.5 7t-7.5 17q0 6 1 8l17 47q-135 12 -222.5 106.5t-87.5 236.5
q0 152 99.5 248.5t247.5 96.5z" />
    <glyph glyph-name="Egrave" unicode="&#xc8;" 
d="M527 45q0 -19 -12.5 -32t-30.5 -13h-344q-27 0 -46 19t-19 46v537q0 27 19 46t46 19h344q18 0 30.5 -13t12.5 -32q0 -17 -12.5 -30t-30.5 -13h-310v-195h303q18 0 30.5 -13t12.5 -32q0 -17 -12.5 -30t-30.5 -13h-303v-208h310q18 0 30.5 -13t12.5 -30zM329 741
q0 -9 -7 -16.5t-17 -7.5q-7 0 -15 6l-117 101q-9 8 -9 20q0 11 9 19.5t21 8.5t20 -8l109 -107q6 -7 6 -16z" />
    <glyph glyph-name="Eacute" unicode="&#xc9;" 
d="M527 45q0 -19 -12.5 -32t-30.5 -13h-344q-27 0 -46 19t-19 46v537q0 27 19 46t46 19h344q18 0 30.5 -13t12.5 -32q0 -17 -12.5 -30t-30.5 -13h-310v-195h303q18 0 30.5 -13t12.5 -32q0 -17 -12.5 -30t-30.5 -13h-303v-208h310q18 0 30.5 -13t12.5 -30zM431 844
q0 -11 -9 -20l-118 -101q-6 -6 -14 -6q-9 0 -16.5 7t-7.5 17t6 16l108 107q8 8 21 8q11 0 20.5 -8t9.5 -20z" />
    <glyph glyph-name="Ecircumflex" unicode="&#xca;" 
d="M527 45q0 -19 -12.5 -32t-30.5 -13h-344q-27 0 -46 19t-19 46v537q0 27 19 46t46 19h344q18 0 30.5 -13t12.5 -32q0 -17 -12.5 -30t-30.5 -13h-310v-195h303q18 0 30.5 -13t12.5 -32q0 -17 -12.5 -30t-30.5 -13h-303v-208h310q18 0 30.5 -13t12.5 -30zM418 740
q0 -8 -7.5 -16t-18.5 -8q-10 0 -18 9l-78 99l-76 -98q-8 -9 -19 -9q-10 0 -18 6.5t-8 16.5q0 6 5 13l58 89q20 31 59 31q36 0 56 -31l61 -89q4 -4 4 -13z" />
    <glyph glyph-name="Edieresis" unicode="&#xcb;" 
d="M527 45q0 -19 -12.5 -32t-30.5 -13h-344q-27 0 -46 19t-19 46v537q0 27 19 46t46 19h344q18 0 30.5 -13t12.5 -32q0 -17 -12.5 -30t-30.5 -13h-310v-195h303q18 0 30.5 -13t12.5 -32q0 -17 -12.5 -30t-30.5 -13h-303v-208h310q18 0 30.5 -13t12.5 -30zM246 773
q0 -22 -15 -37.5t-37 -15.5t-37 15.5t-15 37.5q0 21 15 36.5t37 15.5t37 -15.5t15 -36.5zM454 773q0 -22 -15.5 -37.5t-36.5 -15.5t-37 15.5t-16 37.5q0 21 16 36.5t37 15.5t36.5 -15.5t15.5 -36.5z" />
    <glyph glyph-name="Igrave" unicode="&#xcc;" horiz-adv-x="248" 
d="M174 43q0 -20 -14.5 -34.5t-35.5 -14.5q-20 0 -34.5 14.5t-14.5 34.5v582q0 20 14.5 34t36.5 14q20 0 34 -14.5t14 -33.5v-582zM157 741q0 -9 -7 -16.5t-17 -7.5q-7 0 -15 6l-117 101q-9 8 -9 20q0 11 9 19.5t21 8.5t20 -8l109 -107q6 -7 6 -16z" />
    <glyph glyph-name="Iacute" unicode="&#xcd;" horiz-adv-x="248" 
d="M174 43q0 -20 -14.5 -34.5t-35.5 -14.5q-20 0 -34.5 14.5t-14.5 34.5v582q0 20 14.5 34t36.5 14q20 0 34 -14.5t14 -33.5v-582zM258 844q0 -11 -9 -20l-118 -101q-6 -6 -14 -6q-9 0 -16.5 7t-7.5 17t6 16l108 107q8 8 21 8q11 0 20.5 -8t9.5 -20z" />
    <glyph glyph-name="Icircumflex" unicode="&#xce;" horiz-adv-x="248" 
d="M174 43q0 -20 -14.5 -34.5t-35.5 -14.5q-20 0 -34.5 14.5t-14.5 34.5v582q0 20 14.5 34t36.5 14q20 0 34 -14.5t14 -33.5v-582zM247 740q0 -8 -7.5 -16t-18.5 -8t-18 9l-78 99l-76 -98q-8 -9 -19 -9q-10 0 -18 6.5t-8 16.5q0 6 5 13l58 89q20 31 59 31q36 0 56 -31
l61 -89q4 -4 4 -13z" />
    <glyph glyph-name="Idieresis" unicode="&#xcf;" horiz-adv-x="248" 
d="M174 43q0 -20 -14.5 -34.5t-35.5 -14.5q-20 0 -34.5 14.5t-14.5 34.5v582q0 20 14.5 34t36.5 14q20 0 34 -14.5t14 -33.5v-582zM74 773q0 -22 -15 -37.5t-37 -15.5t-37 15.5t-15 37.5q0 21 15 36.5t37 15.5t37 -15.5t15 -36.5zM282 773q0 -22 -15.5 -37.5t-36.5 -15.5
t-37 15.5t-16 37.5q0 21 16 36.5t37 15.5t36.5 -15.5t15.5 -36.5z" />
    <glyph glyph-name="Eth" unicode="&#xd0;" horiz-adv-x="732" 
d="M685 333q0 -146 -95.5 -239.5t-250.5 -93.5h-172q-27 0 -46 19t-19 46v228h-63q-15 0 -25.5 11t-10.5 27q0 14 10.5 24.5t25.5 10.5h63v236q0 27 19 46t46 19h172q154 0 250 -94t96 -240zM583 333q0 107 -64.5 176.5t-179.5 69.5h-138v-213h135q14 0 24 -10.5t10 -26.5
q0 -15 -10 -25.5t-24 -10.5h-135v-205h138q112 0 178 70t66 175z" />
    <glyph glyph-name="Ntilde" unicode="&#xd1;" horiz-adv-x="714" 
d="M639 51q0 -23 -17.5 -40t-42.5 -17q-32 0 -49 25l-356 487v-463q0 -20 -14.5 -34.5t-35.5 -14.5q-20 0 -34.5 14.5t-14.5 34.5v569q0 25 18.5 43t45.5 18q34 0 53 -27l348 -473v452q0 20 14.5 34t36.5 14q19 0 33.5 -14.5t14.5 -33.5v-574zM512 833q-3 -48 -28 -80
t-70 -32q-24 0 -42.5 13.5t-28 29.5t-22.5 29.5t-28 13.5q-35 0 -44 -57q-1 -10 -9.5 -17.5t-19.5 -7.5q-9 0 -15.5 7t-6.5 16q0 46 27.5 79.5t71.5 33.5q24 0 42 -13.5t27.5 -29t23 -29t28.5 -13.5q36 0 43 56q1 10 9.5 17.5t19.5 7.5q10 0 16 -7t6 -17z" />
    <glyph glyph-name="Ograve" unicode="&#xd2;" horiz-adv-x="765" 
d="M718 333q0 -149 -94 -247t-242 -98t-242 97.5t-94 247.5t94 247.5t242 97.5t242 -98t94 -247zM616 333q0 112 -64.5 184.5t-169.5 72.5q-106 0 -169.5 -72t-63.5 -185q0 -112 63.5 -184.5t169.5 -72.5q105 0 169.5 72.5t64.5 184.5zM415 741q0 -9 -7 -16.5t-17 -7.5
q-7 0 -15 6l-117 101q-9 8 -9 20q0 11 9 19.5t21 8.5t20 -8l109 -107q6 -7 6 -16z" />
    <glyph glyph-name="Oacute" unicode="&#xd3;" horiz-adv-x="765" 
d="M718 333q0 -149 -94 -247t-242 -98t-242 97.5t-94 247.5t94 247.5t242 97.5t242 -98t94 -247zM616 333q0 112 -64.5 184.5t-169.5 72.5q-106 0 -169.5 -72t-63.5 -185q0 -112 63.5 -184.5t169.5 -72.5q105 0 169.5 72.5t64.5 184.5zM516 844q0 -11 -9 -20l-118 -101
q-6 -6 -14 -6q-9 0 -16.5 7t-7.5 17t6 16l108 107q8 8 21 8q11 0 20.5 -8t9.5 -20z" />
    <glyph glyph-name="Ocircumflex" unicode="&#xd4;" horiz-adv-x="765" 
d="M718 333q0 -149 -94 -247t-242 -98t-242 97.5t-94 247.5t94 247.5t242 97.5t242 -98t94 -247zM616 333q0 112 -64.5 184.5t-169.5 72.5q-106 0 -169.5 -72t-63.5 -185q0 -112 63.5 -184.5t169.5 -72.5q105 0 169.5 72.5t64.5 184.5zM505 740q0 -8 -7.5 -16t-18.5 -8
t-18 9l-78 99l-76 -98q-7 -9 -19 -9q-10 0 -18 6.5t-8 16.5q0 6 5 13l58 89q20 31 59 31q36 0 56 -31l61 -89q4 -4 4 -13z" />
    <glyph glyph-name="Otilde" unicode="&#xd5;" horiz-adv-x="765" 
d="M718 333q0 -149 -94 -247t-242 -98t-242 97.5t-94 247.5t94 247.5t242 97.5t242 -98t94 -247zM616 333q0 112 -64.5 184.5t-169.5 72.5q-106 0 -169.5 -72t-63.5 -185q0 -112 63.5 -184.5t169.5 -72.5q105 0 169.5 72.5t64.5 184.5zM539 833q-3 -48 -28 -80t-70 -32
q-24 0 -42.5 13.5t-28 29.5t-22.5 29.5t-28 13.5q-35 0 -44 -57q-1 -10 -9.5 -17.5t-19.5 -7.5q-9 0 -15.5 7t-6.5 16q0 46 27.5 79.5t71.5 33.5q24 0 42 -13.5t27.5 -29t23 -29t28.5 -13.5q36 0 43 56q1 10 9.5 17.5t19.5 7.5q10 0 16 -7t6 -17z" />
    <glyph glyph-name="Odieresis" unicode="&#xd6;" horiz-adv-x="765" 
d="M718 333q0 -149 -94 -247t-242 -98t-242 97.5t-94 247.5t94 247.5t242 97.5t242 -98t94 -247zM616 333q0 112 -64.5 184.5t-169.5 72.5q-106 0 -169.5 -72t-63.5 -185q0 -112 63.5 -184.5t169.5 -72.5q105 0 169.5 72.5t64.5 184.5zM330 773q0 -22 -15 -37.5t-37 -15.5
t-37 15.5t-15 37.5q0 21 15 36.5t37 15.5t37 -15.5t15 -36.5zM538 773q0 -22 -15.5 -37.5t-36.5 -15.5t-37 15.5t-16 37.5q0 21 16 36.5t37 15.5t36.5 -15.5t15.5 -36.5z" />
    <glyph glyph-name="multiply" unicode="&#xd7;" horiz-adv-x="500" 
d="M428 186q0 -13 -9.5 -22t-20.5 -9q-12 0 -20 9l-128 128l-127 -128q-9 -9 -20 -9q-12 0 -21.5 9t-9.5 22q0 11 9 20l127 128l-127 127q-9 9 -9 20q0 12 8.5 21.5t21.5 9.5q11 0 21 -8l127 -128l128 128q8 8 19 8q12 0 21.5 -9t9.5 -22q0 -10 -8 -20l-127 -127l127 -128
q8 -10 8 -20z" />
    <glyph glyph-name="Oslash" unicode="&#xd8;" horiz-adv-x="765" 
d="M718 333q0 -149 -94 -247t-242 -98q-99 0 -176 46l-21 -30q-7 -12 -23 -12q-13 0 -23 9t-10 21q0 10 6 17l21 31q-110 99 -110 263q0 150 94 247.5t242 97.5q93 0 169 -42l18 26q7 12 24 12q13 0 22.5 -8.5t9.5 -21.5q0 -9 -5 -16l-18 -27q116 -99 116 -268zM616 333
q0 119 -70 189l-287 -413q51 -33 123 -33q105 0 169.5 72.5t64.5 184.5zM497 561q-52 29 -115 29q-106 0 -169.5 -72t-63.5 -185q0 -115 63 -184z" />
    <glyph glyph-name="Ugrave" unicode="&#xd9;" horiz-adv-x="709" 
d="M634 262q0 -128 -71.5 -201t-207.5 -73q-137 0 -208.5 73.5t-71.5 199.5v364q0 20 14.5 34t36.5 14q20 0 34 -14.5t14 -33.5v-361q0 -88 47 -138t134 -50t133.5 50t46.5 138v361q0 20 14.5 34t36.5 14q20 0 34 -14t14 -34v-363zM387 741q0 -9 -7 -16.5t-17 -7.5
q-7 0 -15 6l-117 101q-9 8 -9 20q0 11 9 19.5t21 8.5t20 -8l109 -107q6 -7 6 -16z" />
    <glyph glyph-name="Uacute" unicode="&#xda;" horiz-adv-x="709" 
d="M634 262q0 -128 -71.5 -201t-207.5 -73q-137 0 -208.5 73.5t-71.5 199.5v364q0 20 14.5 34t36.5 14q20 0 34 -14.5t14 -33.5v-361q0 -88 47 -138t134 -50t133.5 50t46.5 138v361q0 20 14.5 34t36.5 14q20 0 34 -14t14 -34v-363zM488 844q0 -11 -9 -20l-118 -101
q-6 -6 -14 -6q-9 0 -16.5 7t-7.5 17t6 16l108 107q8 8 21 8q11 0 20.5 -8t9.5 -20z" />
    <glyph glyph-name="Ucircumflex" unicode="&#xdb;" horiz-adv-x="709" 
d="M634 262q0 -128 -71.5 -201t-207.5 -73q-137 0 -208.5 73.5t-71.5 199.5v364q0 20 14.5 34t36.5 14q20 0 34 -14.5t14 -33.5v-361q0 -88 47 -138t134 -50t133.5 50t46.5 138v361q0 20 14.5 34t36.5 14q20 0 34 -14t14 -34v-363zM478 740q0 -8 -7.5 -16t-18.5 -8
q-10 0 -18 9l-78 99l-76 -98q-8 -9 -19 -9q-10 0 -18 6.5t-8 16.5q0 6 5 13l58 89q20 31 59 31q36 0 56 -31l61 -89q4 -4 4 -13z" />
    <glyph glyph-name="Udieresis" unicode="&#xdc;" horiz-adv-x="709" 
d="M634 262q0 -128 -71.5 -201t-207.5 -73q-137 0 -208.5 73.5t-71.5 199.5v364q0 20 14.5 34t36.5 14q20 0 34 -14.5t14 -33.5v-361q0 -88 47 -138t134 -50t133.5 50t46.5 138v361q0 20 14.5 34t36.5 14q20 0 34 -14t14 -34v-363zM304 773q0 -22 -15 -37.5t-37 -15.5
t-37 15.5t-15 37.5q0 21 15 36.5t37 15.5t37 -15.5t15 -36.5zM512 773q0 -22 -15.5 -37.5t-36.5 -15.5t-37 15.5t-16 37.5q0 21 16 36.5t37 15.5t36.5 -15.5t15.5 -36.5z" />
    <glyph glyph-name="Yacute" unicode="&#xdd;" horiz-adv-x="631" 
d="M588 626q0 -14 -7 -25l-216 -321v-237q0 -21 -14.5 -35t-35.5 -14q-20 0 -34 14.5t-14 34.5v237l-217 322q-8 11 -8 24q0 18 13 32.5t34 14.5q26 0 41 -21l186 -284l185 283q13 21 39 21q20 0 34 -14t14 -32zM449 844q0 -11 -9 -20l-118 -101q-6 -6 -14 -6q-9 0 -16.5 7
t-7.5 17t6 16l108 107q8 8 21 8q11 0 20.5 -8t9.5 -20z" />
    <glyph glyph-name="Thorn" unicode="&#xde;" horiz-adv-x="597" 
d="M568 345q0 -86 -57.5 -144.5t-155.5 -58.5h-181v-95q0 -20 -14.5 -34.5t-35.5 -14.5q-20 0 -34.5 14.5t-14.5 34.5v574q0 20 14.5 34t36.5 14q20 0 34 -14.5t14 -33.5v-70h181q99 0 156 -59.5t57 -146.5zM466 345q0 52 -34.5 85t-89.5 33h-168v-234h168q55 0 89.5 32
t34.5 84z" />
    <glyph glyph-name="germandbls" unicode="&#xdf;" horiz-adv-x="609" 
d="M591 137q0 -64 -50.5 -106.5t-139.5 -42.5q-111 0 -170 62q-11 11 -11 26t10 26t24 11q11 0 22 -8q53 -46 125 -46q50 0 77 22t27 54q0 29 -29 46t-70 26.5t-82 22t-70 43.5t-29 80q0 36 22 65t48 44t48 34t22 38q0 30 -28.5 47t-64.5 17q-47 0 -79 -29t-32 -76v-455
q0 -18 -13 -31t-32 -13q-18 0 -31 13t-13 31v455q0 78 55 131t146 53q75 0 129 -36t54 -95q0 -31 -15 -55t-36 -39t-42.5 -28.5t-36.5 -30.5t-15 -38q0 -26 29 -40.5t70 -23.5t82 -22t70 -46t29 -86z" />
    <glyph glyph-name="agrave" unicode="&#xe0;" horiz-adv-x="531" 
d="M460 38q0 -18 -13 -31t-32 -13h-3q-15 0 -28 12t-13 32v16q-60 -66 -159 -66q-66 0 -117 42.5t-51 117.5q0 76 50.5 117t117.5 41q102 0 159 -64v81q0 45 -33 71t-85 26q-67 0 -121 -42q-11 -8 -22 -8q-14 0 -25.5 10t-11.5 25q0 13 9 23q67 67 184 67q86 0 140 -40.5
t54 -127.5v-289zM371 106v82q-41 56 -125 56q-49 0 -80.5 -27.5t-31.5 -70.5q0 -42 31.5 -68.5t80.5 -26.5q85 0 125 55zM298 574q0 -9 -7 -16.5t-17 -7.5q-8 0 -15 6l-117 101q-9 7 -9 20q0 11 9 19.5t21 8.5t20 -8l109 -107q6 -8 6 -16z" />
    <glyph glyph-name="aacute" unicode="&#xe1;" horiz-adv-x="531" 
d="M460 38q0 -18 -13 -31t-32 -13h-3q-15 0 -28 12t-13 32v16q-60 -66 -159 -66q-66 0 -117 42.5t-51 117.5q0 76 50.5 117t117.5 41q102 0 159 -64v81q0 45 -33 71t-85 26q-67 0 -121 -42q-11 -8 -22 -8q-14 0 -25.5 10t-11.5 25q0 13 9 23q67 67 184 67q86 0 140 -40.5
t54 -127.5v-289zM371 106v82q-41 56 -125 56q-49 0 -80.5 -27.5t-31.5 -70.5q0 -42 31.5 -68.5t80.5 -26.5q85 0 125 55zM399 677q0 -11 -9 -20l-118 -101q-6 -6 -14 -6q-9 0 -16.5 7t-7.5 17t6 16l108 107q8 8 21 8q11 0 20.5 -8t9.5 -20z" />
    <glyph glyph-name="acircumflex" unicode="&#xe2;" horiz-adv-x="531" 
d="M460 38q0 -18 -13 -31t-32 -13h-3q-15 0 -28 12t-13 32v16q-60 -66 -159 -66q-66 0 -117 42.5t-51 117.5q0 76 50.5 117t117.5 41q102 0 159 -64v81q0 45 -33 71t-85 26q-67 0 -121 -42q-11 -8 -22 -8q-14 0 -25.5 10t-11.5 25q0 13 9 23q67 67 184 67q86 0 140 -40.5
t54 -127.5v-289zM371 106v82q-41 56 -125 56q-49 0 -80.5 -27.5t-31.5 -70.5q0 -42 31.5 -68.5t80.5 -26.5q85 0 125 55zM388 573q0 -8 -7.5 -16t-18.5 -8q-10 0 -18 9l-78 99l-76 -98q-8 -9 -19 -9q-10 0 -18 7t-8 16q0 6 5 13l58 89q20 31 59 31q36 0 56 -31l61 -89
q4 -4 4 -13z" />
    <glyph glyph-name="atilde" unicode="&#xe3;" horiz-adv-x="531" 
d="M460 38q0 -18 -13 -31t-32 -13h-3q-15 0 -28 12t-13 32v16q-60 -66 -159 -66q-66 0 -117 42.5t-51 117.5q0 76 50.5 117t117.5 41q102 0 159 -64v81q0 45 -33 71t-85 26q-67 0 -121 -42q-11 -8 -22 -8q-14 0 -25.5 10t-11.5 25q0 13 9 23q67 67 184 67q86 0 140 -40.5
t54 -127.5v-289zM371 106v82q-41 56 -125 56q-49 0 -80.5 -27.5t-31.5 -70.5q0 -42 31.5 -68.5t80.5 -26.5q85 0 125 55zM423 666q-3 -48 -28 -80t-70 -32q-24 0 -42.5 13.5t-28 29.5t-22.5 29.5t-28 13.5q-35 0 -44 -57q-1 -10 -9.5 -17.5t-19.5 -7.5q-9 0 -15.5 7t-6.5 16
q0 46 27.5 79.5t71.5 33.5q24 0 42 -13.5t27.5 -29t23 -29t28.5 -13.5q36 0 43 56q1 10 9.5 17.5t19.5 7.5q10 0 16 -7t6 -17z" />
    <glyph glyph-name="adieresis" unicode="&#xe4;" horiz-adv-x="531" 
d="M460 38q0 -18 -13 -31t-32 -13h-3q-15 0 -28 12t-13 32v16q-60 -66 -159 -66q-66 0 -117 42.5t-51 117.5q0 76 50.5 117t117.5 41q102 0 159 -64v81q0 45 -33 71t-85 26q-67 0 -121 -42q-11 -8 -22 -8q-14 0 -25.5 10t-11.5 25q0 13 9 23q67 67 184 67q86 0 140 -40.5
t54 -127.5v-289zM371 106v82q-41 56 -125 56q-49 0 -80.5 -27.5t-31.5 -70.5q0 -42 31.5 -68.5t80.5 -26.5q85 0 125 55zM214 606q0 -22 -15 -37.5t-37 -15.5t-37 15.5t-15 37.5q0 21 15 36.5t37 15.5t37 -15.5t15 -36.5zM422 606q0 -22 -15.5 -37.5t-36.5 -15.5t-37 15.5
t-16 37.5q0 21 16 36.5t37 15.5t36.5 -15.5t15.5 -36.5z" />
    <glyph glyph-name="aring" unicode="&#xe5;" horiz-adv-x="531" 
d="M460 38q0 -18 -13 -31t-32 -13h-3q-15 0 -28 12t-13 32v16q-60 -66 -159 -66q-66 0 -117 42.5t-51 117.5q0 76 50.5 117t117.5 41q102 0 159 -64v81q0 45 -33 71t-85 26q-67 0 -121 -42q-11 -8 -22 -8q-14 0 -25.5 10t-11.5 25q0 13 9 23q67 67 184 67q86 0 140 -40.5
t54 -127.5v-289zM371 106v82q-41 56 -125 56q-49 0 -80.5 -27.5t-31.5 -70.5q0 -42 31.5 -68.5t80.5 -26.5q85 0 125 55zM367 640q0 -41 -29.5 -70.5t-70.5 -29.5t-70.5 29.5t-29.5 70.5t29.5 71t70.5 30t70.5 -30t29.5 -71zM322 640q0 23 -16 39t-39 16t-39 -16t-16 -39
t16.5 -39.5t38.5 -16.5q23 0 39 16.5t16 39.5z" />
    <glyph glyph-name="ae" unicode="&#xe6;" horiz-adv-x="884" 
d="M841 259q0 -19 -13.5 -32.5t-32.5 -13.5h-313q6 -65 46.5 -107.5t106.5 -42.5q61 0 108 35q11 6 23 6q15 0 26 -10t11 -25q0 -13 -9 -22q-30 -29 -75 -44t-89 -15q-132 0 -191 108q-27 -49 -80.5 -78.5t-118.5 -29.5q-83 0 -139.5 42t-56.5 117t51 117t126 42
q111 0 172 -62v80q0 44 -35 70t-93 26q-76 0 -133 -43q-8 -7 -21 -7q-14 0 -25.5 10t-11.5 25q0 14 9 23q34 33 86 50t107 17q63 0 109.5 -25t60.5 -74q61 99 178 99q81 0 135.5 -48t73.5 -132q8 -34 8 -56zM755 276q-1 57 -35.5 102t-101.5 45q-62 0 -97.5 -45t-38.5 -102
h273zM393 177v10q-48 57 -136 57q-55 0 -89 -25t-34 -67q0 -41 34 -65.5t88 -24.5q57 0 97 35.5t40 79.5z" />
    <glyph glyph-name="ccedilla" unicode="&#xe7;" horiz-adv-x="496" 
d="M457 74q0 -14 -8 -22q-47 -56 -141 -63l-16 -41q17 10 37 10q29 0 47.5 -18.5t18.5 -49.5q0 -37 -30.5 -59t-75.5 -22q-36 0 -69 11.5t-33 30.5q0 10 7 16.5t16 6.5q4 0 9 -3q31 -19 68 -19q24 0 41 10.5t17 29.5q0 32 -35 32q-8 0 -22.5 -7.5t-21.5 -7.5
q-10 0 -17.5 7.5t-7.5 17.5q0 5 1 8l18 48q-97 10 -157 79.5t-60 172.5q0 109 68.5 181t176.5 72q105 0 161 -64q7 -8 7 -21q0 -16 -12 -28t-29 -12q-15 0 -28 11q-39 35 -94 35q-71 0 -114.5 -48.5t-43.5 -125.5t43.5 -126t114.5 -49q53 0 94 36q12 9 28 9q17 0 29.5 -10.5
t12.5 -27.5z" />
    <glyph glyph-name="egrave" unicode="&#xe8;" horiz-adv-x="560" 
d="M518 258q0 -18 -13.5 -31.5t-32.5 -13.5h-336q5 -65 49.5 -109t115.5 -44q66 0 120 40q10 5 20 5q13 0 24.5 -10t11.5 -26q0 -36 -64 -58.5t-121 -22.5q-109 0 -179 70.5t-70 183.5q0 106 68.5 179.5t172.5 73.5q86 0 144.5 -49t80.5 -132q9 -36 9 -56zM432 276
q-2 56 -40 101.5t-109 45.5q-67 0 -105.5 -45t-41.5 -102h296zM316 574q0 -9 -7 -16.5t-17 -7.5q-8 0 -15 6l-117 101q-9 7 -9 20q0 11 9 19.5t21 8.5t20 -8l109 -107q6 -8 6 -16z" />
    <glyph glyph-name="eacute" unicode="&#xe9;" horiz-adv-x="560" 
d="M518 258q0 -18 -13.5 -31.5t-32.5 -13.5h-336q5 -65 49.5 -109t115.5 -44q66 0 120 40q10 5 20 5q13 0 24.5 -10t11.5 -26q0 -36 -64 -58.5t-121 -22.5q-109 0 -179 70.5t-70 183.5q0 106 68.5 179.5t172.5 73.5q86 0 144.5 -49t80.5 -132q9 -36 9 -56zM432 276
q-2 56 -40 101.5t-109 45.5q-67 0 -105.5 -45t-41.5 -102h296zM418 677q0 -11 -9 -20l-118 -101q-6 -6 -14 -6q-9 0 -16.5 7t-7.5 17t6 16l108 107q8 8 21 8q11 0 20.5 -8t9.5 -20z" />
    <glyph glyph-name="ecircumflex" unicode="&#xea;" horiz-adv-x="560" 
d="M518 258q0 -18 -13.5 -31.5t-32.5 -13.5h-336q5 -65 49.5 -109t115.5 -44q66 0 120 40q10 5 20 5q13 0 24.5 -10t11.5 -26q0 -36 -64 -58.5t-121 -22.5q-109 0 -179 70.5t-70 183.5q0 106 68.5 179.5t172.5 73.5q86 0 144.5 -49t80.5 -132q9 -36 9 -56zM432 276
q-2 56 -40 101.5t-109 45.5q-67 0 -105.5 -45t-41.5 -102h296zM406 573q0 -8 -7.5 -16t-18.5 -8q-10 0 -18 9l-78 99l-76 -98q-7 -9 -19 -9q-10 0 -18 7t-8 16q0 6 5 13l58 89q20 31 59 31q36 0 56 -31l61 -89q4 -4 4 -13z" />
    <glyph glyph-name="edieresis" unicode="&#xeb;" horiz-adv-x="560" 
d="M518 258q0 -18 -13.5 -31.5t-32.5 -13.5h-336q5 -65 49.5 -109t115.5 -44q66 0 120 40q10 5 20 5q13 0 24.5 -10t11.5 -26q0 -36 -64 -58.5t-121 -22.5q-109 0 -179 70.5t-70 183.5q0 106 68.5 179.5t172.5 73.5q86 0 144.5 -49t80.5 -132q9 -36 9 -56zM432 276
q-2 56 -40 101.5t-109 45.5q-67 0 -105.5 -45t-41.5 -102h296zM233 606q0 -22 -15 -37.5t-37 -15.5t-37 15.5t-15 37.5q0 21 15 36.5t37 15.5t37 -15.5t15 -36.5zM441 606q0 -22 -15.5 -37.5t-36.5 -15.5t-37 15.5t-16 37.5q0 21 16 36.5t37 15.5t36.5 -15.5t15.5 -36.5z
" />
    <glyph glyph-name="igrave" unicode="&#xec;" horiz-adv-x="233" 
d="M149 574q0 -9 -7 -16.5t-17 -7.5q-7 0 -15 6l-117 101q-9 7 -9 20q0 11 9 19.5t21 8.5t20 -8l109 -107q6 -8 6 -16zM161 38q0 -18 -13 -31t-32 -13q-18 0 -31 13t-13 31v408q0 17 13.5 30t32.5 13q17 0 30 -13t13 -30v-408z" />
    <glyph glyph-name="iacute" unicode="&#xed;" horiz-adv-x="233" 
d="M250 677q0 -11 -9 -20l-118 -101q-6 -6 -14 -6q-9 0 -16.5 7t-7.5 17t6 16l108 107q8 8 21 8q11 0 20.5 -8t9.5 -20zM161 38q0 -18 -13 -31t-32 -13q-18 0 -31 13t-13 31v408q0 17 13.5 30t32.5 13q17 0 30 -13t13 -30v-408z" />
    <glyph glyph-name="icircumflex" unicode="&#xee;" horiz-adv-x="233" 
d="M161 38q0 -18 -13 -31t-32 -13q-18 0 -31 13t-13 31v408q0 17 13.5 30t32.5 13q17 0 30 -13t13 -30v-408zM238 573q0 -8 -7.5 -16t-18.5 -8q-10 0 -18 9l-78 99l-76 -98q-8 -9 -19 -9q-10 0 -18 7t-8 16q0 6 5 13l58 89q20 31 59 31q36 0 56 -31l61 -89q4 -4 4 -13z" />
    <glyph glyph-name="idieresis" unicode="&#xef;" horiz-adv-x="233" 
d="M66 606q0 -22 -15 -37.5t-37 -15.5t-37 15.5t-15 37.5q0 21 15 36.5t37 15.5t37 -15.5t15 -36.5zM274 606q0 -22 -15.5 -37.5t-36.5 -15.5t-37 15.5t-16 37.5q0 21 16 36.5t37 15.5t36.5 -15.5t15.5 -36.5zM161 38q0 -18 -13 -31t-32 -13q-18 0 -31 13t-13 31v408
q0 17 13.5 30t32.5 13q17 0 30 -13t13 -30v-408z" />
    <glyph glyph-name="eth" unicode="&#xf0;" 
d="M530 248q0 -115 -66 -187.5t-178 -72.5q-108 0 -175.5 68.5t-67.5 174.5q0 105 61.5 174t156.5 69q98 0 159 -90q-46 86 -159 169l-123 -54q-6 -3 -10 -3q-10 0 -17.5 8t-7.5 19q0 15 15 23l94 41q-56 32 -56 59q0 18 13.5 31t31.5 13q23 0 103 -63l87 38q4 2 9 2
q9 0 16.5 -6.5t7.5 -17.5q0 -17 -14 -23l-62 -28q182 -156 182 -344zM437 231q0 69 -40.5 116.5t-110.5 47.5q-69 0 -110 -48t-41 -116t41 -116t110 -48q70 0 110.5 47.5t40.5 116.5z" />
    <glyph glyph-name="ntilde" unicode="&#xf1;" horiz-adv-x="559" 
d="M487 38q0 -18 -13 -31t-32 -13q-18 0 -31 13t-13 31v272q0 106 -103 106q-41 0 -77 -20.5t-57 -50.5v-307q0 -18 -13 -31t-32 -13q-18 0 -31 13t-13 31v408q0 17 13.5 30t32.5 13q17 0 30 -13t13 -30v-31q28 33 73.5 56.5t97.5 23.5q155 0 155 -155v-302zM437 666
q-3 -48 -28 -80t-70 -32q-24 0 -42.5 13.5t-28 29.5t-22.5 29.5t-28 13.5q-35 0 -44 -57q-1 -10 -9.5 -17.5t-19.5 -7.5q-9 0 -15.5 7t-6.5 16q0 46 27.5 79.5t71.5 33.5q24 0 42 -13.5t27.5 -29t23 -29t28.5 -13.5q36 0 43 56q1 10 9.5 17.5t19.5 7.5q10 0 16 -7t6 -17z
" />
    <glyph glyph-name="ograve" unicode="&#xf2;" 
d="M530 242q0 -108 -67 -181t-177 -73t-176.5 73.5t-66.5 180.5t66.5 180t176.5 73t177 -73t67 -180zM437 242q0 73 -40.5 123.5t-110.5 50.5q-69 0 -110 -51t-41 -123q0 -73 41 -124t110 -51q70 0 110.5 51t40.5 124zM318 574q0 -9 -7 -16.5t-17 -7.5q-8 0 -15 6l-117 101
q-9 7 -9 20q0 11 9 19.5t21 8.5t20 -8l109 -107q6 -8 6 -16z" />
    <glyph glyph-name="oacute" unicode="&#xf3;" 
d="M530 242q0 -108 -67 -181t-177 -73t-176.5 73.5t-66.5 180.5t66.5 180t176.5 73t177 -73t67 -180zM437 242q0 73 -40.5 123.5t-110.5 50.5q-69 0 -110 -51t-41 -123q0 -73 41 -124t110 -51q70 0 110.5 51t40.5 124zM420 677q0 -11 -9 -20l-118 -101q-6 -6 -14 -6
q-9 0 -16.5 7t-7.5 17t6 16l108 107q8 8 21 8q11 0 20.5 -8t9.5 -20z" />
    <glyph glyph-name="ocircumflex" unicode="&#xf4;" 
d="M530 242q0 -108 -67 -181t-177 -73t-176.5 73.5t-66.5 180.5t66.5 180t176.5 73t177 -73t67 -180zM437 242q0 73 -40.5 123.5t-110.5 50.5q-69 0 -110 -51t-41 -123q0 -73 41 -124t110 -51q70 0 110.5 51t40.5 124zM407 573q0 -8 -7.5 -16t-18.5 -8t-18 9l-78 99l-76 -98
q-8 -9 -19 -9q-10 0 -18 7t-8 16q0 6 5 13l58 89q20 31 59 31q36 0 56 -31l61 -89q4 -4 4 -13z" />
    <glyph glyph-name="otilde" unicode="&#xf5;" 
d="M530 242q0 -108 -67 -181t-177 -73t-176.5 73.5t-66.5 180.5t66.5 180t176.5 73t177 -73t67 -180zM437 242q0 73 -40.5 123.5t-110.5 50.5q-69 0 -110 -51t-41 -123q0 -73 41 -124t110 -51q70 0 110.5 51t40.5 124zM443 666q-3 -48 -28 -80t-70 -32q-24 0 -42.5 13.5
t-28 29.5t-22.5 29.5t-28 13.5q-35 0 -44 -57q-1 -10 -9.5 -17.5t-19.5 -7.5q-9 0 -15.5 7t-6.5 16q0 46 27.5 79.5t71.5 33.5q24 0 42 -13.5t27.5 -29t23 -29t28.5 -13.5q36 0 43 56q1 10 9.5 17.5t19.5 7.5q10 0 16 -7t6 -17z" />
    <glyph glyph-name="odieresis" unicode="&#xf6;" 
d="M530 242q0 -108 -67 -181t-177 -73t-176.5 73.5t-66.5 180.5t66.5 180t176.5 73t177 -73t67 -180zM437 242q0 73 -40.5 123.5t-110.5 50.5q-69 0 -110 -51t-41 -123q0 -73 41 -124t110 -51q70 0 110.5 51t40.5 124zM234 606q0 -22 -15 -37.5t-37 -15.5t-37 15.5t-15 37.5
q0 21 15 36.5t37 15.5t37 -15.5t15 -36.5zM442 606q0 -22 -15.5 -37.5t-36.5 -15.5t-37 15.5t-16 37.5q0 21 16 36.5t37 15.5t36.5 -15.5t15.5 -36.5z" />
    <glyph glyph-name="divide" unicode="&#xf7;" horiz-adv-x="511" 
d="M255 573q21 0 36 -14.5t15 -35.5q0 -20 -15 -35t-36 -15q-20 0 -34.5 15t-14.5 35q0 21 14.5 35.5t34.5 14.5zM484 338q0 -13 -8.5 -21.5t-20.5 -8.5h-399q-12 0 -20.5 8.5t-8.5 21.5q0 12 8.5 20.5t20.5 8.5h399q12 0 20.5 -8.5t8.5 -20.5zM306 147q0 -20 -15 -35
t-36 -15q-20 0 -34.5 15t-14.5 35q0 21 14.5 36t34.5 15q21 0 36 -15t15 -36z" />
    <glyph glyph-name="oslash" unicode="&#xf8;" 
d="M143 32l-28 -35q-6 -8 -16 -8q-9 0 -16.5 7t-7.5 17q0 9 5 14l28 36q-65 71 -65 179q0 107 66.5 180t176.5 73q79 0 138 -40l25 30q4 8 16 8q9 0 17 -7t8 -16q0 -7 -5 -15l-25 -31q70 -72 70 -182q0 -108 -67 -181t-177 -73q-84 0 -143 44zM197 97q36 -30 89 -30
q70 0 110.5 51t40.5 124q0 65 -34 113zM286 416q-69 0 -110 -51t-41 -123q0 -62 30 -109l205 256q-35 27 -84 27z" />
    <glyph glyph-name="ugrave" unicode="&#xf9;" horiz-adv-x="559" 
d="M487 38q0 -18 -13 -31t-32 -13q-18 0 -31 13t-13 31v28q-30 -34 -75 -56t-97 -22q-154 0 -154 153v305q0 17 13.5 30t32.5 13q17 0 30 -13t13 -30v-274q0 -57 26.5 -81t76.5 -24q40 0 76 20t58 49v310q0 17 13.5 30t32.5 13q17 0 30 -13t13 -30v-408zM311 574
q0 -9 -7 -16.5t-17 -7.5q-7 0 -15 6l-117 101q-9 7 -9 20q0 11 9 19.5t21 8.5t20 -8l109 -107q6 -8 6 -16z" />
    <glyph glyph-name="uacute" unicode="&#xfa;" horiz-adv-x="559" 
d="M487 38q0 -18 -13 -31t-32 -13q-18 0 -31 13t-13 31v28q-30 -34 -75 -56t-97 -22q-154 0 -154 153v305q0 17 13.5 30t32.5 13q17 0 30 -13t13 -30v-274q0 -57 26.5 -81t76.5 -24q40 0 76 20t58 49v310q0 17 13.5 30t32.5 13q17 0 30 -13t13 -30v-408zM412 677
q0 -11 -9 -20l-118 -101q-6 -6 -14 -6q-9 0 -16.5 7t-7.5 17t6 16l108 107q8 8 21 8q11 0 20.5 -8t9.5 -20z" />
    <glyph glyph-name="ucircumflex" unicode="&#xfb;" horiz-adv-x="559" 
d="M487 38q0 -18 -13 -31t-32 -13q-18 0 -31 13t-13 31v28q-30 -34 -75 -56t-97 -22q-154 0 -154 153v305q0 17 13.5 30t32.5 13q17 0 30 -13t13 -30v-274q0 -57 26.5 -81t76.5 -24q40 0 76 20t58 49v310q0 17 13.5 30t32.5 13q17 0 30 -13t13 -30v-408zM400 573
q0 -8 -7.5 -16t-18.5 -8q-10 0 -18 9l-78 99l-76 -98q-8 -9 -19 -9q-10 0 -18 7t-8 16q0 6 5 13l58 89q20 31 59 31q36 0 56 -31l61 -89q4 -4 4 -13z" />
    <glyph glyph-name="udieresis" unicode="&#xfc;" horiz-adv-x="559" 
d="M487 38q0 -18 -13 -31t-32 -13q-18 0 -31 13t-13 31v28q-30 -34 -75 -56t-97 -22q-154 0 -154 153v305q0 17 13.5 30t32.5 13q17 0 30 -13t13 -30v-274q0 -57 26.5 -81t76.5 -24q40 0 76 20t58 49v310q0 17 13.5 30t32.5 13q17 0 30 -13t13 -30v-408zM228 606
q0 -22 -15 -37.5t-37 -15.5t-37 15.5t-15 37.5q0 21 15 36.5t37 15.5t37 -15.5t15 -36.5zM436 606q0 -22 -15.5 -37.5t-36.5 -15.5t-37 15.5t-16 37.5q0 21 16 36.5t37 15.5t36.5 -15.5t15.5 -36.5z" />
    <glyph glyph-name="yacute" unicode="&#xfd;" horiz-adv-x="496" 
d="M477 445q0 -9 -3 -15l-216 -523q-44 -103 -149 -103q-64 0 -64 40q0 17 11.5 28.5t28.5 11.5h23q44 0 65 46l28 64l-179 436q-3 8 -3 15q0 17 12.5 30.5t32.5 13.5q30 0 41 -28l143 -358l142 358q12 28 42 28q19 0 32 -13t13 -31zM381 677q0 -11 -9 -20l-118 -101
q-6 -6 -14 -6q-9 0 -16.5 7t-7.5 17t6 16l108 107q8 8 21 8q11 0 20.5 -8t9.5 -20z" />
    <glyph glyph-name="thorn" unicode="&#xfe;" horiz-adv-x="575" 
d="M535 242q0 -116 -59.5 -185t-155.5 -69q-99 0 -159 82v-213q0 -17 -13 -30t-32 -13q-18 0 -31 13t-13 30v769q0 17 13.5 30t32.5 13q17 0 30 -13t13 -30v-212q27 37 69 59t90 22q96 0 155.5 -68t59.5 -185zM441 242q0 77 -39.5 125.5t-106.5 48.5q-40 0 -78 -20.5
t-56 -50.5v-206q18 -30 56 -51t78 -21q67 0 106.5 49t39.5 126z" />
    <glyph glyph-name="ydieresis" unicode="&#xff;" horiz-adv-x="496" 
d="M477 445q0 -9 -3 -15l-216 -523q-44 -103 -149 -103q-64 0 -64 40q0 17 11.5 28.5t28.5 11.5h23q44 0 65 46l28 64l-179 436q-3 8 -3 15q0 17 12.5 30.5t32.5 13.5q30 0 41 -28l143 -358l142 358q12 28 42 28q19 0 32 -13t13 -31zM196 606q0 -22 -15 -37.5t-37 -15.5
t-37 15.5t-15 37.5q0 21 15 36.5t37 15.5t37 -15.5t15 -36.5zM404 606q0 -22 -15.5 -37.5t-36.5 -15.5t-37 15.5t-16 37.5q0 21 16 36.5t37 15.5t36.5 -15.5t15.5 -36.5z" />
    <glyph glyph-name="Amacron" unicode="&#x100;" horiz-adv-x="665" 
d="M637 47q0 -20 -15 -36.5t-38 -16.5q-35 0 -48 32l-44 113h-319l-44 -113q-13 -32 -48 -32q-23 0 -38 16t-15 37q0 9 3 19l221 554q9 24 31 38.5t48 14.5q26 1 48.5 -13.5t32.5 -39.5l221 -554q4 -9 4 -19zM464 226l-132 340l-131 -340h263zM513 765q0 -13 -7.5 -21
t-18.5 -8h-311q-11 0 -18.5 8t-7.5 21q0 11 8 18.5t18 7.5h311q11 0 18.5 -7.5t7.5 -18.5z" />
    <glyph glyph-name="amacron" unicode="&#x101;" horiz-adv-x="531" 
d="M460 38q0 -18 -13 -31t-32 -13h-3q-15 0 -28 12t-13 32v16q-60 -66 -159 -66q-66 0 -117 42.5t-51 117.5q0 76 50.5 117t117.5 41q102 0 159 -64v81q0 45 -33 71t-85 26q-67 0 -121 -42q-11 -8 -22 -8q-14 0 -25.5 10t-11.5 25q0 13 9 23q67 67 184 67q86 0 140 -40.5
t54 -127.5v-289zM371 106v82q-41 56 -125 56q-49 0 -80.5 -27.5t-31.5 -70.5q0 -42 31.5 -68.5t80.5 -26.5q85 0 125 55zM447 598q0 -13 -7.5 -21t-18.5 -8h-311q-11 0 -18.5 8t-7.5 21q0 10 8 18t18 8h311q11 0 18.5 -8t7.5 -18z" />
    <glyph glyph-name="Abreve" unicode="&#x102;" horiz-adv-x="665" 
d="M637 47q0 -20 -15 -36.5t-38 -16.5q-35 0 -48 32l-44 113h-319l-44 -113q-13 -32 -48 -32q-23 0 -38 16t-15 37q0 9 3 19l221 554q9 24 31 38.5t48 14.5q26 1 48.5 -13.5t32.5 -39.5l221 -554q4 -9 4 -19zM464 226l-132 340l-131 -340h263zM497 788q0 -10 -7 -17
q-65 -68 -158 -68t-159 68q-6 6 -6 17q0 10 8 18.5t20 8.5q10 0 21 -8q46 -49 116 -49q71 0 115 49q8 8 21 8q12 0 20.5 -8.5t8.5 -18.5z" />
    <glyph glyph-name="abreve" unicode="&#x103;" horiz-adv-x="531" 
d="M460 38q0 -18 -13 -31t-32 -13h-3q-15 0 -28 12t-13 32v16q-60 -66 -159 -66q-66 0 -117 42.5t-51 117.5q0 76 50.5 117t117.5 41q102 0 159 -64v81q0 45 -33 71t-85 26q-67 0 -121 -42q-11 -8 -22 -8q-14 0 -25.5 10t-11.5 25q0 13 9 23q67 67 184 67q86 0 140 -40.5
t54 -127.5v-289zM371 106v82q-41 56 -125 56q-49 0 -80.5 -27.5t-31.5 -70.5q0 -42 31.5 -68.5t80.5 -26.5q85 0 125 55zM431 621q0 -10 -7 -17q-65 -68 -158 -68t-159 68q-6 6 -6 17q0 10 8 18.5t20 8.5q10 0 21 -8q46 -49 116 -49q71 0 115 49q8 8 21 8q12 0 20.5 -8.5
t8.5 -18.5z" />
    <glyph glyph-name="Aogonek" unicode="&#x104;" horiz-adv-x="665" 
d="M711 -134q0 -21 -27.5 -36.5t-56.5 -15.5q-39 0 -65.5 22t-26.5 66q0 55 49 97h-9q-31 3 -40 30l-43 110h-319l-44 -113q-13 -32 -48 -32q-23 0 -38 16t-15 37q0 9 3 19l221 554q9 24 31 38.5t48 14.5q26 1 48.5 -13.5t32.5 -39.5l220 -549q9 -24 9 -40q0 -25 -30 -61
q-26 -31 -26 -65q0 -48 42 -48q26 0 44 23q5 8 17 8q9 0 16 -6.5t7 -15.5zM464 226l-132 340l-131 -340h263z" />
    <glyph glyph-name="aogonek" unicode="&#x105;" horiz-adv-x="531" 
d="M511 -134q0 -21 -27.5 -36.5t-56.5 -15.5q-39 0 -65.5 22t-26.5 66q0 57 54 100q-19 13 -18 52q-60 -66 -159 -66q-66 0 -117 42.5t-51 117.5q0 76 50.5 117t117.5 41q102 0 159 -64v81q0 45 -33 71t-85 26q-67 0 -121 -42q-11 -8 -22 -8q-14 0 -25.5 10t-11.5 25
q0 13 9 23q67 67 184 67q86 0 140 -40.5t54 -127.5v-289q0 -15 -11 -28q-21 -19 -32.5 -32t-21.5 -33t-10 -40q0 -48 42 -48q26 0 44 23q5 8 17 8q9 0 16 -6.5t7 -15.5zM371 106v82q-41 56 -125 56q-49 0 -80.5 -27.5t-31.5 -70.5q0 -42 31.5 -68.5t80.5 -26.5q85 0 125 55z
" />
    <glyph glyph-name="Cacute" unicode="&#x106;" horiz-adv-x="679" 
d="M393 678q139 0 228 -99q12 -14 12 -32q0 -19 -14 -32.5t-33 -13.5q-22 0 -34 16q-29 34 -72 53.5t-87 19.5q-105 0 -174.5 -72.5t-69.5 -184.5q0 -111 69.5 -184t174.5 -73q95 0 159 72q13 16 35 16q19 0 32.5 -14t13.5 -32q0 -19 -12 -31q-92 -99 -228 -99
q-148 0 -247.5 96.5t-99.5 248.5t99.5 248.5t247.5 96.5zM526 844q0 -11 -9 -20l-118 -101q-6 -6 -14 -6q-9 0 -16.5 7t-7.5 17t6 16l108 107q8 8 21 8q11 0 20.5 -8t9.5 -20z" />
    <glyph glyph-name="cacute" unicode="&#x107;" horiz-adv-x="496" 
d="M457 73q0 -15 -12 -26q-61 -59 -157 -59q-108 0 -176.5 72t-68.5 182q0 109 68.5 181t176.5 72q105 0 161 -64q7 -8 7 -21q0 -16 -12 -28t-29 -12q-15 0 -28 11q-39 35 -94 35q-71 0 -114.5 -48.5t-43.5 -125.5t43.5 -126t114.5 -49q53 0 94 36q12 9 28 9t29 -11t13 -28z
M420 677q0 -11 -9 -20l-118 -101q-6 -6 -14 -6q-9 0 -16.5 7t-7.5 17t6 16l108 107q8 8 21 8q11 0 20.5 -8t9.5 -20z" />
    <glyph glyph-name="Ccaron" unicode="&#x10c;" horiz-adv-x="679" 
d="M393 678q139 0 228 -99q12 -14 12 -32q0 -19 -14 -32.5t-33 -13.5q-22 0 -34 16q-29 34 -72 53.5t-87 19.5q-105 0 -174.5 -72.5t-69.5 -184.5q0 -111 69.5 -184t174.5 -73q95 0 159 72q13 16 35 16q19 0 32.5 -14t13.5 -32q0 -19 -12 -31q-92 -99 -228 -99
q-148 0 -247.5 96.5t-99.5 248.5t99.5 248.5t247.5 96.5zM516 849q0 -8 -4 -12l-61 -89q-20 -31 -58 -31q-37 0 -57 31l-58 89q-4 4 -4 12t7 16t18 8q10 0 19 -9l76 -99l78 99q8 9 18 9t18 -7t8 -17z" />
    <glyph glyph-name="ccaron" unicode="&#x10d;" horiz-adv-x="496" 
d="M457 73q0 -15 -12 -26q-61 -59 -157 -59q-108 0 -176.5 72t-68.5 182q0 109 68.5 181t176.5 72q105 0 161 -64q7 -8 7 -21q0 -16 -12 -28t-29 -12q-15 0 -28 11q-39 35 -94 35q-71 0 -114.5 -48.5t-43.5 -125.5t43.5 -126t114.5 -49q53 0 94 36q12 9 28 9t29 -11t13 -28z
M413 682q0 -8 -4 -12l-61 -89q-20 -31 -58 -31q-37 0 -57 31l-58 89q-4 4 -4 12t7 16t18 8q10 0 19 -9l76 -99l78 99q7 9 18 9q10 0 18 -7t8 -17z" />
    <glyph glyph-name="Dcaron" unicode="&#x10e;" horiz-adv-x="705" 
d="M657 333q0 -146 -95 -239.5t-250 -93.5h-172q-27 0 -46 19t-19 46v537q0 27 19 46t46 19h172q154 0 249.5 -94t95.5 -240zM556 333q0 107 -64.5 176.5t-179.5 69.5h-138v-491h138q112 0 178 70t66 175zM478 849q0 -8 -4 -12l-61 -89q-20 -31 -58 -31q-37 0 -57 31l-58 89
q-4 4 -4 12t7 16t18 8q10 0 19 -9l76 -99l78 99q8 9 18 9t18 -7t8 -17z" />
    <glyph glyph-name="dcaron" unicode="&#x10f;" horiz-adv-x="656" 
d="M506 38q0 -18 -13 -31t-32 -13q-18 0 -31 13t-13 31v31q-62 -81 -159 -81q-95 0 -155 68t-60 185q0 115 60 184.5t155 69.5q98 0 159 -82v217q0 17 13.5 30t32.5 13q17 0 30 -13t13 -30v-592zM417 138v206q-19 30 -57 51t-79 21q-66 0 -106 -49t-40 -126t39.5 -125.5
t106.5 -48.5q41 0 79 20t57 51zM661 609q0 -71 -59 -125q-7 -7 -17 -7t-16 6l-1 1q-7 7 -7 14q0 8 6 12q39 41 43 73q-2 -2 -12 -2q-19 0 -32 13.5t-13 33.5q0 22 14.5 37t35.5 15q24 0 41 -19t17 -52z" />
    <glyph glyph-name="Dcroat" unicode="&#x110;" horiz-adv-x="732" 
d="M685 333q0 -146 -95.5 -239.5t-250.5 -93.5h-172q-27 0 -46 19t-19 46v228h-63q-15 0 -25.5 11t-10.5 27q0 14 10.5 24.5t25.5 10.5h63v236q0 27 19 46t46 19h172q154 0 250 -94t96 -240zM583 333q0 107 -64.5 176.5t-179.5 69.5h-138v-213h135q14 0 24 -10.5t10 -26.5
q0 -15 -10 -25.5t-24 -10.5h-135v-205h138q112 0 178 70t66 175z" />
    <glyph glyph-name="dcroat" unicode="&#x111;" horiz-adv-x="580" 
d="M577 559q0 -11 -7.5 -18.5t-18.5 -7.5h-45v-495q0 -18 -13 -31t-32 -13q-18 0 -31 13t-13 31v31q-62 -81 -159 -81q-95 0 -155 68t-60 185q0 115 60 184.5t155 69.5q98 0 159 -82v120h-134q-11 0 -18.5 8t-7.5 20q0 11 7.5 19t18.5 8h134v42q0 17 13.5 30t32.5 13
q17 0 30 -13t13 -30v-42h45q11 0 18.5 -8t7.5 -21zM417 138v206q-19 30 -57 51t-79 21q-66 0 -106 -49t-40 -126t39.5 -125.5t106.5 -48.5q41 0 79 20t57 51z" />
    <glyph glyph-name="Emacron" unicode="&#x112;" 
d="M527 45q0 -19 -12.5 -32t-30.5 -13h-344q-27 0 -46 19t-19 46v537q0 27 19 46t46 19h344q18 0 30.5 -13t12.5 -32q0 -17 -12.5 -30t-30.5 -13h-310v-195h303q18 0 30.5 -13t12.5 -32q0 -17 -12.5 -30t-30.5 -13h-303v-208h310q18 0 30.5 -13t12.5 -30zM478 765
q0 -13 -7.5 -21t-18.5 -8h-311q-11 0 -18.5 8t-7.5 21q0 11 7.5 18.5t18.5 7.5h311q10 0 18 -7.5t8 -18.5z" />
    <glyph glyph-name="emacron" unicode="&#x113;" horiz-adv-x="560" 
d="M518 258q0 -18 -13.5 -31.5t-32.5 -13.5h-336q5 -65 49.5 -109t115.5 -44q66 0 120 40q10 5 20 5q13 0 24.5 -10t11.5 -26q0 -36 -64 -58.5t-121 -22.5q-109 0 -179 70.5t-70 183.5q0 106 68.5 179.5t172.5 73.5q86 0 144.5 -49t80.5 -132q9 -36 9 -56zM432 276
q-2 56 -40 101.5t-109 45.5q-67 0 -105.5 -45t-41.5 -102h296zM465 598q0 -13 -7.5 -21t-18.5 -8h-311q-11 0 -18.5 8t-7.5 21q0 10 8 18t18 8h311q11 0 18.5 -8t7.5 -18z" />
    <glyph glyph-name="Edotaccent" unicode="&#x116;" 
d="M527 45q0 -19 -12.5 -32t-30.5 -13h-344q-27 0 -46 19t-19 46v537q0 27 19 46t46 19h344q18 0 30.5 -13t12.5 -32q0 -17 -12.5 -30t-30.5 -13h-310v-195h303q18 0 30.5 -13t12.5 -32q0 -17 -12.5 -30t-30.5 -13h-303v-208h310q18 0 30.5 -13t12.5 -30zM352 771
q0 -22 -15 -37t-36 -15q-22 0 -37.5 15t-15.5 37t15.5 37.5t37.5 15.5q21 0 36 -15.5t15 -37.5z" />
    <glyph glyph-name="edotaccent" unicode="&#x117;" horiz-adv-x="560" 
d="M518 258q0 -18 -13.5 -31.5t-32.5 -13.5h-336q5 -65 49.5 -109t115.5 -44q66 0 120 40q10 5 20 5q13 0 24.5 -10t11.5 -26q0 -36 -64 -58.5t-121 -22.5q-109 0 -179 70.5t-70 183.5q0 106 68.5 179.5t172.5 73.5q86 0 144.5 -49t80.5 -132q9 -36 9 -56zM432 276
q-2 56 -40 101.5t-109 45.5q-67 0 -105.5 -45t-41.5 -102h296zM337 604q0 -22 -15 -37t-36 -15q-22 0 -37.5 15t-15.5 37t15.5 37.5t37.5 15.5q21 0 36 -15.5t15 -37.5z" />
    <glyph glyph-name="Eogonek" unicode="&#x118;" 
d="M561 -134q0 -21 -27.5 -36.5t-56.5 -15.5q-39 0 -65.5 22t-26.5 66q0 57 51 98h-296q-27 0 -46 19t-19 46v537q0 27 19 46t46 19h344q18 0 30.5 -13t12.5 -32q0 -17 -12.5 -30t-30.5 -13h-310v-195h303q18 0 30.5 -13t12.5 -32q0 -17 -12.5 -30t-30.5 -13h-303v-208h310
q18 0 30.5 -13t12.5 -30q0 -25 -44 -58q-48 -36 -48 -82q0 -48 42 -48q26 0 44 23q5 8 17 8q9 0 16 -6.5t7 -15.5z" />
    <glyph glyph-name="eogonek" unicode="&#x119;" horiz-adv-x="560" 
d="M518 261q0 -20 -13.5 -34t-33.5 -14h-335q5 -65 49.5 -109t115.5 -44q66 0 120 40q10 5 20 5q13 0 24.5 -10t11.5 -26q0 -40 -97 -69q-74 -36 -74 -95q0 -48 43 -48q25 0 43 23q6 8 17 8q9 0 16 -6.5t7 -15.5q0 -21 -27 -36.5t-56 -15.5q-40 0 -66 22t-26 66q0 46 33 86
q-108 1 -177.5 71t-69.5 183q0 106 68.5 179.5t172.5 73.5q100 0 162.5 -65t71.5 -169zM432 276q-2 56 -40 101.5t-109 45.5q-67 0 -105.5 -45t-41.5 -102h296z" />
    <glyph glyph-name="Ecaron" unicode="&#x11a;" 
d="M527 45q0 -19 -12.5 -32t-30.5 -13h-344q-27 0 -46 19t-19 46v537q0 27 19 46t46 19h344q18 0 30.5 -13t12.5 -32q0 -17 -12.5 -30t-30.5 -13h-310v-195h303q18 0 30.5 -13t12.5 -32q0 -17 -12.5 -30t-30.5 -13h-303v-208h310q18 0 30.5 -13t12.5 -30zM423 849
q0 -8 -4 -12l-61 -89q-20 -31 -58 -31q-37 0 -57 31l-58 89q-4 4 -4 12t7 16t18 8q10 0 19 -9l76 -99l78 99q7 9 18 9q10 0 18 -7t8 -17z" />
    <glyph glyph-name="ecaron" unicode="&#x11b;" horiz-adv-x="560" 
d="M518 258q0 -18 -13.5 -31.5t-32.5 -13.5h-336q5 -65 49.5 -109t115.5 -44q66 0 120 40q10 5 20 5q13 0 24.5 -10t11.5 -26q0 -36 -64 -58.5t-121 -22.5q-109 0 -179 70.5t-70 183.5q0 106 68.5 179.5t172.5 73.5q86 0 144.5 -49t80.5 -132q9 -36 9 -56zM432 276
q-2 56 -40 101.5t-109 45.5q-67 0 -105.5 -45t-41.5 -102h296zM408 682q0 -8 -4 -12l-61 -89q-20 -31 -58 -31q-37 0 -57 31l-58 89q-4 4 -4 12t7 16t18 8q10 0 19 -9l76 -99l78 99q8 9 18 9t18 -7t8 -17z" />
    <glyph glyph-name="uni0122" unicode="&#x122;" horiz-adv-x="715" 
d="M661 158q0 -76 -84 -123.5t-184 -47.5q-147 0 -247 96.5t-100 249.5t100 249t247 96q140 0 231 -93q12 -11 12 -32q0 -19 -13 -32.5t-32 -13.5t-33 15q-66 68 -165 68q-105 0 -174.5 -72.5t-69.5 -184.5t69.5 -185t174.5 -73q51 0 96 20t73 47v121h-178q-18 0 -30.5 12.5
t-12.5 31.5q0 18 12.5 30.5t30.5 12.5h211q27 0 46.5 -19t19.5 -46v-127zM451 -138q0 -71 -59 -125q-7 -7 -17 -7t-16 6l-1 1q-7 7 -7 14t6 12q39 41 43 73q-2 -2 -12 -2q-19 0 -32 13.5t-13 33.5q0 22 14.5 37t35.5 15q24 0 41 -19t17 -52z" />
    <glyph glyph-name="uni0123" unicode="&#x123;" horiz-adv-x="577" 
d="M288 547q-21 0 -36.5 16t-15.5 48q0 42 22.5 89.5t48.5 47.5q9 0 16.5 -6t7.5 -16q0 -7 -22 -35.5t-22 -44.5q21 0 37 -14t16 -34q0 -21 -15 -36t-37 -15zM505 19q0 -60 -20 -103.5t-55 -67t-75.5 -34t-87.5 -10.5q-62 0 -127.5 21t-65.5 63q0 16 11.5 27t26.5 11
q13 0 23 -7q50 -42 132 -42q63 0 106 33.5t43 105.5v64q-62 -84 -159 -84q-95 0 -154.5 66.5t-59.5 182.5q0 115 59.5 182.5t154.5 67.5q97 0 159 -82v33q0 17 13.5 30t32.5 13q17 0 30 -13t13 -30v-427zM416 148v196q-19 30 -57 51t-78 21q-67 0 -106.5 -47t-39.5 -124
q0 -75 39.5 -122.5t106.5 -47.5q40 0 77.5 21.5t57.5 51.5z" />
    <glyph glyph-name="Imacron" unicode="&#x12a;" horiz-adv-x="248" 
d="M174 43q0 -20 -14.5 -34.5t-35.5 -14.5q-20 0 -34.5 14.5t-14.5 34.5v582q0 20 14.5 34t36.5 14q20 0 34 -14.5t14 -33.5v-582zM308 765q0 -13 -7.5 -21t-18.5 -8h-311q-11 0 -18.5 8t-7.5 21q0 11 7.5 18.5t18.5 7.5h311q10 0 18 -7.5t8 -18.5z" />
    <glyph glyph-name="imacron" unicode="&#x12b;" horiz-adv-x="233" 
d="M299 598q0 -13 -7.5 -21t-18.5 -8h-311q-11 0 -18.5 8t-7.5 21q0 10 8 18t18 8h311q11 0 18.5 -8t7.5 -18zM161 38q0 -18 -13 -31t-32 -13q-18 0 -31 13t-13 31v408q0 17 13.5 30t32.5 13q17 0 30 -13t13 -30v-408z" />
    <glyph glyph-name="Iogonek" unicode="&#x12e;" horiz-adv-x="248" 
d="M225 -134q0 -21 -27.5 -36.5t-56.5 -15.5q-39 0 -65.5 22t-26.5 66q0 54 52 98q-26 13 -26 43v582q0 20 14.5 34t36.5 14q20 0 34 -14.5t14 -33.5v-582q0 -21 -15 -38l-10 -10t-9.5 -10t-8 -9t-8.5 -9.5t-6.5 -8.5t-6 -9.5t-4.5 -9.5t-4 -11t-2 -11t-1 -12q0 -48 42 -48
q26 0 44 23q5 8 17 8q9 0 16 -6.5t7 -15.5z" />
    <glyph glyph-name="iogonek" unicode="&#x12f;" horiz-adv-x="233" 
d="M116 662q24 0 40.5 -17t16.5 -41q0 -23 -16.5 -40t-40.5 -17q-23 0 -40 17t-17 40q0 24 17 41t40 17zM212 -134q0 -21 -27.5 -36.5t-56.5 -15.5q-39 0 -65 22t-26 66q0 58 54 101q-19 11 -19 35v408q0 17 13.5 30t32.5 13q17 0 30 -13t13 -30v-408q0 -21 -37.5 -62.5
t-37.5 -70.5q0 -48 42 -48q17 0 34 15.5t27 15.5q9 0 16 -6.5t7 -15.5z" />
    <glyph glyph-name="dotlessi" unicode="&#x131;" horiz-adv-x="233" 
d="M161 38q0 -18 -13 -31t-32 -13q-18 0 -31 13t-13 31v408q0 17 13.5 30t32.5 13q17 0 30 -13t13 -30v-408z" />
    <glyph glyph-name="uni0136" unicode="&#x136;" horiz-adv-x="617" 
d="M551 41q0 -18 -14 -33t-34 -15q-22 0 -37 18l-229 280l-63 -72v-176q0 -20 -14.5 -34.5t-35.5 -14.5q-20 0 -34.5 14.5t-14.5 34.5v582q0 20 14.5 34t36.5 14q20 0 34 -14.5t14 -33.5v-290l269 321q13 16 35 16q20 0 34.5 -13.5t14.5 -32.5q0 -17 -11 -28l-215 -247
l239 -282q11 -13 11 -28zM369 -138q0 -71 -59 -125q-7 -7 -17 -7t-16 6l-1 1q-7 7 -7 14t6 12q39 41 43 73q-2 -2 -12 -2q-19 0 -32 13.5t-13 33.5q0 22 14.5 37t35.5 15q24 0 41 -19t17 -52z" />
    <glyph glyph-name="uni0137" unicode="&#x137;" horiz-adv-x="520" 
d="M467 38q0 -17 -12.5 -31t-31.5 -14q-23 0 -35 18l-153 198l-74 -75v-96q0 -18 -13 -31t-32 -13q-18 0 -31 13t-13 31v592q0 17 13.5 30t32.5 13q17 0 30 -13t13 -30v-393l228 240q13 13 29 13t29 -13t13 -29q0 -14 -11 -27l-150 -157l159 -200q9 -10 9 -26zM321 -138
q0 -71 -59 -125q-7 -7 -17 -7t-16 6l-1 1q-7 7 -7 14t6 12q39 41 43 73q-2 -2 -12 -2q-19 0 -32 13.5t-13 33.5q0 22 14.5 37t35.5 15q24 0 41 -19t17 -52z" />
    <glyph glyph-name="Lacute" unicode="&#x139;" horiz-adv-x="513" 
d="M482 45q0 -19 -12.5 -32t-30.5 -13h-299q-27 0 -46 19t-19 46v560q0 20 14.5 34t36.5 14q20 0 34 -14.5t14 -33.5v-537h265q18 0 30.5 -13t12.5 -30zM408 844q0 -11 -9 -20l-118 -101q-6 -6 -14 -6q-9 0 -16.5 7t-7.5 17t6 16l108 107q8 8 21 8q11 0 20.5 -8t9.5 -20z
" />
    <glyph glyph-name="lacute" unicode="&#x13a;" horiz-adv-x="233" 
d="M161 38q0 -18 -13 -31t-32 -13q-18 0 -31 13t-13 31v592q0 17 13.5 30t32.5 13q17 0 30 -13t13 -30v-592zM250 844q0 -11 -9 -20l-118 -101q-6 -6 -14 -6q-9 0 -16.5 7t-7.5 17t6 16l108 107q8 8 21 8q11 0 20.5 -8t9.5 -20z" />
    <glyph glyph-name="uni013B" unicode="&#x13b;" horiz-adv-x="513" 
d="M482 45q0 -19 -12.5 -32t-30.5 -13h-299q-27 0 -46 19t-19 46v560q0 20 14.5 34t36.5 14q20 0 34 -14.5t14 -33.5v-537h265q18 0 30.5 -13t12.5 -30zM322 -138q0 -71 -59 -125q-7 -7 -17 -7t-16 6l-1 1q-7 7 -7 14t6 12q39 41 43 73q-2 -2 -12 -2q-19 0 -32 13.5
t-13 33.5q0 22 14.5 37t35.5 15q24 0 41 -19t17 -52z" />
    <glyph glyph-name="uni013C" unicode="&#x13c;" horiz-adv-x="233" 
d="M161 38q0 -18 -13 -31t-32 -13q-18 0 -31 13t-13 31v592q0 17 13.5 30t32.5 13q17 0 30 -13t13 -30v-592zM177 -138q0 -71 -59 -125q-7 -7 -17 -7t-16 6l-1 1q-7 7 -7 14t6 12q39 41 43 73q-2 -2 -12 -2q-19 0 -32 13.5t-13 33.5q0 22 14.5 37t35.5 15q24 0 41 -19
t17 -52z" />
    <glyph glyph-name="Lcaron" unicode="&#x13d;" horiz-adv-x="513" 
d="M482 45q0 -19 -12.5 -32t-30.5 -13h-299q-27 0 -46 19t-19 46v560q0 20 14.5 34t36.5 14q20 0 34 -14.5t14 -33.5v-537h265q18 0 30.5 -13t12.5 -30zM372 609q0 -71 -59 -125q-7 -7 -17 -7t-16 6l-1 1q-7 7 -7 14q0 8 6 12q39 41 43 73q-2 -2 -12 -2q-19 0 -32 13.5
t-13 33.5q0 22 14.5 37t35.5 15q24 0 41 -19t17 -52z" />
    <glyph glyph-name="lcaron" unicode="&#x13e;" horiz-adv-x="308" 
d="M161 38q0 -18 -13 -31t-32 -13q-18 0 -31 13t-13 31v592q0 17 13.5 30t32.5 13q17 0 30 -13t13 -30v-592zM328 609q0 -71 -59 -125q-7 -7 -17 -7t-16 6l-1 1q-7 7 -7 14q0 8 6 12q39 41 43 73q-2 -2 -12 -2q-19 0 -32 13.5t-13 33.5q0 22 14.5 37t35.5 15q24 0 41 -19
t17 -52z" />
    <glyph glyph-name="Lslash" unicode="&#x141;" horiz-adv-x="531" 
d="M500 43q0 -18 -12.5 -30.5t-30.5 -12.5h-299q-27 0 -46.5 19t-19.5 46v196l-39 -23q-7 -4 -16 -4q-14 0 -25.5 10.5t-11.5 26.5q0 21 17 30l75 44v280q0 20 14.5 34t36.5 14q20 0 34 -14t14 -34v-223l48 27q8 4 16 4q14 0 26 -10t12 -26q0 -20 -18 -31l-84 -48v-230h266
q18 0 30.5 -13t12.5 -32z" />
    <glyph glyph-name="lslash" unicode="&#x142;" horiz-adv-x="293" 
d="M292 400q0 -17 -14 -25l-87 -50v-287q0 -18 -13 -31t-32 -13q-18 0 -31 13t-13 31v236l-59 -33q-4 -4 -13 -4q-11 0 -20 8.5t-9 21.5q0 18 14 25l87 51v287q0 17 13.5 30t32.5 13q17 0 30 -13t13 -30v-236l57 33q6 3 14 3q11 0 20.5 -8.5t9.5 -21.5z" />
    <glyph glyph-name="Nacute" unicode="&#x143;" horiz-adv-x="714" 
d="M639 51q0 -23 -17.5 -40t-42.5 -17q-32 0 -49 25l-356 487v-463q0 -20 -14.5 -34.5t-35.5 -14.5q-20 0 -34.5 14.5t-14.5 34.5v569q0 25 18.5 43t45.5 18q34 0 53 -27l348 -473v452q0 20 14.5 34t36.5 14q19 0 33.5 -14.5t14.5 -33.5v-574zM496 844q0 -11 -9 -20
l-118 -101q-6 -6 -14 -6q-9 0 -16.5 7t-7.5 17t6 16l108 107q8 8 21 8q11 0 20.5 -8t9.5 -20z" />
    <glyph glyph-name="nacute" unicode="&#x144;" horiz-adv-x="559" 
d="M487 38q0 -18 -13 -31t-32 -13q-18 0 -31 13t-13 31v272q0 106 -103 106q-41 0 -77 -20.5t-57 -50.5v-307q0 -18 -13 -31t-32 -13q-18 0 -31 13t-13 31v408q0 17 13.5 30t32.5 13q17 0 30 -13t13 -30v-31q28 33 73.5 56.5t97.5 23.5q155 0 155 -155v-302zM412 677
q0 -11 -9 -20l-118 -101q-6 -6 -14 -6q-9 0 -16.5 7t-7.5 17t6 16l108 107q8 8 21 8q11 0 20.5 -8t9.5 -20z" />
    <glyph glyph-name="uni0145" unicode="&#x145;" horiz-adv-x="714" 
d="M639 51q0 -23 -17.5 -40t-42.5 -17q-32 0 -49 25l-356 487v-463q0 -20 -14.5 -34.5t-35.5 -14.5q-20 0 -34.5 14.5t-14.5 34.5v569q0 25 18.5 43t45.5 18q34 0 53 -27l348 -473v452q0 20 14.5 34t36.5 14q19 0 33.5 -14.5t14.5 -33.5v-574zM418 -138q0 -71 -59 -125
q-7 -7 -17 -7t-16 6l-1 1q-7 7 -7 14t6 12q39 41 43 73q-2 -2 -12 -2q-19 0 -32 13.5t-13 33.5q0 22 14.5 37t35.5 15q24 0 41 -19t17 -52z" />
    <glyph glyph-name="uni0146" unicode="&#x146;" horiz-adv-x="559" 
d="M487 38q0 -18 -13 -31t-32 -13q-18 0 -31 13t-13 31v272q0 106 -103 106q-41 0 -77 -20.5t-57 -50.5v-307q0 -18 -13 -31t-32 -13q-18 0 -31 13t-13 31v408q0 17 13.5 30t32.5 13q17 0 30 -13t13 -30v-31q28 33 73.5 56.5t97.5 23.5q155 0 155 -155v-302zM337 -138
q0 -71 -59 -125q-7 -7 -17 -7t-16 6l-1 1q-7 7 -7 14t6 12q39 41 43 73q-2 -2 -12 -2q-19 0 -32 13.5t-13 33.5q0 22 14.5 37t35.5 15q24 0 41 -19t17 -52z" />
    <glyph glyph-name="Ncaron" unicode="&#x147;" horiz-adv-x="714" 
d="M639 51q0 -23 -17.5 -40t-42.5 -17q-32 0 -49 25l-356 487v-463q0 -20 -14.5 -34.5t-35.5 -14.5q-20 0 -34.5 14.5t-14.5 34.5v569q0 25 18.5 43t45.5 18q34 0 53 -27l348 -473v452q0 20 14.5 34t36.5 14q19 0 33.5 -14.5t14.5 -33.5v-574zM479 849q0 -8 -4 -12l-61 -89
q-20 -31 -58 -31q-37 0 -57 31l-58 89q-4 4 -4 12t7 16t18 8q10 0 19 -9l76 -99l78 99q7 9 18 9q10 0 18 -7t8 -17z" />
    <glyph glyph-name="ncaron" unicode="&#x148;" horiz-adv-x="559" 
d="M487 38q0 -18 -13 -31t-32 -13q-18 0 -31 13t-13 31v272q0 106 -103 106q-41 0 -77 -20.5t-57 -50.5v-307q0 -18 -13 -31t-32 -13q-18 0 -31 13t-13 31v408q0 17 13.5 30t32.5 13q17 0 30 -13t13 -30v-31q28 33 73.5 56.5t97.5 23.5q155 0 155 -155v-302zM404 682
q0 -8 -4 -12l-61 -89q-20 -31 -58 -31q-37 0 -57 31l-58 89q-4 4 -4 12t7 16t18 8q10 0 19 -9l76 -99l78 99q8 9 18 9t18 -7t8 -17z" />
    <glyph glyph-name="Omacron" unicode="&#x14c;" horiz-adv-x="765" 
d="M718 333q0 -149 -94 -247t-242 -98t-242 97.5t-94 247.5t94 247.5t242 97.5t242 -98t94 -247zM616 333q0 112 -64.5 184.5t-169.5 72.5q-106 0 -169.5 -72t-63.5 -185q0 -112 63.5 -184.5t169.5 -72.5q105 0 169.5 72.5t64.5 184.5zM563 765q0 -13 -7.5 -21t-18.5 -8
h-311q-11 0 -18.5 8t-7.5 21q0 11 8 18.5t18 7.5h311q11 0 18.5 -7.5t7.5 -18.5z" />
    <glyph glyph-name="omacron" unicode="&#x14d;" 
d="M530 242q0 -108 -67 -181t-177 -73t-176.5 73.5t-66.5 180.5t66.5 180t176.5 73t177 -73t67 -180zM437 242q0 73 -40.5 123.5t-110.5 50.5q-69 0 -110 -51t-41 -123q0 -73 41 -124t110 -51q70 0 110.5 51t40.5 124zM468 598q0 -13 -7.5 -21t-18.5 -8h-311q-11 0 -18.5 8
t-7.5 21q0 10 7.5 18t18.5 8h311q10 0 18 -8t8 -18z" />
    <glyph glyph-name="Ohungarumlaut" unicode="&#x150;" horiz-adv-x="765" 
d="M718 333q0 -149 -94 -247t-242 -98t-242 97.5t-94 247.5t94 247.5t242 97.5t242 -98t94 -247zM616 333q0 112 -64.5 184.5t-169.5 72.5q-106 0 -169.5 -72t-63.5 -185q0 -112 63.5 -184.5t169.5 -72.5q105 0 169.5 72.5t64.5 184.5zM412 843q0 -9 -5 -17l-82 -101
q-5 -9 -17 -9q-9 0 -17 7t-8 16q0 7 4 12l69 108q9 14 25 14q14 0 22.5 -9.5t8.5 -20.5zM556 843q0 -9 -5 -17l-81 -101q-8 -9 -18 -9t-17.5 6.5t-7.5 16.5q0 7 4 12l69 108q8 14 25 14q14 0 22.5 -9.5t8.5 -20.5z" />
    <glyph glyph-name="ohungarumlaut" unicode="&#x151;" 
d="M530 242q0 -108 -67 -181t-177 -73t-176.5 73.5t-66.5 180.5t66.5 180t176.5 73t177 -73t67 -180zM437 242q0 73 -40.5 123.5t-110.5 50.5q-69 0 -110 -51t-41 -123q0 -73 41 -124t110 -51q70 0 110.5 51t40.5 124zM316 676q0 -9 -5 -17l-82 -101q-5 -9 -17 -9
q-9 0 -17 7t-8 16q0 7 4 12l69 108q9 14 25 14q14 0 22.5 -9.5t8.5 -20.5zM460 676q0 -9 -5 -17l-81 -101q-8 -9 -18 -9t-17.5 6.5t-7.5 16.5q0 7 4 12l69 108q8 14 25 14q14 0 22.5 -9.5t8.5 -20.5z" />
    <glyph glyph-name="OE" unicode="&#x152;" horiz-adv-x="1099" 
d="M1054 45q0 -19 -12.5 -32t-29.5 -13h-346q-72 0 -65 109q-35 -58 -97 -89.5t-131 -31.5q-144 0 -235.5 97.5t-91.5 247.5t91.5 247t235.5 97q69 0 131 -31t97 -88q-8 109 65 109h346q17 0 29.5 -13t12.5 -32q0 -17 -12.5 -30t-29.5 -13h-312v-195h305q17 0 29.5 -13
t12.5 -32q0 -17 -12.5 -30t-29.5 -13h-305v-208h312q17 0 29.5 -13t12.5 -30zM601 225v216q-27 73 -84 110.5t-132 37.5q-108 0 -172 -71.5t-64 -184.5q0 -112 64 -184.5t172 -72.5q74 0 131.5 38.5t84.5 110.5z" />
    <glyph glyph-name="oe" unicode="&#x153;" horiz-adv-x="954" 
d="M910 259q0 -19 -13.5 -32.5t-32.5 -13.5h-333q6 -65 49.5 -109t114.5 -44q66 0 120 40q10 5 20 5q13 0 24.5 -10t11.5 -26q0 -15 -10 -25q-65 -56 -174 -56q-140 0 -205 130q-66 -130 -196 -130q-110 0 -176.5 73.5t-66.5 180.5t66.5 180t176.5 73q132 0 197 -130
q24 50 72.5 90t122.5 40q85 0 144 -48.5t80 -132.5q8 -32 8 -55zM826 276q-2 56 -40 101.5t-109 45.5q-67 0 -105.5 -45t-41.5 -102h296zM437 242q0 74 -41 124t-110 50q-68 0 -109.5 -50t-41.5 -124q0 -75 41.5 -125.5t109.5 -50.5q69 0 110 50.5t41 125.5z" />
    <glyph glyph-name="Racute" unicode="&#x154;" horiz-adv-x="617" 
d="M568 462q0 -84 -48 -135t-118 -60l129 -200q7 -13 7 -25q0 -19 -14 -33.5t-35 -14.5q-26 0 -40 23l-150 240h-125v-214q0 -20 -14.5 -34.5t-35.5 -14.5q-20 0 -34.5 14.5t-14.5 34.5v559q0 27 19 46t46 19h215q95 0 154 -56t59 -149zM342 579h-168v-235h168q55 0 89.5 33
t34.5 85t-34.5 84.5t-89.5 32.5zM449 844q0 -11 -9 -20l-118 -101q-6 -6 -14 -6q-9 0 -16.5 7t-7.5 17t6 16l108 107q8 8 21 8q11 0 20.5 -8t9.5 -20z" />
    <glyph glyph-name="racute" unicode="&#x155;" horiz-adv-x="338" 
d="M326 450q0 -19 -13 -32t-32 -15q-79 -7 -120 -67v-298q0 -18 -13 -31t-32 -13h-1q-18 1 -30.5 13.5t-12.5 30.5v408q0 17 13.5 30t32.5 13q17 0 30 -13t13 -30v-38q60 82 125 82q17 0 28.5 -11.5t11.5 -28.5zM329 677q0 -11 -9 -20l-118 -101q-6 -6 -14 -6q-9 0 -16.5 7
t-7.5 17t6 16l108 107q8 8 21 8q11 0 20.5 -8t9.5 -20z" />
    <glyph glyph-name="uni0156" unicode="&#x156;" horiz-adv-x="617" 
d="M568 462q0 -84 -48 -135t-118 -60l129 -200q7 -13 7 -25q0 -19 -14 -33.5t-35 -14.5q-26 0 -40 23l-150 240h-125v-214q0 -20 -14.5 -34.5t-35.5 -14.5q-20 0 -34.5 14.5t-14.5 34.5v559q0 27 19 46t46 19h215q95 0 154 -56t59 -149zM342 579h-168v-235h168q55 0 89.5 33
t34.5 85t-34.5 84.5t-89.5 32.5zM371 -138q0 -71 -59 -125q-7 -7 -17 -7t-16 6l-1 1q-7 7 -7 14t6 12q39 41 43 73q-2 -2 -12 -2q-19 0 -32 13.5t-13 33.5q0 22 14.5 37t35.5 15q24 0 41 -19t17 -52z" />
    <glyph glyph-name="uni0157" unicode="&#x157;" horiz-adv-x="338" 
d="M326 450q0 -19 -13 -32t-32 -15q-79 -7 -120 -67v-298q0 -18 -13 -31t-32 -13h-1q-18 1 -30.5 13.5t-12.5 30.5v408q0 17 13.5 30t32.5 13q17 0 30 -13t13 -30v-38q60 82 125 82q17 0 28.5 -11.5t11.5 -28.5zM229 -138q0 -71 -59 -125q-7 -7 -17 -7t-16 6l-1 1
q-7 7 -7 14t6 12q39 41 43 73q-2 -2 -12 -2q-19 0 -32 13.5t-13 33.5q0 22 14.5 37t35.5 15q24 0 41 -19t17 -52z" />
    <glyph glyph-name="Rcaron" unicode="&#x158;" horiz-adv-x="617" 
d="M568 462q0 -84 -48 -135t-118 -60l129 -200q7 -13 7 -25q0 -19 -14 -33.5t-35 -14.5q-26 0 -40 23l-150 240h-125v-214q0 -20 -14.5 -34.5t-35.5 -14.5q-20 0 -34.5 14.5t-14.5 34.5v559q0 27 19 46t46 19h215q95 0 154 -56t59 -149zM342 579h-168v-235h168q55 0 89.5 33
t34.5 85t-34.5 84.5t-89.5 32.5zM434 849q0 -8 -4 -12l-61 -89q-20 -31 -58 -31q-37 0 -57 31l-58 89q-4 4 -4 12t7 16t18 8q10 0 19 -9l76 -99l78 99q8 9 18 9t18 -7t8 -17z" />
    <glyph glyph-name="rcaron" unicode="&#x159;" horiz-adv-x="338" 
d="M326 450q0 -19 -13 -32t-32 -15q-79 -7 -120 -67v-298q0 -18 -13 -31t-32 -13h-1q-18 1 -30.5 13.5t-12.5 30.5v408q0 17 13.5 30t32.5 13q17 0 30 -13t13 -30v-38q60 82 125 82q17 0 28.5 -11.5t11.5 -28.5zM318 682q0 -8 -4 -12l-61 -89q-20 -31 -58 -31q-37 0 -57 31
l-58 89q-4 4 -4 12t7 16t18 8q10 0 19 -9l76 -99l78 99q8 9 18 9t18 -7t8 -17z" />
    <glyph glyph-name="Sacute" unicode="&#x15a;" horiz-adv-x="590" 
d="M548 189q0 -86 -62.5 -143.5t-189.5 -57.5q-73 0 -136 22.5t-103 61.5q-12 14 -12 31q0 19 13 34t33 15q16 0 28 -9q80 -68 181 -68q74 0 110 31.5t36 72.5q0 43 -40.5 68.5t-98 39.5t-115 32t-98 59.5t-40.5 108.5q0 83 66.5 136.5t169.5 53.5q63 0 122 -19t96 -53
q13 -12 13 -31t-14 -32.5t-33 -13.5q-15 0 -27 9q-72 53 -165 53q-56 0 -91 -26.5t-35 -69.5q0 -32 29 -53.5t72.5 -31.5t94.5 -26t94.5 -35t72.5 -60t29 -99zM426 844q0 -11 -9 -20l-118 -101q-6 -6 -14 -6q-9 0 -16.5 7t-7.5 17t6 16l108 107q8 8 21 8q11 0 20.5 -8
t9.5 -20z" />
    <glyph glyph-name="sacute" unicode="&#x15b;" horiz-adv-x="468" 
d="M426 136q0 -64 -51.5 -106t-144.5 -42q-120 0 -183 63q-11 9 -11 24q0 16 11.5 26.5t27.5 10.5q13 0 23 -7q64 -46 136 -46q50 0 77.5 20.5t27.5 54.5q0 29 -30.5 45.5t-73.5 26t-86.5 22t-74 44t-30.5 81.5q0 60 49.5 101t134.5 41q108 0 168 -58q9 -9 9 -22
q0 -15 -10.5 -25t-24.5 -10q-13 0 -21 7q-52 37 -120 37q-45 0 -72 -19t-27 -49q0 -26 30.5 -41t74 -24t87 -22.5t74 -46.5t30.5 -86zM364 677q0 -11 -9 -20l-118 -101q-6 -6 -14 -6q-9 0 -16.5 7t-7.5 17t6 16l108 107q8 8 21 8q11 0 20.5 -8t9.5 -20z" />
    <glyph glyph-name="Scedilla" unicode="&#x15e;" horiz-adv-x="590" 
d="M548 189q0 -84 -59.5 -140.5t-180.5 -60.5l-16 -42q16 11 36 11q29 0 48 -19t19 -49q0 -37 -30.5 -59t-75.5 -22q-36 0 -69 11t-33 31q0 9 7 15.5t16 6.5q6 0 9 -2q30 -19 67 -19q25 0 42 10.5t17 28.5q0 33 -35 33q-9 0 -23.5 -7.5t-21.5 -7.5q-10 0 -17 7.5t-7 16.5
q0 6 1 8l18 49q-129 11 -203 83q-12 14 -12 31q0 19 13 34t33 15q16 0 28 -9q80 -68 181 -68q74 0 110 31.5t36 72.5q0 43 -40.5 68.5t-98 39.5t-115 32t-98 59.5t-40.5 108.5q0 83 66.5 136.5t169.5 53.5q63 0 122 -19t96 -53q13 -12 13 -31t-14 -32.5t-33 -13.5
q-15 0 -27 9q-72 53 -165 53q-56 0 -91 -26.5t-35 -69.5q0 -32 29 -53.5t72.5 -31.5t94.5 -26t94.5 -35t72.5 -60t29 -99z" />
    <glyph glyph-name="scedilla" unicode="&#x15f;" horiz-adv-x="468" 
d="M426 136q0 -61 -46.5 -102t-130.5 -45l-17 -43q16 11 37 11q29 0 47.5 -19t18.5 -49q0 -37 -30.5 -59t-75.5 -22q-36 0 -68.5 11t-32.5 31q0 9 6.5 15.5t15.5 6.5q6 0 9 -2q31 -19 68 -19q24 0 41 10.5t17 28.5q0 33 -34 33q-9 0 -23.5 -7.5t-21.5 -7.5q-11 0 -18 7.5
t-7 16.5q0 4 2 8l18 49q-100 9 -155 62q-10 10 -10 24q0 16 11.5 26.5t27.5 10.5q13 0 23 -7q64 -46 136 -46q50 0 77.5 20.5t27.5 54.5q0 29 -30.5 45.5t-73.5 26t-86.5 22t-74 44t-30.5 81.5q0 60 49.5 101t134.5 41q108 0 168 -58q9 -9 9 -22q0 -15 -10.5 -25t-24.5 -10
q-13 0 -21 7q-52 37 -120 37q-45 0 -72 -19t-27 -49q0 -26 30.5 -41t74 -24t87 -22.5t74 -46.5t30.5 -86z" />
    <glyph glyph-name="Scaron" unicode="&#x160;" horiz-adv-x="590" 
d="M548 189q0 -86 -62.5 -143.5t-189.5 -57.5q-73 0 -136 22.5t-103 61.5q-12 14 -12 31q0 19 13 34t33 15q16 0 28 -9q80 -68 181 -68q74 0 110 31.5t36 72.5q0 43 -40.5 68.5t-98 39.5t-115 32t-98 59.5t-40.5 108.5q0 83 66.5 136.5t169.5 53.5q63 0 122 -19t96 -53
q13 -12 13 -31t-14 -32.5t-33 -13.5q-15 0 -27 9q-72 53 -165 53q-56 0 -91 -26.5t-35 -69.5q0 -32 29 -53.5t72.5 -31.5t94.5 -26t94.5 -35t72.5 -60t29 -99zM411 849q0 -8 -4 -12l-61 -89q-20 -31 -58 -31q-37 0 -57 31l-58 89q-4 4 -4 12t7 16t18 8q10 0 19 -9l76 -99
l78 99q7 9 18 9q10 0 18 -7t8 -17z" />
    <glyph glyph-name="scaron" unicode="&#x161;" horiz-adv-x="468" 
d="M426 136q0 -64 -51.5 -106t-144.5 -42q-120 0 -183 63q-11 9 -11 24q0 16 11.5 26.5t27.5 10.5q13 0 23 -7q64 -46 136 -46q50 0 77.5 20.5t27.5 54.5q0 29 -30.5 45.5t-73.5 26t-86.5 22t-74 44t-30.5 81.5q0 60 49.5 101t134.5 41q108 0 168 -58q9 -9 9 -22
q0 -15 -10.5 -25t-24.5 -10q-13 0 -21 7q-52 37 -120 37q-45 0 -72 -19t-27 -49q0 -26 30.5 -41t74 -24t87 -22.5t74 -46.5t30.5 -86zM355 682q0 -8 -4 -12l-61 -89q-20 -31 -58 -31q-37 0 -57 31l-58 89q-4 4 -4 12t7 16t18 8q10 0 19 -9l76 -99l78 99q7 9 18 9q10 0 18 -7
t8 -17z" />
    <glyph glyph-name="uni0162" unicode="&#x162;" 
d="M549 622q0 -17 -12.5 -30t-30.5 -13h-170v-536q0 -20 -14.5 -34.5t-35.5 -14.5q-20 0 -34.5 14.5t-14.5 34.5v536h-170q-18 0 -30.5 13t-12.5 32q0 18 12.5 30.5t30.5 12.5h439q18 0 30.5 -13t12.5 -32zM347 -138q0 -71 -59 -125q-7 -7 -17 -7t-16 6l-1 1q-7 7 -7 14
t6 12q39 41 43 73q-2 -2 -12 -2q-19 0 -32 13.5t-13 33.5q0 22 14.5 37t35.5 15q24 0 41 -19t17 -52z" />
    <glyph glyph-name="uni0163" unicode="&#x163;" horiz-adv-x="306" 
d="M297 35q0 -47 -92 -47q-57 0 -86.5 30.5t-29.5 87.5v299h-47q-17 0 -28 11.5t-11 28.5q0 16 11.5 27t27.5 11h47v95q0 17 13.5 30t32.5 13q18 0 31 -13t13 -30v-95h66q16 0 27 -11.5t11 -28.5q0 -16 -11 -27t-27 -11h-66v-278q0 -28 12.5 -44t34.5 -16q6 0 17 2.5t16 2.5
q16 0 27 -10.5t11 -26.5zM213 -138q0 -71 -59 -125q-7 -7 -17 -7t-16 6l-1 1q-7 7 -7 14t6 12q39 41 43 73q-2 -2 -12 -2q-19 0 -32 13.5t-13 33.5q0 22 14.5 37t35.5 15q24 0 41 -19t17 -52z" />
    <glyph glyph-name="Tcaron" unicode="&#x164;" 
d="M549 622q0 -17 -12.5 -30t-30.5 -13h-170v-536q0 -20 -14.5 -34.5t-35.5 -14.5q-20 0 -34.5 14.5t-14.5 34.5v536h-170q-18 0 -30.5 13t-12.5 32q0 18 12.5 30.5t30.5 12.5h439q18 0 30.5 -13t12.5 -32zM410 849q0 -8 -4 -12l-61 -89q-20 -31 -58 -31q-37 0 -57 31
l-58 89q-4 4 -4 12t7 16t18 8q10 0 19 -9l76 -99l78 99q8 9 18 9t18 -7t8 -17z" />
    <glyph glyph-name="tcaron" unicode="&#x165;" horiz-adv-x="331" 
d="M297 35q0 -47 -92 -47q-57 0 -86.5 30.5t-29.5 87.5v299h-47q-17 0 -28 11.5t-11 28.5q0 16 11.5 27t27.5 11h47v95q0 17 13.5 30t32.5 13q18 0 31 -13t13 -30v-95h66q16 0 27 -11.5t11 -28.5q0 -16 -11 -27t-27 -11h-66v-278q0 -28 12.5 -44t34.5 -16q6 0 17 2.5t16 2.5
q16 0 27 -10.5t11 -26.5zM346 678q0 -71 -59 -125q-7 -7 -17 -7t-16 6l-1 1q-7 7 -7 14t6 12q39 41 43 73q-2 -2 -12 -2q-19 0 -32 13.5t-13 33.5q0 22 14.5 37t35.5 15q24 0 41 -19t17 -52z" />
    <glyph glyph-name="Umacron" unicode="&#x16a;" horiz-adv-x="709" 
d="M634 262q0 -128 -71.5 -201t-207.5 -73q-137 0 -208.5 73.5t-71.5 199.5v364q0 20 14.5 34t36.5 14q20 0 34 -14.5t14 -33.5v-361q0 -88 47 -138t134 -50t133.5 50t46.5 138v361q0 20 14.5 34t36.5 14q20 0 34 -14t14 -34v-363zM537 765q0 -13 -7.5 -21t-18.5 -8h-311
q-11 0 -18.5 8t-7.5 21q0 11 8 18.5t18 7.5h311q11 0 18.5 -7.5t7.5 -18.5z" />
    <glyph glyph-name="umacron" unicode="&#x16b;" horiz-adv-x="559" 
d="M487 38q0 -18 -13 -31t-32 -13q-18 0 -31 13t-13 31v28q-30 -34 -75 -56t-97 -22q-154 0 -154 153v305q0 17 13.5 30t32.5 13q17 0 30 -13t13 -30v-274q0 -57 26.5 -81t76.5 -24q40 0 76 20t58 49v310q0 17 13.5 30t32.5 13q17 0 30 -13t13 -30v-408zM460 598
q0 -13 -7.5 -21t-18.5 -8h-311q-11 0 -18.5 8t-7.5 21q0 10 7.5 18t18.5 8h311q10 0 18 -8t8 -18z" />
    <glyph glyph-name="Uring" unicode="&#x16e;" horiz-adv-x="709" 
d="M634 262q0 -128 -71.5 -201t-207.5 -73q-137 0 -208.5 73.5t-71.5 199.5v364q0 20 14.5 34t36.5 14q20 0 34 -14.5t14 -33.5v-361q0 -88 47 -138t134 -50t133.5 50t46.5 138v361q0 20 14.5 34t36.5 14q20 0 34 -14t14 -34v-363zM456 807q0 -41 -29.5 -70.5t-70.5 -29.5
t-70.5 29.5t-29.5 70.5t29.5 71t70.5 30t70.5 -30t29.5 -71zM411 807q0 23 -16 39t-39 16t-39 -16t-16 -39t16.5 -39.5t38.5 -16.5q23 0 39 16.5t16 39.5z" />
    <glyph glyph-name="uring" unicode="&#x16f;" horiz-adv-x="559" 
d="M487 38q0 -18 -13 -31t-32 -13q-18 0 -31 13t-13 31v28q-30 -34 -75 -56t-97 -22q-154 0 -154 153v305q0 17 13.5 30t32.5 13q17 0 30 -13t13 -30v-274q0 -57 26.5 -81t76.5 -24q40 0 76 20t58 49v310q0 17 13.5 30t32.5 13q17 0 30 -13t13 -30v-408zM380 640
q0 -41 -29.5 -70.5t-70.5 -29.5t-70.5 29.5t-29.5 70.5t29.5 71t70.5 30t70.5 -30t29.5 -71zM335 640q0 23 -16 39t-39 16t-39 -16t-16 -39t16.5 -39.5t38.5 -16.5q23 0 39 16.5t16 39.5z" />
    <glyph glyph-name="Uhungarumlaut" unicode="&#x170;" horiz-adv-x="709" 
d="M634 262q0 -128 -71.5 -201t-207.5 -73q-137 0 -208.5 73.5t-71.5 199.5v364q0 20 14.5 34t36.5 14q20 0 34 -14.5t14 -33.5v-361q0 -88 47 -138t134 -50t133.5 50t46.5 138v361q0 20 14.5 34t36.5 14q20 0 34 -14t14 -34v-363zM385 843q0 -9 -5 -17l-82 -101
q-4 -9 -17 -9q-9 0 -17 7t-8 16q0 7 4 12l69 108q9 14 25 14q14 0 22.5 -9.5t8.5 -20.5zM529 843q0 -9 -5 -17l-81 -101q-7 -9 -18 -9q-10 0 -17.5 6.5t-7.5 16.5q0 7 4 12l69 108q8 14 25 14q14 0 22.5 -9.5t8.5 -20.5z" />
    <glyph glyph-name="uhungarumlaut" unicode="&#x171;" horiz-adv-x="559" 
d="M487 38q0 -18 -13 -31t-32 -13q-18 0 -31 13t-13 31v28q-30 -34 -75 -56t-97 -22q-154 0 -154 153v305q0 17 13.5 30t32.5 13q17 0 30 -13t13 -30v-274q0 -57 26.5 -81t76.5 -24q40 0 76 20t58 49v310q0 17 13.5 30t32.5 13q17 0 30 -13t13 -30v-408zM309 676
q0 -9 -5 -17l-82 -101q-4 -9 -17 -9q-9 0 -17 7t-8 16q0 7 4 12l69 108q9 14 25 14q14 0 22.5 -9.5t8.5 -20.5zM453 676q0 -9 -5 -17l-81 -101q-7 -9 -18 -9q-10 0 -17.5 6.5t-7.5 16.5q0 7 4 12l69 108q8 14 25 14q14 0 22.5 -9.5t8.5 -20.5z" />
    <glyph glyph-name="Uogonek" unicode="&#x172;" horiz-adv-x="709" 
d="M634 262q0 -102 -45.5 -170t-134.5 -92q-75 -38 -75 -95q0 -48 42 -48q26 0 44 23q5 8 17 8q9 0 16 -6.5t7 -15.5q0 -21 -27.5 -36.5t-56.5 -15.5q-39 0 -65.5 22t-26.5 66q0 46 37 86q-143 -3 -217 70t-74 203v364q0 20 14.5 34t36.5 14q20 0 34 -14.5t14 -33.5v-361
q0 -88 47 -138t134 -50t133.5 50t46.5 138v361q0 20 14.5 34t36.5 14q20 0 34 -14t14 -34v-363z" />
    <glyph glyph-name="uogonek" unicode="&#x173;" horiz-adv-x="559" 
d="M530 -134q0 -21 -27.5 -36.5t-56.5 -15.5q-39 0 -65.5 22t-26.5 66q0 59 55 104q-11 13 -11 35v25q-30 -34 -75 -56t-97 -22q-154 0 -154 153v305q0 17 13.5 30t32.5 13q17 0 30 -13t13 -30v-274q0 -57 26.5 -81t76.5 -24q40 0 76 20t58 49v310q0 17 13.5 30t32.5 13
q17 0 30 -13t13 -30v-404q0 -18 -13 -35t-28.5 -29.5t-28.5 -32t-13 -40.5q0 -48 42 -48q17 0 34 15.5t27 15.5q9 0 16 -6.5t7 -15.5z" />
    <glyph glyph-name="Ydieresis" unicode="&#x178;" horiz-adv-x="631" 
d="M588 626q0 -14 -7 -25l-216 -321v-237q0 -21 -14.5 -35t-35.5 -14q-20 0 -34 14.5t-14 34.5v237l-217 322q-8 11 -8 24q0 18 13 32.5t34 14.5q26 0 41 -21l186 -284l185 283q13 21 39 21q20 0 34 -14t14 -32zM265 773q0 -22 -15 -37.5t-37 -15.5t-37 15.5t-15 37.5
q0 21 15 36.5t37 15.5t37 -15.5t15 -36.5zM473 773q0 -22 -15.5 -37.5t-36.5 -15.5t-37 15.5t-16 37.5q0 21 16 36.5t37 15.5t36.5 -15.5t15.5 -36.5z" />
    <glyph glyph-name="Zacute" unicode="&#x179;" horiz-adv-x="587" 
d="M546 45q0 -19 -12.5 -32t-30.5 -13h-410q-20 0 -36 16t-16 39q0 19 11 33l353 491h-322q-17 0 -30 13t-13 32q0 18 13 30.5t30 12.5h404q20 0 35.5 -16t15.5 -39q0 -18 -11 -34l-353 -490h329q18 0 30.5 -13t12.5 -30zM422 844q0 -11 -9 -20l-118 -101q-6 -6 -14 -6
q-9 0 -16.5 7t-7.5 17t6 16l108 107q8 8 21 8q11 0 20.5 -8t9.5 -20z" />
    <glyph glyph-name="zacute" unicode="&#x17a;" horiz-adv-x="474" 
d="M430 40q0 -17 -11 -28.5t-26 -11.5h-307q-17 0 -29.5 13t-12.5 32q0 16 10 29l248 331h-221q-16 0 -27 11.5t-11 28.5q0 16 11 27t27 11h304q16 0 28 -12.5t12 -31.5q0 -16 -9 -28l-251 -334h228q15 0 26 -11t11 -26zM369 677q0 -11 -9 -20l-118 -101q-6 -6 -14 -6
q-9 0 -16.5 7t-7.5 17t6 16l108 107q8 8 21 8q11 0 20.5 -8t9.5 -20z" />
    <glyph glyph-name="Zdotaccent" unicode="&#x17b;" horiz-adv-x="587" 
d="M546 45q0 -19 -12.5 -32t-30.5 -13h-410q-20 0 -36 16t-16 39q0 19 11 33l353 491h-322q-17 0 -30 13t-13 32q0 18 13 30.5t30 12.5h404q20 0 35.5 -16t15.5 -39q0 -18 -11 -34l-353 -490h329q18 0 30.5 -13t12.5 -30zM342 771q0 -22 -15 -37t-36 -15q-22 0 -37.5 15
t-15.5 37t15.5 37.5t37.5 15.5q21 0 36 -15.5t15 -37.5z" />
    <glyph glyph-name="zdotaccent" unicode="&#x17c;" horiz-adv-x="474" 
d="M430 40q0 -17 -11 -28.5t-26 -11.5h-307q-17 0 -29.5 13t-12.5 32q0 16 10 29l248 331h-221q-16 0 -27 11.5t-11 28.5q0 16 11 27t27 11h304q16 0 28 -12.5t12 -31.5q0 -16 -9 -28l-251 -334h228q15 0 26 -11t11 -26zM287 604q0 -22 -15 -37t-36 -15q-22 0 -37.5 15
t-15.5 37t15.5 37.5t37.5 15.5q21 0 36 -15.5t15 -37.5z" />
    <glyph glyph-name="Zcaron" unicode="&#x17d;" horiz-adv-x="587" 
d="M546 45q0 -19 -12.5 -32t-30.5 -13h-410q-20 0 -36 16t-16 39q0 19 11 33l353 491h-322q-17 0 -30 13t-13 32q0 18 13 30.5t30 12.5h404q20 0 35.5 -16t15.5 -39q0 -18 -11 -34l-353 -490h329q18 0 30.5 -13t12.5 -30zM414 849q0 -8 -4 -12l-61 -89q-20 -31 -58 -31
q-37 0 -57 31l-58 89q-4 4 -4 12t7 16t18 8q10 0 19 -9l76 -99l78 99q8 9 18 9t18 -7t8 -17z" />
    <glyph glyph-name="zcaron" unicode="&#x17e;" horiz-adv-x="474" 
d="M430 40q0 -17 -11 -28.5t-26 -11.5h-307q-17 0 -29.5 13t-12.5 32q0 16 10 29l248 331h-221q-16 0 -27 11.5t-11 28.5q0 16 11 27t27 11h304q16 0 28 -12.5t12 -31.5q0 -16 -9 -28l-251 -334h228q15 0 26 -11t11 -26zM356 682q0 -8 -4 -12l-61 -89q-20 -31 -58 -31
q-37 0 -57 31l-58 89q-4 4 -4 12t7 16t18 8q10 0 19 -9l76 -99l78 99q8 9 18 9t18 -7t8 -17z" />
    <glyph glyph-name="florin" unicode="&#x192;" horiz-adv-x="437" 
d="M445 623q0 -17 -11.5 -30.5t-28.5 -13.5q-6 0 -20.5 5t-23.5 5q-34 0 -59 -22.5t-34 -62.5l-39 -174h100q16 0 27 -12t11 -29q0 -16 -11 -27.5t-27 -11.5h-117l-85 -381q-3 -17 -16.5 -27.5t-30.5 -10.5q-21 0 -35 13.5t-14 33.5q0 7 1 11l79 361h-31q-16 0 -27.5 11.5
t-11.5 29.5q0 16 11.5 27.5t27.5 11.5h48l44 193q16 71 64.5 112.5t115.5 41.5q37 0 65 -12.5t28 -41.5z" />
    <glyph glyph-name="uni0218" unicode="&#x218;" horiz-adv-x="590" 
d="M548 189q0 -86 -62.5 -143.5t-189.5 -57.5q-73 0 -136 22.5t-103 61.5q-12 14 -12 31q0 19 13 34t33 15q16 0 28 -9q80 -68 181 -68q74 0 110 31.5t36 72.5q0 43 -40.5 68.5t-98 39.5t-115 32t-98 59.5t-40.5 108.5q0 83 66.5 136.5t169.5 53.5q63 0 122 -19t96 -53
q13 -12 13 -31t-14 -32.5t-33 -13.5q-15 0 -27 9q-72 53 -165 53q-56 0 -91 -26.5t-35 -69.5q0 -32 29 -53.5t72.5 -31.5t94.5 -26t94.5 -35t72.5 -60t29 -99zM349 -138q0 -71 -59 -125q-7 -7 -17 -7t-16 6l-1 1q-7 7 -7 14t6 12q39 41 43 73q-2 -2 -12 -2q-19 0 -32 13.5
t-13 33.5q0 22 14.5 37t35.5 15q24 0 41 -19t17 -52z" />
    <glyph glyph-name="uni0219" unicode="&#x219;" horiz-adv-x="468" 
d="M426 136q0 -64 -51.5 -106t-144.5 -42q-120 0 -183 63q-11 9 -11 24q0 16 11.5 26.5t27.5 10.5q13 0 23 -7q64 -46 136 -46q50 0 77.5 20.5t27.5 54.5q0 29 -30.5 45.5t-73.5 26t-86.5 22t-74 44t-30.5 81.5q0 60 49.5 101t134.5 41q108 0 168 -58q9 -9 9 -22
q0 -15 -10.5 -25t-24.5 -10q-13 0 -21 7q-52 37 -120 37q-45 0 -72 -19t-27 -49q0 -26 30.5 -41t74 -24t87 -22.5t74 -46.5t30.5 -86zM291 -138q0 -71 -59 -125q-7 -7 -17 -7t-16 6l-1 1q-7 7 -7 14t6 12q39 41 43 73q-2 -2 -12 -2q-19 0 -32 13.5t-13 33.5q0 22 14.5 37
t35.5 15q24 0 41 -19t17 -52z" />
    <glyph glyph-name="uni021A" unicode="&#x21a;" 
d="M549 622q0 -17 -12.5 -30t-30.5 -13h-170v-536q0 -20 -14.5 -34.5t-35.5 -14.5q-20 0 -34.5 14.5t-14.5 34.5v536h-170q-18 0 -30.5 13t-12.5 32q0 18 12.5 30.5t30.5 12.5h439q18 0 30.5 -13t12.5 -32zM347 -138q0 -71 -59 -125q-7 -7 -17 -7t-16 6l-1 1q-7 7 -7 14
t6 12q39 41 43 73q-2 -2 -12 -2q-19 0 -32 13.5t-13 33.5q0 22 14.5 37t35.5 15q24 0 41 -19t17 -52z" />
    <glyph glyph-name="uni021B" unicode="&#x21b;" horiz-adv-x="306" 
d="M297 35q0 -47 -92 -47q-57 0 -86.5 30.5t-29.5 87.5v299h-47q-17 0 -28 11.5t-11 28.5q0 16 11.5 27t27.5 11h47v95q0 17 13.5 30t32.5 13q18 0 31 -13t13 -30v-95h66q16 0 27 -11.5t11 -28.5q0 -16 -11 -27t-27 -11h-66v-278q0 -28 12.5 -44t34.5 -16q6 0 17 2.5t16 2.5
q16 0 27 -10.5t11 -26.5zM213 -138q0 -71 -59 -125q-7 -7 -17 -7t-16 6l-1 1q-7 7 -7 14t6 12q39 41 43 73q-2 -2 -12 -2q-19 0 -32 13.5t-13 33.5q0 22 14.5 37t35.5 15q24 0 41 -19t17 -52z" />
    <glyph glyph-name="circumflex" unicode="&#x2c6;" horiz-adv-x="274" 
d="M258 573q0 -8 -7.5 -16t-18.5 -8q-10 0 -18 9l-78 99l-76 -98q-8 -9 -19 -9q-10 0 -18 7t-8 16q0 6 5 13l58 89q20 31 59 31q36 0 56 -31l61 -89q4 -4 4 -13z" />
    <glyph glyph-name="caron" unicode="&#x2c7;" horiz-adv-x="274" 
d="M261 682q0 -8 -4 -12l-61 -89q-20 -31 -58 -31q-37 0 -57 31l-58 89q-4 4 -4 12t7 16t18 8q10 0 19 -9l76 -99l78 99q7 9 18 9q10 0 18 -7t8 -17z" />
    <glyph glyph-name="breve" unicode="&#x2d8;" horiz-adv-x="351" 
d="M341 621q0 -10 -7 -17q-65 -68 -158 -68t-159 68q-6 6 -6 17q0 10 8 18.5t20 8.5q10 0 21 -8q46 -49 116 -49q71 0 115 49q8 8 21 8q12 0 20.5 -8.5t8.5 -18.5z" />
    <glyph glyph-name="dotaccent" unicode="&#x2d9;" horiz-adv-x="128" 
d="M116 604q0 -22 -15 -37t-36 -15q-22 0 -37.5 15t-15.5 37t15.5 37.5t37.5 15.5q21 0 36 -15.5t15 -37.5z" />
    <glyph glyph-name="ring" unicode="&#x2da;" horiz-adv-x="200" 
d="M200 640q0 -41 -29.5 -70.5t-70.5 -29.5t-70.5 29.5t-29.5 70.5t29.5 71t70.5 30t70.5 -30t29.5 -71zM155 640q0 23 -16 39t-39 16t-39 -16t-16 -39t16.5 -39.5t38.5 -16.5q23 0 39 16.5t16 39.5z" />
    <glyph glyph-name="ogonek" unicode="&#x2db;" horiz-adv-x="182" 
d="M175 -134q0 -21 -27 -36.5t-56 -15.5q-40 0 -66 22t-26 66q0 65 70 112q8 5 17 5q8 0 16 -4.5t8 -13.5q0 -8 -7 -12q-54 -35 -54 -84q0 -48 42 -48q25 0 43 23q6 8 17 8q10 0 16.5 -6t6.5 -16z" />
    <glyph glyph-name="tilde" unicode="&#x2dc;" horiz-adv-x="317" 
d="M315 666q-3 -48 -28 -80t-70 -32q-24 0 -42.5 13.5t-28 29.5t-22.5 29.5t-28 13.5q-35 0 -44 -57q-1 -10 -9.5 -17.5t-19.5 -7.5q-9 0 -15.5 7t-6.5 16q0 46 27.5 79.5t71.5 33.5q24 0 42 -13.5t27.5 -29t23 -29t28.5 -13.5q36 0 43 56q1 10 9.5 17.5t19.5 7.5
q10 0 16 -7t6 -17z" />
    <glyph glyph-name="hungarumlaut" unicode="&#x2dd;" horiz-adv-x="314" 
d="M143 676q0 -9 -5 -17l-82 -101q-4 -9 -17 -9q-9 0 -17 7t-8 16q0 7 4 12l69 108q9 14 25 14q14 0 22.5 -9.5t8.5 -20.5zM287 676q0 -9 -5 -17l-81 -101q-7 -9 -18 -9q-10 0 -17.5 6.5t-7.5 16.5q0 7 4 12l69 108q8 14 25 14q14 0 22.5 -9.5t8.5 -20.5z" />
    <glyph glyph-name="uni03A9" unicode="&#x3a9;" horiz-adv-x="765" 
d="M718 353q0 -175 -147 -265h89q17 0 29.5 -13t12.5 -32q0 -18 -12.5 -30.5t-29.5 -12.5h-164q-18 0 -31.5 13t-13.5 30q0 38 38 59q56 28 91.5 89t35.5 143q0 108 -61.5 181.5t-172.5 73.5q-110 0 -171.5 -73.5t-61.5 -181.5q0 -82 35.5 -143t91.5 -89q38 -20 38 -57
q0 -19 -13.5 -32t-31.5 -13h-163q-18 0 -30.5 12.5t-12.5 30.5q0 19 12.5 32t30.5 13h89q-149 92 -149 265q0 143 94 234t242 91q149 0 242.5 -90.5t93.5 -234.5z" />
    <glyph glyph-name="pi" unicode="&#x3c0;" horiz-adv-x="595" 
d="M592 443q0 -16 -11 -27t-27 -11h-48v-367q0 -18 -13.5 -31t-32.5 -13q-18 0 -31 13t-13 31v367h-237v-367q0 -18 -13.5 -31t-32.5 -13q-18 0 -31 13t-13 31v367h-47q-17 0 -28 11.5t-11 28.5q0 16 11.5 27t27.5 11h512q16 0 27 -11.5t11 -28.5z" />
    <glyph glyph-name="endash" unicode="&#x2013;" horiz-adv-x="593" 
d="M569 243q0 -17 -11 -28.5t-27 -11.5h-469q-16 0 -27 11.5t-11 28.5q0 16 11 27t27 11h469q16 0 27 -11t11 -27z" />
    <glyph glyph-name="emdash" unicode="&#x2014;" horiz-adv-x="833" 
d="M809 243q0 -17 -11 -28.5t-27 -11.5h-709q-16 0 -27 11.5t-11 28.5q0 16 11 27t27 11h709q16 0 27 -11t11 -27z" />
    <glyph glyph-name="quoteleft" unicode="&#x2018;" horiz-adv-x="237" 
d="M175 496q0 -25 -17.5 -43t-42.5 -18q-29 0 -49.5 22.5t-20.5 60.5q0 41 20 81.5t54 68.5q6 6 16 6q11 0 19.5 -8t8.5 -18q0 -11 -8 -19q-43 -38 -49 -79q4 2 15 2q23 0 38.5 -15.5t15.5 -40.5z" />
    <glyph glyph-name="quoteright" unicode="&#x2019;" horiz-adv-x="237" 
d="M187 594q0 -41 -20.5 -81t-53.5 -69q-8 -6 -17 -6q-11 0 -19.5 7.5t-8.5 17.5q0 12 8 20q43 38 49 79q-6 -3 -15 -3q-23 0 -38 16t-15 41t17 43t42 18q29 0 50 -22.5t21 -60.5z" />
    <glyph glyph-name="quotesinglbase" unicode="&#x201a;" horiz-adv-x="237" 
d="M187 31q0 -41 -20.5 -81t-53.5 -69q-9 -7 -17 -7q-11 0 -19.5 8t-8.5 18t8 20q42 36 49 78q-4 -2 -15 -2q-23 0 -38 16t-15 41t17 43t42 18q29 0 50 -22.5t21 -60.5z" />
    <glyph glyph-name="quotedblleft" unicode="&#x201c;" horiz-adv-x="409" 
d="M351 496q0 -25 -17.5 -43t-42.5 -18q-29 0 -49.5 22.5t-20.5 60.5q0 41 20 81.5t53 68.5q8 6 17 6q11 0 19.5 -8t8.5 -18q0 -11 -8 -19q-43 -38 -49 -79q4 2 15 2q23 0 38.5 -15.5t15.5 -40.5zM179 496q0 -25 -17.5 -43t-42.5 -18q-29 0 -49.5 22.5t-20.5 60.5
q0 41 20 81.5t54 68.5q7 6 17 6q11 0 19.5 -8t8.5 -18q0 -12 -9 -19q-43 -40 -49 -79q6 2 16 2q23 0 38 -15.5t15 -40.5z" />
    <glyph glyph-name="quotedblright" unicode="&#x201d;" horiz-adv-x="409" 
d="M358 594q0 -41 -20 -81.5t-53 -68.5q-7 -6 -17 -6q-11 0 -19.5 7.5t-8.5 17.5q0 12 8 20q43 38 49 79q-6 -3 -15 -3q-23 0 -38.5 16t-15.5 41t17.5 43t42.5 18q29 0 49.5 -22.5t20.5 -60.5zM187 594q0 -41 -20.5 -81t-53.5 -69q-8 -6 -17 -6q-11 0 -19.5 7.5t-8.5 17.5
q0 13 9 20q44 40 48 79q-6 -3 -15 -3q-23 0 -38 16t-15 41t17 43t42 18q29 0 50 -22.5t21 -60.5z" />
    <glyph glyph-name="quotedblbase" unicode="&#x201e;" horiz-adv-x="409" 
d="M187 31q0 -41 -20.5 -81t-53.5 -69q-9 -7 -17 -7q-11 0 -19.5 8t-8.5 18t8 20q42 36 49 78q-4 -2 -15 -2q-23 0 -38 16t-15 41t17 43t42 18q29 0 50 -22.5t21 -60.5zM358 31q0 -41 -20 -81.5t-53 -68.5q-9 -7 -17 -7q-11 0 -19.5 8t-8.5 18t8 20q42 36 49 78
q-4 -2 -15 -2q-23 0 -38.5 16t-15.5 41t17.5 43t42.5 18q29 0 49.5 -22.5t20.5 -60.5z" />
    <glyph glyph-name="dagger" unicode="&#x2020;" horiz-adv-x="267" 
d="M251 554q0 -12 -7 -18.5t-16 -5.5l-72 3l3 -186q0 -11 -8 -18.5t-19 -7.5t-18 7.5t-7 18.5l4 186l-72 -3q-9 -1 -16 5.5t-7 18.5q0 9 7 15.5t16 6.5l72 -2l-4 83q-1 11 7 18.5t20 7.5q10 0 17.5 -7.5t7.5 -18.5l-3 -83l72 2q9 0 16 -6.5t7 -15.5z" />
    <glyph glyph-name="daggerdbl" unicode="&#x2021;" horiz-adv-x="267" 
d="M251 304q0 -10 -7 -16t-16 -6l-72 2l3 -84q0 -11 -7.5 -18.5t-19.5 -7.5q-10 0 -17.5 7.5t-7.5 18.5l3 84l-71 -2q-9 -1 -16 5.5t-7 18.5q0 9 7 15.5t16 6.5l71 -3v208l-71 -3q-9 -1 -16 5.5t-7 18.5q0 9 7 15.5t16 6.5l71 -2l-3 83q0 11 7.5 18.5t19.5 7.5
q10 0 17.5 -7.5t7.5 -18.5l-3 -83l72 2q9 0 16 -6.5t7 -17.5q0 -10 -7 -16.5t-16 -5.5l-72 3v-208l72 3q9 0 16 -6.5t7 -17.5z" />
    <glyph glyph-name="bullet" unicode="&#x2022;" horiz-adv-x="358" 
d="M291 242q0 -45 -32.5 -77.5t-78.5 -32.5t-78.5 32.5t-32.5 77.5q0 46 32.5 78.5t78.5 32.5t78.5 -32.5t32.5 -78.5z" />
    <glyph glyph-name="ellipsis" unicode="&#x2026;" horiz-adv-x="711" 
d="M179 52q0 -25 -18 -43.5t-43 -18.5t-43 18.5t-18 43.5t18 43.5t43 18.5t43 -18.5t18 -43.5zM417 52q0 -25 -19 -43.5t-44 -18.5t-43 18.5t-18 43.5t18 43.5t43 18.5t44 -18.5t19 -43.5zM654 52q0 -25 -18.5 -43.5t-43.5 -18.5t-43.5 18.5t-18.5 43.5t18.5 43.5t43.5 18.5
t43.5 -18.5t18.5 -43.5z" />
    <glyph glyph-name="perthousand" unicode="&#x2030;" horiz-adv-x="1093" 
d="M192 677q73 0 118.5 -47.5t45.5 -119.5q0 -71 -45.5 -117t-118.5 -46q-72 0 -117 46t-45 117q0 72 45 119.5t117 47.5zM545 318q72 0 118 -47.5t46 -118.5q0 -70 -46 -117t-118 -47t-117 46.5t-45 117.5t45 118.5t117 47.5zM545 41q42 0 69 31t27 80t-27 81t-69 32
t-68.5 -31.5t-26.5 -81.5q0 -49 26.5 -80t68.5 -31zM900 41q43 0 69.5 31t26.5 80q0 50 -26.5 81.5t-69.5 31.5q-42 0 -68 -31.5t-26 -81.5q0 -49 26 -80t68 -31zM900 318q72 0 118 -47.5t46 -118.5q0 -70 -46 -117t-118 -47q-71 0 -116.5 47t-45.5 117q0 71 45.5 118.5
t116.5 47.5zM192 400q42 0 69 31t27 79q0 50 -27 82t-69 32q-41 0 -67.5 -32t-26.5 -82q0 -48 26.5 -79t67.5 -31zM595 635l-403 -631q-9 -11 -20 -11t-19 7.5t-8 17.5q0 6 5 14l402 630q6 11 21 11q10 0 17.5 -8t7.5 -18q0 -7 -3 -12z" />
    <glyph glyph-name="guilsinglleft" unicode="&#x2039;" horiz-adv-x="306" 
d="M242 90q0 -13 -9.5 -23.5t-22.5 -10.5q-15 0 -23 11l-114 127q-18 20 -18 48t19 49l113 125q8 10 22 10q13 0 23 -9t10 -23q0 -12 -7 -20l-119 -131l119 -133q7 -11 7 -20z" />
    <glyph glyph-name="guilsinglright" unicode="&#x203a;" horiz-adv-x="306" 
d="M251 242q0 -27 -18 -48l-113 -127q-9 -11 -23 -11q-13 0 -23 9.5t-10 23.5q0 13 8 21l118 133l-118 131q-8 8 -8 19q0 13 9 23t23 10q12 0 24 -10l113 -125q18 -21 18 -49z" />
    <glyph glyph-name="fraction" unicode="&#x2044;" horiz-adv-x="144" 
d="M300 650q0 -7 -4 -13l-405 -634q-9 -11 -21 -11q-11 0 -19 7.5t-8 18.5q0 5 5 12l405 635q6 11 21 11q11 0 18.5 -8t7.5 -18z" />
    <glyph glyph-name="Euro" unicode="&#x20ac;" horiz-adv-x="699" 
d="M414 678q140 0 229 -99q11 -14 11 -32q0 -19 -13.5 -32.5t-32.5 -13.5q-22 0 -35 16q-29 34 -72 53.5t-87 19.5q-78 0 -138.5 -42t-87.5 -114h265q12 0 20 -8.5t8 -21.5q0 -12 -8 -20t-20 -8h-280q-3 -21 -3 -43q0 -21 3 -41h280q12 0 20 -8.5t8 -21.5q0 -11 -8 -19.5
t-20 -8.5h-265q26 -72 87 -115t139 -43q95 0 159 72q14 16 35 16q19 0 32.5 -14t13.5 -32q0 -19 -12 -31q-90 -99 -228 -99q-121 0 -212 67t-121 179h-30q-12 0 -20.5 8.5t-8.5 21.5q0 12 8.5 20t20.5 8h19q-2 26 -2 41t2 43h-19q-12 0 -20.5 8.5t-8.5 21.5q0 11 8.5 19.5
t20.5 8.5h30q31 111 122 177.5t211 66.5z" />
    <glyph glyph-name="trademark" unicode="&#x2122;" horiz-adv-x="454" 
d="M419 454q0 -13 -15 -13q-13 0 -13 13v175l-70 -168q-3 -7 -9 -7t-9 8l-70 167v-175q0 -13 -15 -13q-13 0 -13 13v194q0 9 7 16.5t18 7.5q16 0 22 -14l60 -151l60 150q5 15 22 15q11 0 18 -7t7 -17v-194zM175 655q0 -14 -12 -14h-56v-187q0 -13 -15 -13q-13 0 -13 13v187
h-56q-12 0 -12 14q0 5 3.5 8.5t8.5 3.5h140q5 0 8.5 -3.5t3.5 -8.5z" />
    <glyph glyph-name="partialdiff" unicode="&#x2202;" 
d="M530 251q0 -117 -66 -190t-178 -73q-110 0 -176.5 70t-66.5 173q0 102 61.5 172.5t156.5 70.5q101 0 155 -81q-27 61 -79.5 117.5t-125.5 97.5q-19 12 -19 33q0 17 11.5 28t28.5 11q12 0 23 -6q118 -67 196.5 -180t78.5 -243zM437 231q0 69 -40.5 116.5t-110.5 47.5
q-69 0 -110 -47.5t-41 -116.5t41 -116.5t110 -47.5q70 0 110.5 47.5t40.5 116.5z" />
    <glyph glyph-name="Delta" unicode="&#x2206;" horiz-adv-x="665" 
d="M639 45q0 -18 -13 -31.5t-32 -13.5h-523q-20 0 -32.5 13.5t-12.5 31.5q0 9 3 16l223 559q9 24 31 38.5t48 14.5q27 1 49.5 -13.5t32.5 -39.5l223 -559q3 -8 3 -16zM519 88l-187 478l-186 -478h373z" />
    <glyph glyph-name="product" unicode="&#x220f;" horiz-adv-x="729" 
d="M705 622q0 -17 -13 -30t-30 -13h-71v-627q0 -20 -14.5 -34t-35.5 -14q-20 0 -34.5 14t-14.5 34v627h-255v-627q0 -20 -14.5 -34t-35.5 -14q-20 0 -34.5 14t-14.5 34v627h-71q-18 0 -30.5 13t-12.5 32q0 18 12.5 30.5t30.5 12.5h595q18 0 30.5 -13t12.5 -32z" />
    <glyph glyph-name="summation" unicode="&#x2211;" horiz-adv-x="578" 
d="M532 -47q0 -18 -12.5 -30.5t-30.5 -12.5h-386q-22 0 -39.5 17t-17.5 43q0 20 12 36l217 290l-216 275q-13 16 -13 37q0 24 17 41.5t40 17.5h386q18 0 30.5 -13t12.5 -32q0 -17 -12.5 -30t-30.5 -13h-314l180 -231q19 -24 19 -51q0 -26 -18 -52l-185 -247h318
q18 0 30.5 -13t12.5 -32z" />
    <glyph glyph-name="radical" unicode="&#x221a;" horiz-adv-x="713" 
d="M671 642q0 -7 -2 -11l-241 -611q-10 -26 -41 -26q-27 0 -39 27l-117 299l-128 -49q-6 -2 -9 -2q-12 0 -21 8.5t-9 22.5q0 19 19 28l125 47q9 4 23 4q44 0 62 -43l97 -245l220 563q7 20 29 20q14 0 23 -9.5t9 -22.5z" />
    <glyph glyph-name="infinity" unicode="&#x221e;" horiz-adv-x="665" 
d="M636 335q0 -68 -40 -118t-117 -50q-48 0 -86 30t-61 76q-22 -46 -60 -76t-86 -30q-77 0 -117 50.5t-40 117.5q0 68 40 118t117 50q48 0 86 -30t60 -76q23 46 61 76t86 30q77 0 117 -50t40 -118zM305 335q-17 46 -45.5 77.5t-65.5 31.5q-46 0 -73.5 -30t-27.5 -79
q0 -48 27.5 -78.5t73.5 -30.5q37 0 65.5 31.5t45.5 77.5zM572 335q0 49 -27 79t-73 30q-38 0 -66.5 -31.5t-44.5 -77.5q16 -46 44.5 -77t66.5 -31q46 0 73 29.5t27 78.5z" />
    <glyph glyph-name="integral" unicode="&#x222b;" horiz-adv-x="355" 
d="M344 736q0 -13 -9 -22t-22 -9h-37q-27 0 -46 -22t-19 -56v-586q0 -63 -39.5 -102t-93.5 -39h-35q-14 0 -23 9t-9 23q0 13 9 22t23 9h35q27 0 46 22.5t19 56.5v584q0 63 39.5 102.5t93.5 39.5h37q13 0 22 -9t9 -23z" />
    <glyph glyph-name="approxequal" unicode="&#x2248;" horiz-adv-x="500" 
d="M478 251q0 -12 -8.5 -20.5t-19.5 -8.5q-8 0 -11 2q-37 15 -79 15q-46 0 -104.5 -28.5t-115.5 -28.5q-35 0 -77 11.5t-42 35.5q0 13 8.5 21.5t19.5 8.5q7 0 11 -2q40 -16 80 -16q46 0 104 28.5t116 28.5q37 0 77.5 -11.5t40.5 -35.5zM478 439q0 -13 -8.5 -21.5t-19.5 -8.5
q-8 0 -11 2q-37 15 -79 15q-46 0 -104.5 -28t-115.5 -28q-36 0 -77.5 11.5t-41.5 35.5q0 12 8.5 20.5t19.5 8.5q7 0 11 -2q38 -15 80 -15q46 0 104 28.5t116 28.5q36 0 77 -11.5t41 -35.5z" />
    <glyph glyph-name="notequal" unicode="&#x2260;" horiz-adv-x="500" 
d="M477 237q0 -12 -8 -20.5t-20 -8.5h-249l-71 -113q-7 -11 -20 -11q-11 0 -19 8t-8 18q0 6 5 13l53 85h-89q-11 0 -19.5 9t-8.5 22q0 12 8.5 20t19.5 8h127l84 133h-210q-12 0 -20.5 9t-8.5 22q0 11 9 20t20 9h248l71 112q8 10 20 10q11 0 19.5 -8t8.5 -18q0 -3 -4 -13
l-54 -83h88q11 0 19.5 -9t8.5 -22q0 -12 -8.5 -20.5t-19.5 -8.5h-126l-85 -133h211q12 0 20 -8.5t8 -21.5z" />
    <glyph glyph-name="lessequal" unicode="&#x2264;" horiz-adv-x="500" 
d="M477 150q0 -14 -10 -23t-22 -9q-7 0 -13 3l-384 185q-25 12 -25 42q0 27 25 39l383 186q5 2 14 2q12 0 22 -9t10 -23q0 -20 -18 -28l-359 -169l359 -168q18 -7 18 -28zM477 30q1 -12 -7.5 -21t-20.5 -9h-398q-11 0 -19.5 8.5t-8.5 21.5q0 12 8.5 20.5t19.5 8.5h398
q12 0 20 -8.5t8 -20.5z" />
    <glyph glyph-name="greaterequal" unicode="&#x2265;" horiz-adv-x="500" 
d="M477 348q0 -30 -25 -42l-385 -185q-6 -3 -13 -3q-11 0 -21 9t-10 23q0 22 17 28l359 168l-358 169q-19 8 -19 28q0 14 10 23t23 9q9 0 13 -2l384 -186q25 -12 25 -39zM477 30q0 -13 -8.5 -21.5t-20.5 -8.5h-398q-11 0 -19.5 8.5t-8.5 21.5q0 12 8.5 20.5t19.5 8.5h398
q12 0 20.5 -8.5t8.5 -20.5z" />
    <glyph glyph-name="lozenge" unicode="&#x25ca;" horiz-adv-x="375" 
d="M343 334q0 -28 -12 -52l-129 -273q-4 -9 -15 -9q-10 0 -14 9l-129 273q-12 24 -12 52q0 26 12 52l129 272q4 9 16 9q9 0 13 -9l129 -272q12 -26 12 -52zM320 334l-133 292l-132 -292l133 -293z" />
    <glyph glyph-name="commaaccent" unicode="&#xf6c3;" horiz-adv-x="237" 
d="M175 -138q0 -71 -59 -125q-7 -7 -17 -7t-16 6l-1 1q-7 7 -7 14t6 12q39 41 43 73q-2 -2 -12 -2q-19 0 -32 13.5t-13 33.5q0 22 14.5 37t35.5 15q24 0 41 -19t17 -52z" />
    <glyph glyph-name="uniF8FF" unicode="&#xf8ff;" horiz-adv-x="667" 
d="M625 154q0 -46 -32.5 -79t-78.5 -33t-79 33t-33 79v72h-137v-72q0 -46 -33 -79t-79 -33t-78.5 33t-32.5 79t32.5 78.5t78.5 32.5h71v137h-70q-46 0 -79 33t-33 79t33 78.5t79 32.5t78.5 -32.5t32.5 -78.5v-73h137v73q0 46 33 78.5t79 32.5t78.5 -32.5t32.5 -78.5
t-32.5 -79t-78.5 -33h-71v-137h71q46 0 78.5 -32.5t32.5 -78.5zM584 514q0 30 -20 51t-50 21t-50.5 -21t-20.5 -51v-73h71q30 0 50 21.5t20 51.5zM402 265v137h-137v-137h137zM584 154q0 30 -20 51t-50 21h-71v-72q0 -30 20.5 -51.5t50.5 -21.5t50 21.5t20 51.5zM224 441v73
q0 30 -20 51t-50 21t-51 -21t-21 -51t21 -51.5t51 -21.5h70zM224 154v72h-72q-30 0 -50 -21t-20 -51t20.5 -51.5t50.5 -21.5t50.5 21.5t20.5 51.5z" />
    </font>
</defs>
</svg>
