
<svg width="200px" height="200px" viewBox="0 0 200 200" version="1.1" xmlns="http://www.w3.org/2000/svg" xmlns:xlink="http://www.w3.org/1999/xlink">
    <defs>
        <circle id="path-1" cx="117.76368" cy="117.76368" r="117.76368"></circle>
    </defs>
    <g id="Mockup-Without-Video-Unscaled" stroke="none" stroke-width="1" fill="none" fill-rule="evenodd">
        <g id="Main" transform="translate(-104.000000, -369.000000)">
            <g id="Face" transform="translate(81.000000, 294.000000)">
                <g id="Background-Graphic" transform="translate(0.000000, 18.842189)">
                    <mask id="mask-2" fill="white">
                        <use xlink:href="#path-1"></use>
                    </mask>
                    <g id="Oval"></g>
                    <path d="M172.883509,119.507847 L271.54886,220.687459 C273.200114,222.258474 273.200114,224.797581 271.54886,226.366005 L172.883509,327.39081 C171.232256,329.203868 168.555045,329.405994 166.903791,327.83498 L68.2384402,226.655368 C66.5871866,224.839719 66.5871866,221.892159 68.2384402,220.079101 L166.903791,119.054295 C168.555045,117.485872 171.232256,117.692198 172.883509,119.507847 Z" id="Rectangle" fill="#25266C" mask="url(#mask-2)"></path>
                    <path d="M99.8835092,137.507847 L198.54886,238.687459 C200.200114,240.258474 200.200114,242.797581 198.54886,244.366005 L99.8835092,345.39081 C98.2322556,347.203868 95.5550445,347.405994 93.9037909,345.83498 L-4.76155981,244.655368 C-6.4128134,242.839719 -6.4128134,239.892159 -4.76155981,238.079101 L93.9037909,137.054295 C95.5550445,135.485872 98.2322556,135.692198 99.8835092,137.507847 Z" id="Rectangle" fill="#25266C" mask="url(#mask-2)"></path>
                    <rect id="Rectangle" fill="#25266C" mask="url(#mask-2)" x="23.0531324" y="184.702617" width="163.298969" height="138.176051"></rect>
                    <circle id="Oval" fill="#25266C" mask="url(#mask-2)" cx="103.298969" cy="75.9476606" r="18.8421887"></circle>
                </g>
            </g>
        </g>
    </g>
</svg>